<svg width="100" height="61" viewBox="0 0 100 61" fill="none" xmlns="http://www.w3.org/2000/svg">
<path fill-rule="evenodd" clip-rule="evenodd" d="M25.938 53.9272V59.6575H27.3324V57.5276H29.0821V56.3361H27.3324V55.1441H29.437V53.9272H25.938Z" fill="#FEFEFE"/>
<path fill-rule="evenodd" clip-rule="evenodd" d="M32.9361 53.8511C34.6601 53.8511 35.928 55.119 35.928 56.7669C35.928 58.4405 34.6601 59.7588 32.9361 59.7588C31.2122 59.7588 29.9442 58.4405 29.9442 56.7669C29.9442 55.119 31.2122 53.8511 32.9361 53.8511ZM32.9361 58.4655C33.7981 58.4655 34.4826 57.7307 34.4826 56.7669C34.4826 55.8289 33.7981 55.119 32.9361 55.119C32.0741 55.119 31.3893 55.8289 31.3893 56.7669C31.3893 57.7307 32.0741 58.4655 32.9361 58.4655Z" fill="#FEFEFE"/>
<path fill-rule="evenodd" clip-rule="evenodd" d="M36.8661 53.9275H38.8439C39.427 53.9275 39.7059 53.9782 39.9594 54.0539C40.6186 54.3078 41.0242 54.8909 41.0242 55.7021C41.0242 56.3109 40.7453 56.9701 40.1622 57.249V57.2743C40.1622 57.2743 40.2383 57.3757 40.3904 57.6292L41.5059 59.6321H39.9594L38.9453 57.7053H38.2858V59.6321H36.8914V53.9275H36.8661ZM38.8689 56.5138C39.3256 56.5138 39.6045 56.2599 39.6045 55.8035C39.6045 55.3726 39.4524 55.119 38.7425 55.119H38.2605V56.5138H38.8689Z" fill="#FEFEFE"/>
<path fill-rule="evenodd" clip-rule="evenodd" d="M44.1683 53.9275H47.7433V55.1444H45.5627V56.1838H47.287V57.3757H45.5627V58.4405H47.8447V59.6574H44.1683V53.9275Z" fill="#FEFEFE"/>
<path fill-rule="evenodd" clip-rule="evenodd" d="M48.1237 53.9275H49.6448L50.6589 57.1729C50.7603 57.5278 50.8875 58.0856 50.8875 58.0856H50.9128C50.9128 58.0856 51.0142 57.5278 51.1156 57.1729L52.1297 53.9275H53.6258L51.6227 59.6321H50.1776L48.1491 53.9275H48.1237Z" fill="#FEFEFE"/>
<path fill-rule="evenodd" clip-rule="evenodd" d="M54.2341 53.9275H57.8091V55.1444H55.6288V56.1838H57.3785V57.3757H55.6288V58.4405H57.9362V59.6574H54.2341V53.9275Z" fill="#FEFEFE"/>
<path fill-rule="evenodd" clip-rule="evenodd" d="M58.9247 53.9275H60.9026C61.4857 53.9275 61.7645 53.9782 62.0181 54.0539C62.6772 54.3078 63.0832 54.8909 63.0832 55.7021C63.0832 56.3109 62.8043 56.9701 62.2209 57.249V57.2743C62.2209 57.2743 62.2969 57.3757 62.4494 57.6292L63.5649 59.6321H62.0181L61.004 57.7053H60.3448V59.6321H58.9501V53.9275H58.9247ZM60.9279 56.5138C61.3843 56.5138 61.6631 56.2599 61.6631 55.8035C61.6631 55.3726 61.5114 55.119 60.8012 55.119H60.3195V56.5138H60.9279Z" fill="#FEFEFE"/>
<path fill-rule="evenodd" clip-rule="evenodd" d="M65.4663 57.2993L63.5903 53.9275H65.1875L65.8466 55.2965C66.0244 55.6768 66.2019 56.1078 66.2019 56.1078H66.2269C66.2269 56.1078 66.3794 55.6768 66.5822 55.2965L67.216 53.9275H68.8135L66.9371 57.2993V59.6321H65.5427V57.2993H65.4663Z" fill="#FEFEFE"/>
<path fill-rule="evenodd" clip-rule="evenodd" d="M71.5261 57.8575C71.5261 57.8575 72.1853 58.4406 72.8955 58.4406C73.1744 58.4406 73.504 58.3392 73.504 57.9839C73.504 57.2994 70.943 57.3248 70.943 55.5755C70.943 54.5107 71.8304 53.8262 72.9712 53.8262C74.1888 53.8262 74.7969 54.46 74.7969 54.46L74.2138 55.6008C74.2138 55.6008 73.6307 55.0934 72.9462 55.0934C72.667 55.0934 72.3378 55.2205 72.3378 55.5501C72.3378 56.26 74.8983 56.1336 74.8983 57.9336C74.8983 58.8716 74.1631 59.7082 72.8955 59.7082C71.5515 59.7082 70.8163 58.8969 70.8163 58.8969L71.5515 57.8322L71.5261 57.8575Z" fill="#FEFEFE"/>
<path fill-rule="evenodd" clip-rule="evenodd" d="M76.9268 55.1444H75.2029V53.9275H80.0708V55.1444H78.3215V59.6574H76.9268V55.1444Z" fill="#FEFEFE"/>
<path fill-rule="evenodd" clip-rule="evenodd" d="M83.3165 58.4657H81.5415L81.1865 59.6576H79.7415L81.6939 53.9526H83.164L85.1165 59.6576H83.6714L83.3165 58.4657ZM82.4288 55.2456C82.4288 55.2456 82.302 55.8794 82.2006 56.2347L81.8714 57.3502H82.9865L82.6573 56.2347C82.5559 55.8794 82.4288 55.2456 82.4288 55.2456Z" fill="#FEFEFE"/>
<mask id="mask0_9_280" style="mask-type:luminance" maskUnits="userSpaceOnUse" x="85" y="53" width="6" height="7">
<path d="M85.3699 53.8511H90.872V59.7842H85.3699V53.8511Z" fill="#FEFEFE"/>
</mask>
<g mask="url(#mask0_9_280)">
<path fill-rule="evenodd" clip-rule="evenodd" d="M88.3364 53.8511C89.8072 53.8511 90.5428 54.6116 90.5428 54.6116L89.8833 55.6514C89.8833 55.6514 89.2998 55.119 88.4889 55.119C87.297 55.119 86.8153 55.8796 86.8153 56.7416C86.8153 57.8321 87.5759 58.4655 88.4632 58.4655C89.1223 58.4655 89.6297 58.0602 89.6297 58.0602V57.6289H88.8181V56.4373H90.872V59.6574H89.7058V59.5057V59.2771H89.6801C89.6801 59.2771 89.1223 59.7845 88.1843 59.7845C86.7139 59.7845 85.3699 58.694 85.3699 56.818C85.3699 55.1697 86.6125 53.8764 88.3618 53.8764L88.3364 53.8511Z" fill="#FEFEFE"/>
</g>
<path fill-rule="evenodd" clip-rule="evenodd" d="M91.861 53.9275H95.4614V55.1444H93.2807V56.1838H95.005V57.3757H93.2807V58.4405H95.5628V59.6574H91.861V53.9275Z" fill="#FEFEFE"/>
<path fill-rule="evenodd" clip-rule="evenodd" d="M93.8894 0.859346C93.8894 0.859346 90.0859 2.0259 88.1845 2.63435C86.2827 3.21744 86.4349 4.40899 86.4349 4.40899C86.4349 4.40899 86.4099 4.96709 86.4099 5.77836C86.0292 6.36146 85.1419 6.76709 84.9137 6.84315V6.64033C84.9137 6.31075 84.7109 3.97801 82.9613 4.5104C81.237 5.0428 80.0961 6.84315 79.3356 7.04597L79.082 7.14737V5.72766L76.0141 6.69104V12.7002C74.6704 14.3227 74.6194 14.6273 74.1377 14.7537C74.0873 12.7762 74.2137 10.2407 74.0873 9.2773C73.8845 7.67977 72.2109 7.85759 71.7289 8.0097C71.2472 8.16146 70.4106 8.56744 70.4866 8.82097C70.5627 9.07449 71.0954 9.48012 71.0954 9.48012C71.0954 9.48012 71.1458 15.6921 71.1208 16.8583C71.0954 18.0245 70.9683 18.2527 69.9289 18.5572C68.8894 18.8868 68.788 17.5935 68.788 17.5935C68.788 17.5935 68.7627 13.5622 68.7627 12.1171C68.737 10.697 69.219 10.6463 69.219 10.6463C70.4363 10.0886 70.2838 9.60688 70.2331 9.42942C70.1824 9.25195 69.9542 8.36428 67.85 9.02378C65.7451 9.68294 65.1873 11.5593 64.6553 12.4467C64.4778 12.7255 63.7423 13.1058 63.6408 13.2072C63.5648 11.9396 62.7028 11.0266 61.8151 11.1534C59.7363 11.4829 58.3669 13.6129 57.4289 13.9171L57.4035 1.41709L54.0567 2.45688C54.0567 2.45688 54.0567 16.1738 54.082 18.9122C54.1077 20.966 52.7887 21.321 52.1042 21.321V15.4893C52.1042 15.4893 52.2056 13.9681 50.6845 14.1453C50.6845 14.1453 48.6306 14.7287 48.3771 15.3372C48.1236 15.9456 48.7574 15.9456 48.7574 15.9456L48.7827 25.4537L47.3884 25.8847V16.0977L43.5852 17.2639L43.6106 20.3319C43.0018 21.2703 41.2271 23.8565 40.8975 24.2618C40.4919 24.7692 40.4412 24.1608 40.4412 24.1608V18.3034L37.0183 19.3685C37.1704 25.7326 35.9785 26.8484 35.5475 27.0255C35.2687 27.1273 34.6602 27.2794 34.4827 27.2537C34.4827 24.7439 34.5081 21.4727 34.5081 21.4727C34.5081 21.4727 34.5335 19.977 32.9106 20.1544C32.9106 20.1544 31.0092 20.6872 30.7556 21.2956C30.5018 21.9041 31.1359 21.9041 31.1359 21.9041V31.1333L29.7412 31.5643L29.8176 21.7266L26.0648 22.8928L25.9887 30.8794C23.707 33.2882 20.5627 34.4291 20.5627 34.4291C17.1655 36.1284 10.1673 35.6463 9.10246 30.1442L23.3518 25.5044L23.6813 23.6791L8.89965 28.4203C8.26585 22.3604 11.1813 19.6474 14.1225 18.7347C17.1905 17.7967 22.0335 19.1657 22.0335 19.1657L23.5292 17.0611C18.9401 14.9062 13.6408 16.4273 13.6408 16.4273C8.26585 18.1009 6.18662 20.6615 4.89331 24.1354C3.98063 26.5439 3.85387 28.8512 3.92993 30.0178L0.329577 31.1333L0 32.959L4.23415 31.64C7.30211 40.7174 13.6408 39.4241 16.9373 38.41C20.6134 37.2946 25.3042 34.0238 25.9887 33.5671V45.6361L29.7412 44.4699V33.1618L33.494 31.9192C33.494 31.9192 34.5081 31.691 34.5081 30.3981V29.4851L36.9676 28.2681C36.9676 28.2681 37.069 29.8146 37.5254 30.246C38.2859 30.9558 39.1225 30.1442 39.7567 29.5611C40.2637 29.1048 42.7232 25.4791 43.6359 24.1354L43.6106 40.0072L47.4137 38.8414V27.5076L51.2423 26.3157C51.2423 26.3157 52.1296 26.0115 52.1296 24.3632V23.6791C53.0933 23.1717 54.082 22.3604 54.082 22.3604V25.3777L57.4035 24.3632V17.1372C59.5077 14.3227 59.9898 16.1738 59.9898 16.1738L60.0151 23.4759L63.6408 22.3351C63.6408 22.3351 63.6155 18.5572 63.6408 15.8442C64.5539 14.6523 65.4919 15.2358 65.4919 15.2358V17.8981C65.5933 20.89 67.3933 21.1431 67.3933 21.1431C67.3933 21.1431 67.9764 21.0167 70.6894 20.1291C73.4785 19.2164 73.9349 19.2164 74.1377 17.7206C74.1634 17.5178 74.1887 17.1882 74.1887 16.8076C75.431 16.4527 75.6845 15.54 76.0901 15.1851L76.0648 18.4051L79.1327 17.416V10.6463C79.488 10.2914 80.1215 9.73364 80.4514 9.48012C81.0092 9.04914 81.3894 9.2773 81.3894 9.2773C81.3894 9.2773 81.3894 9.45477 81.4144 11.1284C81.4401 12.8016 81.4401 26.8734 81.4401 26.8734C81.4401 26.8734 81.3894 27.9386 82.2261 27.6851C83.0377 27.4312 85.6996 26.5692 85.6996 26.5692C85.6996 26.5692 86.6123 26.2903 86.9165 25.1748C87.2211 24.0336 87.5757 21.8787 87.5757 21.8787C87.5757 21.8787 87.6771 21.2449 87.1194 21.422C86.5616 21.5998 85.9785 21.7773 85.9785 21.7773L85.5222 23.4252L84.9898 23.5777C84.9898 23.5777 84.9898 13.9931 84.9391 9.17589C85.2687 8.82097 86.1306 8.21216 86.4099 7.95899C86.4349 9.50547 86.3845 11.1284 86.3845 12.2946C86.4099 14.9062 88.5394 14.3734 88.5394 14.3734L95.4866 12.1931V9.35336C94.3961 9.68294 93.0018 10.1646 93.0018 10.1646C92.8246 10.7224 92.6975 11.6101 91.1764 12.0664C89.6803 12.5227 90.2634 9.04913 90.2634 9.04913L95.5377 7.42625C95.5377 7.42625 95.5627 3.47097 95.512 1.94984C95.4613 0.42836 93.8641 0.91005 93.8641 0.91005L93.8894 0.859346ZM91.8356 4.13012V6.84315C91.8356 6.99526 91.6834 7.07132 91.6834 7.07132C91.6834 7.07132 90.8215 7.32484 90.6187 7.37554C90.4158 7.42625 90.2887 7.24878 90.2887 7.24878V4.40899C90.2887 4.28223 90.4662 4.25688 90.4662 4.25688C90.4662 4.25688 91.5056 3.95266 91.6581 3.90195C91.8102 3.85125 91.8356 4.10477 91.8356 4.10477V4.13012Z" fill="#FEFEFE"/>
<path fill-rule="evenodd" clip-rule="evenodd" d="M38.8438 15.2104C39.9846 14.8555 40.6188 13.6382 40.2635 12.4974C39.9086 11.3566 38.6917 10.7224 37.5508 11.0777C36.4096 11.4326 35.7758 12.6495 36.1308 13.7904C36.4857 14.9316 37.7026 15.5654 38.8438 15.2104Z" fill="#FEFEFE"/>
<path fill-rule="evenodd" clip-rule="evenodd" d="M99.9998 2.02578V1.89902C99.9745 1.01169 99.2393 0.352539 98.3773 0.352539C97.4896 0.352539 96.7544 1.03705 96.7544 1.94972C96.7544 2.88775 97.4896 3.54691 98.3773 3.54691C99.2393 3.54691 99.9745 2.88775 99.9998 2.00043V2.02578ZM98.3773 3.29374C97.6421 3.29374 97.084 2.73564 97.084 1.94972C97.084 1.18916 97.6671 0.631412 98.3773 0.631412C99.1121 0.631412 99.6702 1.21451 99.6702 1.94972C99.6702 2.71029 99.0871 3.29374 98.3773 3.29374Z" fill="#FEFEFE"/>
<path fill-rule="evenodd" clip-rule="evenodd" d="M99.1123 1.5695C99.1123 1.21457 98.8845 1.03711 98.4531 1.03711H97.7433V2.88781H98.0222V2.07655H98.3517L98.8334 2.88781H99.1376L98.6056 2.07655C98.8845 2.05119 99.0873 1.89908 99.0873 1.5695H99.1123ZM98.0475 1.84838V1.26528H98.4278C98.6306 1.26528 98.8334 1.31598 98.8334 1.54415C98.8334 1.82302 98.6306 1.84838 98.3771 1.84838H98.0475Z" fill="#FEFEFE"/>
</svg>
