<svg width="152" height="39" viewBox="0 0 152 39" fill="none" xmlns="http://www.w3.org/2000/svg">
<g clip-path="url(#clip0_9_323)">
<path d="M147.945 29.8692C148.677 29.879 149.382 29.5955 149.903 29.0818C150.423 28.568 150.716 27.867 150.716 27.1355V3.76076C150.712 3.03066 150.417 2.33232 149.898 1.81959C149.378 1.30686 148.675 1.02182 147.945 1.02706H3.98633C3.25249 1.01809 2.54578 1.30437 2.02523 1.8217C1.50469 2.33904 1.21403 3.04396 1.21862 3.77784V27.1218C1.21862 27.8527 1.5113 28.5532 2.03134 29.0669C2.55138 29.5805 3.25546 29.8644 3.98633 29.8553L147.945 29.8692Z" fill="white" fill-opacity="0.08" stroke="white" stroke-width="0.69"/>
<path d="M12.6173 7.98392C16.9772 7.98392 18.156 10.8097 18.1799 12.5386H15.3166C15.238 11.9031 15.0091 10.4031 12.3952 10.4031C11.2676 10.4031 9.90774 10.8097 9.90774 12.1115C9.90774 13.2049 10.8303 13.4577 11.4214 13.5876L14.8793 14.4247C16.8303 14.9065 18.5968 15.6924 18.5968 18.214C18.5968 22.4646 14.2403 22.8438 12.9829 22.8438C7.77904 22.8438 6.88382 19.8678 6.88382 18.1115H9.7779V18.1388C9.80523 18.9281 10.1879 20.4281 12.8052 20.4281C14.213 20.4281 15.7779 20.0864 15.7779 18.5967C15.7779 17.4999 14.7016 17.1958 13.1879 16.8404L11.6503 16.4987C9.34396 15.9486 7.15033 15.4395 7.15033 12.337C7.15033 10.7584 7.98405 7.98392 12.6173 7.98392ZM112.178 7.96C116.534 7.96 118.277 10.7823 118.431 12.7163H115.465C115.465 12.1559 114.464 10.4031 112.362 10.4031C110.261 10.4031 108.289 11.8518 108.289 15.4908C108.289 19.3586 110.418 20.3529 112.444 20.3529C113.11 20.3529 115.29 20.0967 115.905 17.247H112.598V14.8791H118.468V22.4885H116.49L116.182 20.7083C115.441 21.5728 114.337 22.8438 111.74 22.8438C108.306 22.8438 105.204 20.4042 105.204 15.4395C105.204 11.5716 107.356 7.92242 112.178 7.96ZM54.6446 8.36661L60.3098 18.214H60.361L60.3542 8.36661H63.1253V22.5261H60.1492L54.3405 12.4463H54.2893V22.5261H51.5216V8.36661H54.6446ZM99.4055 8.36661C103.198 8.36661 103.892 11.1411 103.892 12.3609C103.892 13.9122 103.096 15.2618 101.688 15.7197C102.867 16.2288 103.482 16.6627 103.482 19.3074C103.482 21.3575 103.482 21.8769 104.124 22.1331V22.5261H100.841C100.636 21.8632 100.533 21.1252 100.533 19.6764C100.533 17.739 100.407 17.0044 98.2027 17.0044H95.1276V22.5261H92.2061L92.1925 8.36661H99.4055ZM140.309 8.36661C144.101 8.36661 144.795 11.1411 144.795 12.3609C144.795 13.9122 143.999 15.2618 142.588 15.7197C143.767 16.2288 144.385 16.6627 144.385 19.3074L144.385 19.7707C144.389 21.4389 144.436 21.8974 145.024 22.1331V22.5261H141.744C141.539 21.8632 141.436 21.1252 141.436 19.6764C141.436 17.739 141.306 17.0044 139.103 17.0044H136.027V22.5261H133.106V8.36661H140.309ZM72.5831 8.36661C76.0683 8.36661 76.967 10.5295 76.967 11.9782C76.967 14.0283 75.8121 14.575 75.2244 14.8791C76.967 15.542 77.4282 16.9293 77.4282 18.3165C77.4169 19.4149 76.9752 20.465 76.1982 21.2413C75.3781 22.0306 74.6059 22.5158 71.6845 22.5158H65.6606V8.36661H72.5831ZM31.3383 8.37686V10.8712H27.0296V22.4885H24.0569V10.8712H19.7517V8.37686H31.3383ZM43.6424 8.33928V10.8609H36.0809V13.837H43.0273V16.3313H36.0809V19.9942H43.9738V22.4885H33.156V8.33928H43.6424ZM49.205 8.33928V22.4885H46.2323V8.33928H49.205ZM90.1424 8.33928V10.8609H82.5809V13.837H89.5273V16.3313H82.5809V19.9942H90.4738V22.4885H79.656V8.33928H90.1424ZM131.028 8.33928V10.8609H123.467V13.837H130.413V16.3313H123.467V19.9942H131.36V22.4885H120.542V8.33928H131.028ZM72.2995 16.2869H68.5068V20.0454H72.1731C73.6082 20.0454 74.4522 19.4099 74.4522 17.9953C74.4522 16.7482 73.3758 16.2869 72.2995 16.2869ZM98.8314 10.7823H95.1139V14.575H98.6025C100.14 14.575 100.909 14.042 100.909 12.6411C100.909 11.9031 100.567 10.7823 98.8314 10.7823ZM139.718 10.7823H136V14.575H139.489C141.026 14.575 141.795 14.042 141.795 12.6411C141.795 11.9031 141.453 10.7823 139.718 10.7823ZM71.9408 10.7892H68.5239L68.5307 13.8951H72.0194C73.1982 13.8951 74.1207 13.4372 74.1207 12.3165C74.1207 11.1958 73.3007 10.7892 71.9408 10.7892Z" fill="white" fill-opacity="0.08" stroke="white"/>
<path d="M105.139 32.0591V35.6468C105.139 36.3575 105.498 37.3005 106.625 37.3005C107.753 37.3005 108.112 36.3575 108.112 35.6468V32.0591H108.904V35.7459C108.937 36.5818 108.509 37.3684 107.79 37.7959C107.071 38.2235 106.176 38.2235 105.457 37.7959C104.786 37.3969 104.369 36.685 104.342 35.9123L104.343 32.0591H105.139ZM92.541 32.5921L91.8884 33.1764C91.6434 32.8431 91.2494 32.6525 90.836 32.6673C89.9647 32.6673 89.6845 33.2037 89.6845 33.5591C89.6845 35.0352 92.582 34.1434 92.582 36.255C92.582 37.3757 91.656 38.0625 90.5319 38.0625C89.8141 38.109 89.1181 37.8062 88.6629 37.2493L89.295 36.665C89.5794 37.0761 90.0527 37.3153 90.5524 37.3005C91.0649 37.3005 91.7312 36.9589 91.7312 36.3336C91.7312 34.9668 88.8337 35.8245 88.8337 33.5591C88.8337 32.8757 89.4248 31.9292 90.8326 31.9292C91.4746 31.8692 92.1075 32.1148 92.541 32.5921ZM21.1253 32.5921L20.4761 33.1764C20.2311 32.8431 19.8371 32.6525 19.4237 32.6673C18.5524 32.6673 18.2722 33.2037 18.2722 33.5591C18.2722 35.0352 21.1663 34.1434 21.1663 36.255C21.1663 37.3757 20.2437 38.0625 19.1162 38.0625C18.3984 38.109 17.7023 37.8062 17.2471 37.2493L17.8793 36.665C18.1637 37.0761 18.637 37.3153 19.1367 37.3005C19.6492 37.3005 20.3155 36.9589 20.3155 36.3336C20.3155 34.9668 17.418 35.8245 17.418 33.5591C17.418 32.8757 18.0091 31.9292 19.4169 31.9292C20.0593 31.8659 20.6936 32.112 21.1253 32.5921ZM46.8341 32.1614C47.976 31.6888 49.2901 31.9508 50.1635 32.8251C51.0368 33.6995 51.2973 35.0139 50.8234 36.1553C50.3496 37.2966 49.2347 38.04 47.9989 38.0386C47.1813 38.0645 46.3895 37.7509 45.8115 37.1722C45.2335 36.5935 44.9207 35.8014 44.9476 34.9839C44.9476 33.7481 45.6922 32.634 46.8341 32.1614ZM135.587 37.012C135.742 37.1659 135.79 37.3986 135.707 37.6012C135.624 37.8038 135.426 37.9361 135.207 37.9361C134.912 37.9361 134.671 37.6985 134.667 37.403C134.665 37.1841 134.794 36.9851 134.996 36.8994C135.197 36.8137 135.431 36.8582 135.587 37.012ZM36.1936 32.0591V32.7971H34.2973V37.9019H33.5148V32.7971H31.6184V32.0591H36.1936ZM134.599 32.0591V32.7971H132.703V37.9019H131.9V32.7971H130.003V32.0591H134.599ZM29.4795 32.0932L31.9909 37.9019H31.0683L30.467 36.4532H27.672L27.0809 37.9019H26.1583L28.762 32.0932H29.4795ZM41.131 32.0591V32.7971H38.131V34.5261H40.926V35.2641H38.131V37.1468H41.2847V37.9019H37.3348V32.0591H41.131ZM26.5171 32.0591V32.7971H24.6207V37.9019H23.828V32.7971H21.9282V32.0591H26.5171ZM97.9601 32.0591V32.7971H96.0638V37.9019H95.2676V32.7971H93.3713V32.0591H97.9601ZM66.0296 32.0591V34.485H69.0809V32.0591H69.877V37.8677H69.0809V35.1958H66.0296V37.9019H65.2369V32.0591H66.0296ZM75.4533 32.0591V32.7971H72.4533V34.5261H75.2483V35.2641H72.4533V37.1468H75.6071V37.9019H71.6606V32.0591H75.4533ZM122.21 32.0591V32.7971H119.223V34.5261H122.018V35.2641H119.223V37.1468H122.377V37.9019H118.417V32.0591H122.21ZM64.0717 32.0591V32.7971H62.1617V37.9019H61.3656L61.3793 32.7971H59.4829V32.0591H64.0717ZM56.2027 32.0591V32.7971H53.3052V34.6286H56.0114V35.3666H53.3189V37.9019H52.5262L52.5125 32.0591H56.2027ZM111.727 32.0591L113.596 36.4839H113.623L115.465 32.0591H116.644V37.8677H115.851V33.1183H115.823L113.849 37.9019H113.312L111.337 33.1183H111.313V37.9019H110.517V32.0932L110.548 32.0591H111.727ZM101.131 32.0181C102.645 32.0181 103.027 32.9099 103.027 33.6479C103.03 34.4613 102.403 35.1383 101.592 35.1992L103.26 37.8712H102.259L100.772 35.3017H99.8838V37.8712H99.0877L99.0809 32.0181H101.131ZM83.2711 32.0591L86.5034 36.8427H86.5273V32.0591H87.3235V37.8677H86.3223L83.0421 33.0841H83.0045V37.8677H82.2118L82.2221 32.0591H83.2711ZM80.4248 32.0591V37.8677H79.6321V32.0591H80.4248ZM124.823 32.0591L128.056 36.8427H128.08V32.0591H128.876V37.8677H127.875L124.595 33.0841H124.567V37.8677H123.774V32.0591H124.823ZM47.9989 32.6673C46.6663 32.6673 45.795 33.7128 45.795 34.9839C45.795 36.255 46.6663 37.3005 47.9989 37.3005C49.3314 37.3005 50.2027 36.255 50.2027 34.9839C50.2027 33.7128 49.3314 32.6673 47.9989 32.6673ZM29.0831 33.0739H29.0558L27.9522 35.7732H30.1834L29.0831 33.0739ZM100.933 32.7459H99.8838V34.6286H100.933C101.548 34.6286 102.19 34.4748 102.19 33.6855C102.19 32.8962 101.575 32.7459 100.933 32.7459Z" fill="white" fill-opacity="0.08" stroke="white" stroke-width="0.5"/>
</g>
<defs>
<clipPath id="clip0_9_323">
<rect width="152" height="39" fill="white"/>
</clipPath>
</defs>
</svg>
