<svg width="60" height="39" viewBox="0 0 60 39" fill="none" xmlns="http://www.w3.org/2000/svg">
<g clip-path="url(#clip0_9_308)">
<path fill-rule="evenodd" clip-rule="evenodd" d="M56.2693 0.000244141C57.0984 0.000244141 57.1682 0.839294 57.1682 0.839294V18.8139C57.136 19.7078 58.0514 19.74 58.1348 19.7233C59.062 19.6751 58.9988 18.8489 58.9988 18.8489V17.6248L60 17.2753V18.5689C60 21.8 56.4286 21.9849 56.0885 21.9952L56.0626 21.9957C54.6596 22.0131 54.232 20.7308 54.232 20.3174V5.63037C54.232 5.63037 54.2633 4.86108 53.2991 4.86108C52.3198 4.86108 52.4011 5.70044 52.4011 5.70044V12.7993L49.4998 13.7781C49.6036 12.1348 48.5322 12.2747 48.5322 12.2747C47.9192 12.275 47.4958 13.1143 47.4958 13.1143C46.6002 14.782 44.0417 15.5616 44.0417 15.5616L42.0037 16.2258C41.3823 16.4009 40.7253 16.4711 40.7253 16.4711C38.8319 16.5646 37.9965 14.5971 37.9965 13.9531V11.0155C37.9965 9.61681 36.7873 9.96625 36.7873 9.96625C36.7873 9.96625 36.35 9.99674 35.5095 10.7358C35.1652 11.0704 34.8875 10.9805 34.8875 10.9805C34.5556 10.9101 34.0762 10.2636 33.9895 10.1758C33.4183 9.41778 33.0222 9.34452 32.9369 9.33777L32.9197 9.33716C32.3666 9.30182 31.9868 9.86145 31.9868 9.86145C31.5041 10.4677 31.6576 11.0411 31.9522 11.2952C31.9832 11.3168 35.3627 13.8385 35.4066 13.8832C36.1779 14.5632 36.3217 15.5107 36.3043 16.0512C36.341 17.8813 34.7909 18.5321 34.1974 18.7786C34.0687 18.843 32.9069 19.2159 31.7089 19.5939L31.2301 19.7448C30.0401 20.1188 28.9467 20.4575 28.9467 20.4575C29.2576 18.9885 28.164 18.9187 28.0833 18.9187C27.6407 18.8818 27.2883 19.4086 27.2883 19.4086C26.1053 21.2426 24.1429 22.039 24.0758 22.0664C23.6533 22.3068 18.5151 23.8849 18.5151 23.8849C18.6666 22.4997 17.8292 22.3875 17.6261 22.3805L17.5825 22.3806C17.132 22.3455 16.9737 22.5792 16.9258 22.6605C16.878 22.7428 15.822 24.5125 15.7862 24.5841C15.1837 25.6193 14.5081 25.3181 14.5081 25.3181C14.5081 25.3181 13.9598 25.1892 13.3333 24.3389C12.707 23.4889 12.0073 23.9486 11.9174 24.0245C10.462 25.2062 10.0518 28.063 10.0518 28.6398V37.1379L6.70184 38.2216V28.6398C6.66693 27.1015 5.55797 27.4607 5.42285 27.5211C5.28833 27.5814 3.2471 28.7101 3.2471 28.7101C2.41802 29.1647 1.90012 29.1647 1.90012 29.1647C0.138438 29.1997 0.0346069 27.486 0.0346069 27.486L0 10.4211C0 7.79802 2.36837 6.86973 2.55615 6.78442C2.65004 6.74177 3.83 6.36953 5.12192 5.96674L5.60974 5.81482C6.75134 5.45977 7.88543 5.10993 8.35941 4.96558C9.44277 4.63563 10.8466 5.94353 10.8466 7.37848V11.6102L7.18515 12.764V9.09216C7.18515 7.93811 6.14361 7.84129 5.87247 7.93817C5.60072 8.03536 4.31842 8.4975 4.31842 8.4975C3.06593 9.06569 2.97083 10.7011 2.97083 10.7011V25.1782C2.97083 26.0797 3.62591 26.1522 3.77148 26.1572L3.79993 26.1574C7.18606 26.1574 7.02626 20.9772 7.11594 19.8281C7.12226 19.6313 7.15024 16.0512 7.15024 16.0512L10.0591 15.0053L10.0398 21.515C10.044 22.432 10.4521 22.6462 10.6447 22.6413C12.1608 22.7196 12.5737 17.3759 12.5737 16.9253V14.2327L15.5439 13.2886V19.9326C15.6508 20.9581 16.828 20.9581 17.1678 20.4922C18.3318 18.8785 18.5151 14.6873 18.5151 14.6873L18.4805 1.78369L21.5202 0.594299L21.5201 0.636414C21.5201 0.650313 21.52 0.667617 21.52 0.688171L21.5193 0.958984C21.5192 0.998322 21.5191 1.04067 21.519 1.08588L21.5182 1.39093C21.5146 2.79975 21.5069 5.88877 21.4996 9.12183L21.4979 9.89972C21.493 12.1072 21.4885 14.3244 21.4859 16.0684L21.4851 16.6636C21.485 16.7592 21.4849 16.853 21.4847 16.9449L21.4842 17.4722C21.4841 17.5559 21.484 17.6376 21.4839 17.717L21.4839 19.0233C21.4839 19.0667 21.484 19.1071 21.4841 19.1446L21.4847 19.3325C21.485 19.3825 21.4853 19.4197 21.4856 19.4433C21.4856 19.5932 21.6972 20.8283 22.9707 20.842C24.3772 20.817 24.4528 19.5655 24.4559 19.3654V13.4287C24.4559 12.2046 23.5239 12.3444 23.5239 12.3444V10.631C24.2145 10.316 25.0084 10.2459 25.0084 10.2459C26.3803 10.1862 26.7357 11.8448 26.7357 12.1348V16.0512C26.7357 17.24 27.724 17.0648 27.8414 17.0304C27.9588 16.9957 29.638 16.401 29.638 16.401C30.5354 16.0863 30.8116 17.1352 30.8116 17.1352C31.1216 17.9395 31.6525 17.9587 31.8141 17.9395C32.644 17.92 33.0536 17.0843 33.0918 16.9606C33.3804 16.2358 32.7816 15.8069 32.7816 15.8069L29.2922 13.1487C28.4276 12.4858 28.4288 11.0856 28.4288 11.0856C28.4288 9.05715 30.3969 8.42804 30.3969 8.42804L35.4066 6.74908L35.407 6.89502C35.407 6.9243 35.4071 6.95692 35.4071 6.99176L35.4071 7.63477L35.4066 7.69348C35.4403 8.38567 36.1246 8.42804 36.2703 8.42804C36.5083 8.42804 36.8608 8.26263 37.0299 8.07831C38.4467 5.49023 41.4858 4.79102 41.4858 4.79102L41.4512 6.25977C40.4491 6.32984 40.5189 7.34375 40.5189 7.34375V13.0086C40.5189 14.3726 41.9086 14.4289 42.0386 14.4076C43.4636 14.3506 43.5584 13.0686 43.5584 12.7993V4.0921L44.7669 3.84686C46.1055 3.67656 46.5217 5.29554 46.4943 5.84027C46.4941 5.86715 46.494 5.91207 46.4938 5.97229L46.4939 9.24493C46.494 9.29788 46.494 9.34831 46.494 9.39581L46.4943 9.86145C46.534 10.9311 47.5906 10.7821 47.6679 10.7709C48.7931 10.7566 49.4305 6.48768 49.4305 5.63037V2.16852L52.4011 1.18933V2.09814C52.3887 2.94479 53.3337 2.83264 53.3337 2.83264C54.1282 2.83264 54.3355 2.02837 54.9226 0.979736C55.4212 0.0878763 56.0451 0.00445672 56.2211 -0.000488281L56.2693 0.000244141ZM13.7567 5.85327C14.7068 5.85327 15.4767 6.62333 15.4767 7.57318C15.4767 8.52224 14.7068 9.29254 13.7567 9.29254C12.8072 9.29254 12.0375 8.52224 12.0375 7.57318C12.0375 6.62333 12.8072 5.85327 13.7567 5.85327Z" fill="white"/>
</g>
<defs>
<clipPath id="clip0_9_308">
<rect width="60" height="39" fill="white"/>
</clipPath>
</defs>
</svg>
