<svg width="60" height="60" viewBox="0 0 60 60" fill="none" xmlns="http://www.w3.org/2000/svg">
<path d="M0 13.1599L5.055 24.6349L10.11 13.1599H0ZM5.055 32.1624C6.8 32.1624 8.22 30.7499 8.22 29.0124C8.22 27.2649 6.8 25.8574 5.055 25.8574C4.63337 25.8455 4.21364 25.9183 3.82064 26.0715C3.42763 26.2246 3.06932 26.455 2.7669 26.7491C2.46447 27.0431 2.22408 27.3948 2.05993 27.7833C1.89577 28.1719 1.8112 28.5894 1.8112 29.0112C1.8112 29.433 1.89577 29.8505 2.05993 30.239C2.22408 30.6276 2.46447 30.9792 2.7669 31.2733C3.06932 31.5673 3.42763 31.7977 3.82064 31.9508C4.21364 32.104 4.63337 32.1768 5.055 32.1649V32.1624ZM2.32 40.5674C2.32 42.9599 4.475 46.8399 10.6075 46.8399C16.74 46.8399 18.895 43.8699 18.895 40.5649V13.1649H13.4225L13.425 41.5199C13.425 43.0699 12.1675 44.3699 10.61 44.3699C9.86362 44.3706 9.14747 44.0751 8.61876 43.5482C8.09005 43.0214 7.79199 42.3063 7.79 41.5599L7.7875 35.7824H2.32V40.5674ZM23.0425 46.3449V13.1599H33.9775C36.09 13.1599 39.445 14.8924 39.445 18.5674V24.2199C39.445 25.8749 37.995 28.8024 35.845 28.8024C37.995 28.8024 39.445 30.6574 39.445 32.0649V42.0124C39.445 43.7024 38.08 46.3449 33.9775 46.3449H23.0425ZM31.4925 27.4474C33.4825 27.4474 33.98 27.1124 33.98 21.9124C33.98 16.7124 33.48 16.2974 31.4925 16.2974H28.505V27.4399L31.4925 27.4474ZM33.98 36.9749C33.98 31.7724 33.98 30.2499 31.82 30.2499H28.505V43.6199L31.82 43.6274C33.9775 43.6274 33.9775 42.1749 33.9775 36.9774L33.98 36.9749ZM43.4275 46.3449H60V35.7799H54.5275L54.5325 41.5549C54.5325 42.3025 54.2355 43.0195 53.7069 43.5481C53.1783 44.0767 52.4613 44.3737 51.7137 44.3737C50.9662 44.3737 50.2492 44.0767 49.7206 43.5481C49.192 43.0195 48.895 42.3025 48.895 41.5549V13.1624H43.425L43.4275 46.3449Z" fill="#EBEBEB"/>
</svg>
