<svg width="8" height="8" viewBox="0 0 8 8" fill="none" xmlns="http://www.w3.org/2000/svg">
<path d="M3.72601 6.52299C3.75659 6.5674 3.79751 6.60372 3.84524 6.62881C3.89297 6.65389 3.94609 6.667 4.00001 6.667C4.05393 6.667 4.10705 6.65389 4.15478 6.62881C4.20251 6.60372 4.24343 6.5674 4.27401 6.52299L7.27401 2.18966C7.30873 2.13968 7.3291 2.08113 7.33289 2.02039C7.33668 1.95965 7.32375 1.89903 7.29551 1.84512C7.26726 1.79121 7.22478 1.74607 7.17269 1.71461C7.12059 1.68315 7.06087 1.66656 7.00001 1.66666H1.00001C0.939291 1.66691 0.879789 1.68371 0.827903 1.71524C0.776017 1.74678 0.73371 1.79187 0.705532 1.84565C0.677354 1.89944 0.664371 1.95989 0.667979 2.0205C0.671587 2.08111 0.69165 2.13959 0.726009 2.18966L3.72601 6.52299Z" fill="#FAF9F8"/>
</svg>
