<svg width="40" height="31" viewBox="0 0 40 31" fill="none" xmlns="http://www.w3.org/2000/svg">
<path d="M36.0093 11.3538C36.0093 10.807 35.6282 10.5168 34.9295 10.5168H34.5907V12.2393H34.9158C35.6282 12.2393 36.0093 11.9354 36.0093 11.3538ZM36.5349 0H3.3217C2.44083 0.000330098 1.59613 0.3504 0.973267 0.973267C0.350399 1.59613 0.000330098 2.44083 0 3.3217V27.6783C0.000330098 28.5592 0.350399 29.4039 0.973267 30.0267C1.59613 30.6496 2.44083 30.9997 3.3217 31H36.5349C37.4158 30.9997 38.2605 30.6496 38.8833 30.0267C39.5062 29.4039 39.8563 28.5592 39.8566 27.6783V3.3217C39.8563 2.44083 39.5062 1.59613 38.8833 0.973267C38.2605 0.3504 37.4158 0.000330098 36.5349 0ZM33.4835 9.61013C35.0478 9.61013 37.144 9.32616 37.144 11.299C37.144 12.1708 36.6869 12.7313 35.8499 12.9044L37.6347 15.2845H36.2783L34.7427 13.0153H34.5907V15.2845H33.4835V9.61013ZM29.6163 9.6176H32.7511V10.5866H30.7235V11.8458H32.6814V12.801H30.7235V14.3367H32.7511V15.292H29.6163V9.6176ZM24.8623 9.6176L26.378 13.4375L27.9137 9.6176H29.1243L26.6682 15.444H26.0729L23.6517 9.6176H24.8623ZM20.9938 9.4096C21.3992 9.40944 21.8006 9.48916 22.1751 9.6442C22.5496 9.79924 22.8899 10.0266 23.1765 10.3132C23.4631 10.5998 23.6905 10.9401 23.8455 11.3146C24.0006 11.6892 24.0803 12.0906 24.0801 12.4959C24.0803 12.9012 24.0006 13.3027 23.8455 13.6772C23.6905 14.0517 23.4631 14.392 23.1765 14.6786C22.8899 14.9652 22.5496 15.1926 22.1751 15.3476C21.8006 15.5026 21.3992 15.5824 20.9938 15.5822C20.5885 15.5824 20.1871 15.5026 19.8125 15.3476C19.438 15.1926 19.0977 14.9652 18.8111 14.6786C18.5245 14.392 18.2972 14.0517 18.1421 13.6772C17.9871 13.3027 17.9074 12.9012 17.9075 12.4959C17.9074 12.0906 17.9871 11.6892 18.1421 11.3146C18.2972 10.9401 18.5245 10.5998 18.8111 10.3132C19.0977 10.0266 19.438 9.79924 19.8125 9.6442C20.1871 9.48916 20.5885 9.40944 20.9938 9.4096ZM17.5837 9.83182V11.147C16.1925 9.75585 14.3454 10.822 14.3454 12.4623C14.3454 14.1922 16.2485 15.1264 17.5837 13.7912V15.1064C15.5286 16.0966 13.2033 14.7116 13.2033 12.4635C13.2033 10.3051 15.4938 8.79683 17.5837 9.83431V9.83182ZM10.8581 14.4189C11.6465 14.4189 12.4087 13.3603 10.6302 12.7313C9.59269 12.3502 9.23275 11.9429 9.23275 11.1607C9.23275 9.55532 11.3501 8.98738 12.6715 10.1718L12.0899 10.9191C11.37 10.1158 10.3674 10.4907 10.3674 11.0922C10.3674 11.3961 10.5542 11.5693 11.218 11.8047C12.4772 12.2618 12.8509 12.669 12.8509 13.5757C12.8509 15.6171 10.1656 16.1638 8.93507 14.3579L9.64749 13.6729C9.90406 14.1636 10.3325 14.4189 10.8581 14.4189ZM3.83483 15.2908H2.21571V9.61635H3.83483C5.64078 9.61635 6.88626 10.7921 6.88626 12.4598C6.88626 13.7401 5.97332 15.2895 3.83483 15.2895V15.2908ZM8.50538 15.2908H7.39815V9.61635H8.50538V15.2908ZM37.6421 27.7456C37.6402 28.0201 37.5303 28.2829 37.3361 28.477C37.142 28.6712 36.8792 28.7811 36.6047 28.783H8.85785C21.9765 26.3195 35.338 19.1517 37.6421 17.712V27.7456ZM5.12889 11.0424C4.76894 10.7037 4.32555 10.5853 3.61314 10.5853H3.32294V14.3355H3.61314C4.32555 14.3355 4.78887 14.1972 5.12889 13.8933C5.5237 13.5334 5.74415 13.0078 5.74415 12.461C5.74415 11.9143 5.52246 11.3887 5.12889 11.0424Z" fill="#BC9355"/>
</svg>
