<svg width="40" height="40" viewBox="0 0 40 40" fill="none" xmlns="http://www.w3.org/2000/svg">
<circle cx="20" cy="20" r="19" stroke="#BC9355" stroke-width="2"/>
<path d="M29 16.6963V24.4699C29 25.8139 27.825 26.9029 26.375 26.9029H12.625C11.9288 26.9029 11.2611 26.6466 10.7688 26.1903C10.2766 25.734 10 25.1152 10 24.4699V16.6963L19.199 21.3862C19.3865 21.4817 19.614 21.4817 19.801 21.3862L29 16.6963ZM26.375 13C27.0602 13.0001 27.7183 13.2485 28.2086 13.6922C28.6989 14.1359 28.9826 14.7397 28.999 15.3746L19.5 20.2175L10.001 15.3742L10.002 15.3324C10.03 14.7051 10.3186 14.112 10.8075 13.6773C11.2963 13.2426 11.9475 12.9999 12.625 13H26.375Z" fill="#BC9355"/>
</svg>
