<svg width="45" height="51" viewBox="0 0 45 51" fill="none" xmlns="http://www.w3.org/2000/svg">
<g clip-path="url(#clip0_21_687)">
<path d="M14.3438 14.3438V19.125H30.2812V14.3438C30.2812 9.94102 26.7152 6.375 22.3125 6.375C17.9098 6.375 14.3438 9.94102 14.3438 14.3438ZM7.96875 19.125V14.3438C7.96875 6.4248 14.3936 0 22.3125 0C30.2314 0 36.6562 6.4248 36.6562 14.3438V19.125H38.25C41.7662 19.125 44.625 21.9838 44.625 25.5V44.625C44.625 48.1412 41.7662 51 38.25 51H6.375C2.85879 51 0 48.1412 0 44.625V25.5C0 21.9838 2.85879 19.125 6.375 19.125H7.96875Z" fill="#EBEBEB"/>
</g>
<defs>
<clipPath id="clip0_21_687">
<rect width="44.625" height="51" fill="white"/>
</clipPath>
</defs>
</svg>
