<svg width="63" height="51" viewBox="0 0 63 51" fill="none" xmlns="http://www.w3.org/2000/svg">
<g clip-path="url(#clip0_21_685)">
<path d="M20.8636 41.7273C20.8636 40.4716 20.4048 39.3849 19.4872 38.4673C18.5696 37.5497 17.483 37.0909 16.2273 37.0909C14.9716 37.0909 13.8849 37.5497 12.9673 38.4673C12.0497 39.3849 11.5909 40.4716 11.5909 41.7273C11.5909 42.983 12.0497 44.0696 12.9673 44.9872C13.8849 45.9048 14.9716 46.3636 16.2273 46.3636C17.483 46.3636 18.5696 45.9048 19.4872 44.9872C20.4048 44.0696 20.8636 42.983 20.8636 41.7273ZM6.95455 23.1818H20.8636V13.9091H15.1406C14.8267 13.9091 14.5611 14.0178 14.3437 14.2351L7.28054 21.2983C7.06321 21.5156 6.95455 21.7812 6.95455 22.0952V23.1818ZM53.3182 41.7273C53.3182 40.4716 52.8594 39.3849 51.9418 38.4673C51.0241 37.5497 49.9375 37.0909 48.6818 37.0909C47.4261 37.0909 46.3395 37.5497 45.4219 38.4673C44.5043 39.3849 44.0455 40.4716 44.0455 41.7273C44.0455 42.983 44.5043 44.0696 45.4219 44.9872C46.3395 45.9048 47.4261 46.3636 48.6818 46.3636C49.9375 46.3636 51.0241 45.9048 51.9418 44.9872C52.8594 44.0696 53.3182 42.983 53.3182 41.7273ZM62.5909 2.31818V39.4091C62.5909 39.7713 62.5426 40.0913 62.446 40.369C62.3494 40.6467 62.1864 40.87 61.957 41.0391C61.7276 41.2081 61.5284 41.3469 61.3594 41.4556C61.1903 41.5643 60.9066 41.6367 60.5082 41.6729C60.1097 41.7092 59.8381 41.7333 59.6932 41.7454C59.5483 41.7575 59.2404 41.7575 58.7695 41.7454C58.2986 41.7333 58.027 41.7273 57.9545 41.7273C57.9545 44.2869 57.049 46.4723 55.2379 48.2834C53.4268 50.0945 51.2415 51 48.6818 51C46.1222 51 43.9368 50.0945 42.1257 48.2834C40.3146 46.4723 39.4091 44.2869 39.4091 41.7273H25.5C25.5 44.2869 24.5945 46.4723 22.7834 48.2834C20.9723 50.0945 18.7869 51 16.2273 51C13.6676 51 11.4822 50.0945 9.67116 48.2834C7.86009 46.4723 6.95455 44.2869 6.95455 41.7273H4.63636C4.56392 41.7273 4.29226 41.7333 3.82138 41.7454C3.3505 41.7575 3.04261 41.7575 2.89773 41.7454C2.75284 41.7333 2.48118 41.7092 2.08274 41.6729C1.6843 41.6367 1.40057 41.5643 1.23153 41.4556C1.0625 41.3469 0.863281 41.2081 0.633878 41.0391C0.404474 40.87 0.241477 40.6467 0.144886 40.369C0.0482955 40.0913 0 39.7713 0 39.4091C0 38.7812 0.229403 38.2379 0.68821 37.7791C1.14702 37.3203 1.69034 37.0909 2.31818 37.0909V25.5C2.31818 25.3068 2.31214 24.8842 2.30007 24.2322C2.288 23.5803 2.288 23.1214 2.30007 22.8558C2.31214 22.5902 2.34233 22.1736 2.39062 21.6062C2.43892 21.0387 2.5174 20.592 2.62607 20.266C2.73473 19.94 2.90376 19.5717 3.13317 19.1612C3.36257 18.7507 3.63423 18.3885 3.94815 18.0746L11.12 10.9027C11.5788 10.4439 12.1886 10.0575 12.9492 9.74361C13.7099 9.42969 14.4162 9.27273 15.0682 9.27273H20.8636V2.31818C20.8636 1.69034 21.093 1.14702 21.5518 0.68821C22.0107 0.229403 22.554 0 23.1818 0H60.2727C60.9006 0 61.4439 0.229403 61.9027 0.68821C62.3615 1.14702 62.5909 1.69034 62.5909 2.31818Z" fill="#EBEBEB"/>
</g>
<defs>
<clipPath id="clip0_21_685">
<rect width="62.5909" height="51" fill="white"/>
</clipPath>
</defs>
</svg>
