<svg width="40" height="40" viewBox="0 0 40 40" fill="none" xmlns="http://www.w3.org/2000/svg">
<g clip-path="url(#clip0_9_339)">
<path d="M28.9761 23.9371L27.131 22.092C26.7971 21.7583 26.3788 21.5214 25.9208 21.4067C25.4629 21.292 24.9823 21.3037 24.5305 21.4407C24.0787 21.5777 23.6725 21.8347 23.3553 22.1844C23.0381 22.534 22.8217 22.9633 22.7293 23.4262C19.6867 22.8573 16.7274 19.9102 16.5432 17.276C17.0605 17.1809 17.5365 16.9305 17.9081 16.5583C18.3972 16.069 18.6721 15.4055 18.6721 14.7137C18.6721 14.0218 18.3972 13.3583 17.9081 12.8691L16.0635 11.024C15.5743 10.5348 14.9107 10.26 14.2189 10.26C13.5271 10.26 12.8636 10.5348 12.3743 11.024C6.84004 16.5583 23.4418 33.16 28.9761 27.6258C29.465 27.1365 29.7396 26.4731 29.7396 25.7814C29.7396 25.0898 29.465 24.4264 28.9761 23.9371Z" fill="#BC9355"/>
</g>
<circle cx="20" cy="20" r="19" stroke="#BC9355" stroke-width="2"/>
<defs>
<clipPath id="clip0_9_339">
<rect width="19" height="19" fill="white" transform="translate(11 10)"/>
</clipPath>
</defs>
</svg>
