<svg width="127" height="28" viewBox="0 0 127 28" fill="none" xmlns="http://www.w3.org/2000/svg">
<path d="M9.1875 16.6055C8.67969 17.3555 8.11719 17.9336 7.5 18.3398C6.88281 18.7539 6.20703 18.9609 5.47266 18.9609C4.73047 18.9609 4.07031 18.7812 3.49219 18.4219C2.91406 18.0703 2.42578 17.5703 2.02734 16.9219C1.63672 16.2656 1.33594 15.4805 1.125 14.5664C0.921875 13.6445 0.820312 12.6211 0.820312 11.4961C0.820312 10.6992 0.902344 9.88281 1.06641 9.04688C1.23047 8.21094 1.46875 7.40234 1.78125 6.62109C2.10156 5.83203 2.48828 5.08984 2.94141 4.39453C3.39453 3.69141 3.91016 3.08203 4.48828 2.56641C5.06641 2.04297 5.70312 1.62891 6.39844 1.32422C7.09375 1.01953 7.83984 0.867188 8.63672 0.867188C9.06641 0.867188 9.46875 0.9375 9.84375 1.07812C10.2188 1.21094 10.5391 1.40625 10.8047 1.66406C11.0781 1.92188 11.293 2.23438 11.4492 2.60156C11.6055 2.96875 11.6836 3.38281 11.6836 3.84375C11.6836 4.28125 11.6094 4.70312 11.4609 5.10938C11.3125 5.51562 11.1094 5.89844 10.8516 6.25781C10.6016 6.61719 10.3086 6.94531 9.97266 7.24219C9.63672 7.53906 9.28516 7.79688 8.91797 8.01562C8.55078 8.22656 8.17578 8.39062 7.79297 8.50781C7.41016 8.625 7.04297 8.68359 6.69141 8.68359C6.40234 8.68359 6.15234 8.59375 5.94141 8.41406C5.73828 8.22656 5.63672 7.93359 5.63672 7.53516C5.63672 7.44922 5.64062 7.35547 5.64844 7.25391C5.66406 7.15234 5.68359 7.05859 5.70703 6.97266C5.73047 6.88672 5.75781 6.81641 5.78906 6.76172C5.82031 6.69922 5.85938 6.66797 5.90625 6.66797C5.94531 6.66797 5.98047 6.68359 6.01172 6.71484C6.05078 6.73828 6.09766 6.76562 6.15234 6.79688C6.21484 6.82031 6.29688 6.84766 6.39844 6.87891C6.5 6.90234 6.64062 6.91406 6.82031 6.91406C7.125 6.91406 7.44922 6.83203 7.79297 6.66797C8.14453 6.50391 8.46875 6.28516 8.76562 6.01172C9.0625 5.73828 9.30859 5.42578 9.50391 5.07422C9.69922 4.71484 9.79688 4.34375 9.79688 3.96094C9.79688 3.82031 9.76953 3.67188 9.71484 3.51562C9.66797 3.35938 9.58594 3.21484 9.46875 3.08203C9.35938 2.94922 9.21094 2.83984 9.02344 2.75391C8.83594 2.66016 8.60547 2.61328 8.33203 2.61328C7.83203 2.61328 7.34766 2.73437 6.87891 2.97656C6.41016 3.21875 5.97266 3.55469 5.56641 3.98438C5.16016 4.40625 4.78516 4.90234 4.44141 5.47266C4.10547 6.04297 3.81641 6.65625 3.57422 7.3125C3.33203 7.96875 3.14453 8.65234 3.01172 9.36328C2.87891 10.0742 2.8125 10.7773 2.8125 11.4727C2.8125 12.3398 2.87891 13.1211 3.01172 13.8164C3.15234 14.5039 3.34375 15.0898 3.58594 15.5742C3.82812 16.0586 4.11328 16.4336 4.44141 16.6992C4.77734 16.957 5.13672 17.0859 5.51953 17.0859C5.92578 17.0859 6.30078 17.0039 6.64453 16.8398C6.98828 16.668 7.29688 16.4414 7.57031 16.1602C7.84375 15.8789 8.08203 15.5547 8.28516 15.1875C8.48828 14.8203 8.65625 14.4414 8.78906 14.0508C8.92969 13.6602 9.03516 13.2734 9.10547 12.8906C9.17578 12.5 9.21094 12.1406 9.21094 11.8125C9.21094 11.6875 9.20312 11.5469 9.1875 11.3906C9.17188 11.2266 9.16406 11.1016 9.16406 11.0156C9.16406 10.8984 9.18359 10.8086 9.22266 10.7461C9.26953 10.6836 9.32812 10.6367 9.39844 10.6055C9.46875 10.5742 9.55078 10.5547 9.64453 10.5469C9.73828 10.5391 9.83594 10.5352 9.9375 10.5352C10.0469 10.5352 10.1719 10.5586 10.3125 10.6055C10.4531 10.6523 10.5859 10.7188 10.7109 10.8047C10.8438 10.8828 10.9531 10.9766 11.0391 11.0859C11.1328 11.1953 11.1797 11.3164 11.1797 11.4492C11.1172 12.0977 11.0781 12.7148 11.0625 13.3008C11.0469 13.8789 11.0391 14.4688 11.0391 15.0703C11.0391 15.6328 11.043 16.2188 11.0508 16.8281C11.0586 17.4375 11.0625 18.1094 11.0625 18.8438C11.2891 18.8047 11.5078 18.7773 11.7188 18.7617C11.9375 18.7461 12.1445 18.7305 12.3398 18.7148C12.6211 18.6992 12.8008 18.7852 12.8789 18.9727C12.9648 19.168 12.9766 19.3867 12.9141 19.6289C12.8594 19.8711 12.75 20.0938 12.5859 20.2969C12.4219 20.5 12.2344 20.6055 12.0234 20.6133C11.8438 20.6133 11.6719 20.6172 11.5078 20.625C11.3516 20.6328 11.1875 20.6445 11.0156 20.6602C10.9922 21.1133 10.957 21.5703 10.9102 22.0312C10.8633 22.4922 10.7852 22.9375 10.6758 23.3672C10.5742 23.8047 10.4375 24.2109 10.2656 24.5859C10.1016 24.9688 9.89453 25.3008 9.64453 25.582C9.39453 25.8633 9.09375 26.0859 8.74219 26.25C8.39062 26.4141 7.98047 26.4961 7.51172 26.4961C7.10547 26.4961 6.73438 26.4219 6.39844 26.2734C6.07031 26.1328 5.78906 25.9336 5.55469 25.6758C5.32031 25.4258 5.14062 25.1289 5.01562 24.7852C4.89062 24.4414 4.82812 24.0664 4.82812 23.6602C4.82812 23.0508 4.95312 22.5078 5.20312 22.0312C5.45312 21.5625 5.78125 21.1484 6.1875 20.7891C6.60156 20.4297 7.07422 20.125 7.60547 19.875C8.13672 19.625 8.67969 19.4141 9.23438 19.2422V19.0078C9.23438 18.4922 9.22656 18.0352 9.21094 17.6367C9.19531 17.2383 9.1875 16.8945 9.1875 16.6055ZM7.55859 24.6445C7.82422 24.6445 8.05078 24.5469 8.23828 24.3516C8.43359 24.1562 8.59375 23.8906 8.71875 23.5547C8.84375 23.2188 8.94141 22.832 9.01172 22.3945C9.08203 21.9648 9.13281 21.5078 9.16406 21.0234C8.36719 21.2734 7.75391 21.6172 7.32422 22.0547C6.90234 22.4922 6.69141 23.0117 6.69141 23.6133C6.69141 23.9805 6.77344 24.2422 6.9375 24.3984C7.10938 24.5625 7.31641 24.6445 7.55859 24.6445ZM19.7695 18.668C19.4961 18.668 19.2461 18.625 19.0195 18.5391C18.8008 18.4531 18.6055 18.332 18.4336 18.1758C18.2695 18.0273 18.1328 17.8516 18.0234 17.6484C17.9141 17.4375 17.8398 17.2109 17.8008 16.9688C17.5117 17.4766 17.1719 17.8906 16.7812 18.2109C16.3906 18.5312 15.9297 18.6914 15.3984 18.6914C15 18.6914 14.6406 18.6094 14.3203 18.4453C14.0078 18.2812 13.7422 18.0508 13.5234 17.7539C13.3047 17.4492 13.1367 17.0859 13.0195 16.6641C12.9102 16.2344 12.8555 15.7578 12.8555 15.2344C12.8555 14.6016 12.8984 13.9648 12.9844 13.3242C13.0781 12.6836 13.1797 12.1055 13.2891 11.5898C13.4141 10.9883 13.5586 10.4062 13.7227 9.84375C13.7617 9.74219 13.7891 9.64062 13.8047 9.53906C13.8281 9.42969 13.875 9.33203 13.9453 9.24609C14.0156 9.16016 14.125 9.08984 14.2734 9.03516C14.4297 8.98047 14.668 8.95312 14.9883 8.95312C15.2852 8.95312 15.4766 9.00781 15.5625 9.11719C15.6484 9.21875 15.6797 9.33984 15.6562 9.48047C15.6406 9.62109 15.5938 9.76562 15.5156 9.91406C15.4453 10.0625 15.3984 10.1836 15.375 10.2773C15.2656 10.7227 15.168 11.1289 15.082 11.4961C14.9961 11.8633 14.9219 12.2344 14.8594 12.6094C14.8047 12.9766 14.7617 13.3633 14.7305 13.7695C14.6992 14.168 14.6836 14.6172 14.6836 15.1172C14.6836 15.7734 14.7773 16.2695 14.9648 16.6055C15.1602 16.9414 15.4336 17.1094 15.7852 17.1094C16.0273 17.1094 16.25 17.0195 16.4531 16.8398C16.6641 16.6602 16.8516 16.4219 17.0156 16.125C17.1875 15.8203 17.3359 15.4766 17.4609 15.0938C17.5859 14.7031 17.6836 14.2969 17.7539 13.875V10.0078C17.7539 9.83594 17.7383 9.69922 17.707 9.59766C17.6836 9.49609 17.6562 9.41797 17.625 9.36328C17.6016 9.30078 17.5742 9.25391 17.543 9.22266C17.5195 9.18359 17.5078 9.14062 17.5078 9.09375C17.5078 9.05469 17.5312 9.01953 17.5781 8.98828C17.625 8.95703 17.6875 8.92969 17.7656 8.90625C17.8438 8.88281 17.9258 8.86719 18.0117 8.85938C18.1055 8.84375 18.1953 8.83594 18.2812 8.83594C18.6797 8.83594 18.9922 8.94141 19.2188 9.15234C19.4531 9.35547 19.5703 9.60156 19.5703 9.89062V15.9844C19.5703 16.0391 19.5742 16.1289 19.582 16.2539C19.5898 16.3711 19.6133 16.4922 19.6523 16.6172C19.6914 16.7422 19.7539 16.8516 19.8398 16.9453C19.9258 17.0391 20.0469 17.0859 20.2031 17.0859C20.4453 17.0859 20.6523 17 20.8242 16.8281C21.0039 16.6562 21.1562 16.4414 21.2812 16.1836C21.4141 15.9258 21.5195 15.6484 21.5977 15.3516C21.6836 15.0469 21.7539 14.7617 21.8086 14.4961C21.8555 14.2461 21.9336 14.0664 22.043 13.957C22.1523 13.8398 22.2656 13.7812 22.3828 13.7812C22.4766 13.7812 22.5742 13.8125 22.6758 13.875C22.7773 13.9297 22.8672 14.0039 22.9453 14.0977C23.0312 14.1914 23.0977 14.2969 23.1445 14.4141C23.1992 14.5312 23.2266 14.6484 23.2266 14.7656C23.2266 14.7812 23.2266 14.8008 23.2266 14.8242C23.2266 14.8477 23.2188 14.8828 23.2031 14.9297C23.0938 15.3281 22.9492 15.7461 22.7695 16.1836C22.5977 16.6211 22.375 17.0234 22.1016 17.3906C21.8281 17.7578 21.5 18.0625 21.1172 18.3047C20.7344 18.5469 20.2852 18.668 19.7695 18.668ZM23.1797 6.45703C22.9844 6.45703 22.7969 6.41797 22.6172 6.33984C22.4453 6.26172 22.293 6.15625 22.1602 6.02344C22.0352 5.89062 21.9336 5.73828 21.8555 5.56641C21.7773 5.38672 21.7383 5.19531 21.7383 4.99219C21.7383 4.78125 21.7773 4.58594 21.8555 4.40625C21.9336 4.22656 22.0352 4.07422 22.1602 3.94922C22.293 3.81641 22.4453 3.71484 22.6172 3.64453C22.7969 3.56641 22.9844 3.52734 23.1797 3.52734C23.3906 3.52734 23.5859 3.56641 23.7656 3.64453C23.9453 3.71484 24.0977 3.81641 24.2227 3.94922C24.3555 4.07422 24.457 4.22656 24.5273 4.40625C24.6055 4.58594 24.6445 4.78125 24.6445 4.99219C24.6445 5.19531 24.6055 5.38672 24.5273 5.56641C24.457 5.73828 24.3555 5.89062 24.2227 6.02344C24.0977 6.15625 23.9453 6.26172 23.7656 6.33984C23.5859 6.41797 23.3906 6.45703 23.1797 6.45703ZM23.7305 15.9844C23.7305 16.0391 23.7344 16.1289 23.7422 16.2539C23.75 16.3711 23.7734 16.4922 23.8125 16.6172C23.8516 16.7422 23.9141 16.8516 24 16.9453C24.0859 17.0391 24.207 17.0859 24.3633 17.0859C24.5977 17.0859 24.8008 17 24.9727 16.8281C25.1523 16.6562 25.3047 16.4414 25.4297 16.1836C25.5625 15.9258 25.6719 15.6484 25.7578 15.3516C25.8438 15.0469 25.9141 14.7617 25.9688 14.4961C26.0156 14.2539 26.0859 14.0781 26.1797 13.9688C26.2812 13.8594 26.3867 13.8008 26.4961 13.793C26.6133 13.7773 26.7266 13.8047 26.8359 13.875C26.9531 13.9453 27.0547 14.0391 27.1406 14.1562C27.2344 14.2656 27.3008 14.3906 27.3398 14.5312C27.3867 14.6719 27.3945 14.8047 27.3633 14.9297C27.2539 15.3281 27.1094 15.7461 26.9297 16.1836C26.7578 16.6211 26.5352 17.0234 26.2617 17.3906C25.9883 17.7578 25.6602 18.0625 25.2773 18.3047C24.8945 18.5469 24.4453 18.668 23.9297 18.668C23.6094 18.668 23.3242 18.6055 23.0742 18.4805C22.8242 18.3633 22.6133 18.2031 22.4414 18C22.2695 17.7969 22.1367 17.5586 22.043 17.2852C21.957 17.0117 21.9141 16.7227 21.9141 16.418V10.0078C21.9141 9.78125 21.8945 9.61719 21.8555 9.51562C21.8242 9.41406 21.8086 9.32031 21.8086 9.23438C21.8086 9.11719 21.8711 9.02344 21.9961 8.95312C22.1211 8.875 22.2695 8.83594 22.4414 8.83594C22.8398 8.83594 23.1523 8.94141 23.3789 9.15234C23.6133 9.35547 23.7305 9.60156 23.7305 9.89062V15.9844ZM23.8945 6.71484C24.0742 6.73047 24.2734 6.74219 24.4922 6.75C24.6797 6.76562 24.9062 6.77734 25.1719 6.78516C25.4375 6.78516 25.7344 6.78906 26.0625 6.79688V2.73047C26.0625 2.55859 26.0469 2.42188 26.0156 2.32031C25.9922 2.21875 25.9648 2.14063 25.9336 2.08594C25.9102 2.02344 25.8828 1.97656 25.8516 1.94531C25.8281 1.90625 25.8164 1.86719 25.8164 1.82812C25.8164 1.78125 25.8398 1.74219 25.8867 1.71094C25.9336 1.67969 25.9961 1.65234 26.0742 1.62891C26.1523 1.60547 26.2344 1.58984 26.3203 1.58203C26.4141 1.56641 26.5039 1.55859 26.5898 1.55859C26.9883 1.55859 27.3008 1.66406 27.5273 1.875C27.7617 2.07812 27.8789 2.32422 27.8789 2.61328V6.82031C28.6133 6.82031 29.3867 6.8125 30.1992 6.79688C31.0195 6.78125 31.8398 6.75391 32.6602 6.71484C32.7695 6.59766 32.8555 6.55469 32.918 6.58594C32.9883 6.61719 33.0312 6.69141 33.0469 6.80859C33.0703 6.92578 33.0742 7.07031 33.0586 7.24219C33.043 7.41406 33.0117 7.58203 32.9648 7.74609C32.918 7.90234 32.8516 8.03906 32.7656 8.15625C32.6875 8.27344 32.5977 8.33203 32.4961 8.33203C31.5352 8.35547 30.6836 8.37109 29.9414 8.37891C29.207 8.37891 28.5195 8.37891 27.8789 8.37891V15.9844C27.8789 16.375 27.9531 16.6562 28.1016 16.8281C28.25 17 28.4492 17.0859 28.6992 17.0859C28.9414 17.0859 29.1484 17 29.3203 16.8281C29.5 16.6562 29.6523 16.4414 29.7773 16.1836C29.9102 15.9258 30.0156 15.6484 30.0938 15.3516C30.1797 15.0469 30.25 14.7617 30.3047 14.4961C30.3516 14.2461 30.4297 14.0664 30.5391 13.957C30.6484 13.8398 30.7617 13.7812 30.8789 13.7812C30.9727 13.7812 31.0703 13.8125 31.1719 13.875C31.2734 13.9297 31.3633 14.0039 31.4414 14.0977C31.5273 14.1914 31.5938 14.2969 31.6406 14.4141C31.6953 14.5312 31.7227 14.6484 31.7227 14.7656C31.7227 14.7812 31.7227 14.8008 31.7227 14.8242C31.7227 14.8477 31.7148 14.8828 31.6992 14.9297C31.5977 15.3281 31.457 15.7461 31.2773 16.1836C31.1055 16.6211 30.8789 17.0234 30.5977 17.3906C30.3242 17.7578 29.9961 18.0625 29.6133 18.3047C29.2305 18.5469 28.7812 18.668 28.2656 18.668C27.9453 18.668 27.6484 18.6172 27.375 18.5156C27.1094 18.4219 26.8789 18.2656 26.6836 18.0469C26.4883 17.8359 26.3359 17.5625 26.2266 17.2266C26.1172 16.8906 26.0625 16.4844 26.0625 16.0078V8.37891C25.7969 8.37891 25.5586 8.37891 25.3477 8.37891C25.1445 8.37109 24.9727 8.36328 24.832 8.35547C24.668 8.34766 24.5234 8.33984 24.3984 8.33203C24.2109 8.33203 24.0469 8.25 23.9062 8.08594C23.7578 7.91406 23.6562 7.72656 23.6016 7.52344C23.5391 7.32031 23.5312 7.13672 23.5781 6.97266C23.6172 6.80078 23.7227 6.71484 23.8945 6.71484ZM37.207 17.0859C37.4492 17.0859 37.6562 17 37.8281 16.8281C38.0078 16.6562 38.1602 16.4414 38.2852 16.1836C38.418 15.9258 38.5234 15.6484 38.6016 15.3516C38.6875 15.0469 38.7578 14.7617 38.8125 14.4961C38.8672 14.2461 38.9453 14.0664 39.0469 13.957C39.1562 13.8398 39.2734 13.7812 39.3984 13.7812C39.4922 13.7812 39.5859 13.8125 39.6797 13.875C39.7812 13.9297 39.8711 14.0039 39.9492 14.0977C40.0352 14.1914 40.1016 14.2969 40.1484 14.4141C40.2031 14.5312 40.2305 14.6484 40.2305 14.7656C40.2305 14.7812 40.2305 14.8008 40.2305 14.8242C40.2305 14.8477 40.2227 14.8828 40.207 14.9297C40.1055 15.3281 39.9648 15.7461 39.7852 16.1836C39.6133 16.6211 39.3906 17.0234 39.1172 17.3906C38.8438 17.7578 38.5117 18.0625 38.1211 18.3047C37.7383 18.5469 37.2891 18.668 36.7734 18.668C36.3516 18.668 35.9844 18.5781 35.6719 18.3984C35.3594 18.2188 35.1133 17.9805 34.9336 17.6836C34.6914 17.957 34.3984 18.1875 34.0547 18.375C33.7188 18.5703 33.3242 18.668 32.8711 18.668C32.4023 18.668 31.9883 18.5742 31.6289 18.3867C31.2773 18.1992 30.9805 17.9453 30.7383 17.625C30.4961 17.2969 30.3125 16.9141 30.1875 16.4766C30.0703 16.0312 30.0117 15.5547 30.0117 15.0469C30.0117 14.0469 30.1719 13.1484 30.4922 12.3516C30.8125 11.5547 31.2383 10.8789 31.7695 10.3242C32.3008 9.76172 32.9062 9.33203 33.5859 9.03516C34.2734 8.73828 34.9844 8.58984 35.7188 8.58984C36.0469 8.58984 36.3125 8.67969 36.5156 8.85938C36.7188 9.03906 36.8203 9.28516 36.8203 9.59766C36.8203 9.80078 36.7969 9.94531 36.75 10.0312C36.7109 10.1094 36.6328 10.1484 36.5156 10.1484C36.4062 10.1484 36.293 10.1406 36.1758 10.125C36.0586 10.1094 35.9375 10.1016 35.8125 10.1016C35.3594 10.1016 34.8984 10.2031 34.4297 10.4062C33.9609 10.6016 33.5352 10.9062 33.1523 11.3203C32.7773 11.7266 32.4688 12.2461 32.2266 12.8789C31.9844 13.5039 31.8633 14.25 31.8633 15.1172C31.8633 15.75 31.9844 16.2383 32.2266 16.582C32.4688 16.918 32.8008 17.0859 33.2227 17.0859C33.5508 17.0859 33.8242 16.9648 34.043 16.7227C34.2617 16.4727 34.4375 16.1797 34.5703 15.8438V12.1406C34.5703 12.0234 34.5625 11.9258 34.5469 11.8477C34.5391 11.7695 34.5273 11.7031 34.5117 11.6484C34.5039 11.5938 34.4961 11.5469 34.4883 11.5078C34.4805 11.4609 34.4766 11.418 34.4766 11.3789C34.4766 11.2539 34.5352 11.1562 34.6523 11.0859C34.7773 11.0078 34.9258 10.9688 35.0977 10.9688C35.4961 10.9688 35.8125 11.0742 36.0469 11.2852C36.2812 11.4883 36.3984 11.7344 36.3984 12.0234V15.9844C36.3984 16.1172 36.4141 16.25 36.4453 16.3828C36.4766 16.5078 36.5234 16.625 36.5859 16.7344C36.6484 16.8359 36.7305 16.9219 36.832 16.9922C36.9414 17.0547 37.0664 17.0859 37.207 17.0859ZM44.1562 18.668C43.875 18.668 43.5859 18.625 43.2891 18.5391C43 18.4531 42.7344 18.3047 42.4922 18.0938C42.2578 17.8828 42.0625 17.6055 41.9062 17.2617C41.7578 16.9102 41.6836 16.4688 41.6836 15.9375C41.6836 15.1641 41.7852 14.3477 41.9883 13.4883C42.1992 12.6211 42.5 11.668 42.8906 10.6289H41.0625H40.793C40.7852 10.8633 40.7695 11.1602 40.7461 11.5195C40.7305 11.8789 40.6992 12.2617 40.6523 12.668C40.6055 13.0742 40.543 13.4844 40.4648 13.8984C40.3945 14.3125 40.3047 14.6953 40.1953 15.0469C40.1172 15.2969 39.9922 15.4414 39.8203 15.4805C39.6562 15.5195 39.4922 15.4922 39.3281 15.3984C39.1641 15.2969 39.0312 15.1523 38.9297 14.9648C38.8281 14.7773 38.8047 14.582 38.8594 14.3789C38.9219 14.1367 38.9766 13.8438 39.0234 13.5C39.0703 13.1484 39.1055 12.7812 39.1289 12.3984C39.1602 12.0078 39.1836 11.6211 39.1992 11.2383C39.2148 10.8477 39.2266 10.5 39.2344 10.1953C38.9375 10.0312 38.6914 9.82422 38.4961 9.57422C38.3008 9.31641 38.2031 9.01172 38.2031 8.66016C38.2031 8.49609 38.2344 8.34766 38.2969 8.21484C38.3672 8.07422 38.457 7.95703 38.5664 7.86328C38.6758 7.76172 38.8047 7.6875 38.9531 7.64062C39.1016 7.58594 39.2539 7.55859 39.4102 7.55859C39.5508 7.55859 39.6953 7.57812 39.8438 7.61719C40 7.65625 40.1445 7.72656 40.2773 7.82812C40.418 7.92969 40.543 8.0625 40.6523 8.22656C40.7617 8.39062 40.8516 8.59375 40.9219 8.83594C41.1172 8.85938 41.2812 8.87891 41.4141 8.89453C41.5547 8.90234 41.6719 8.91016 41.7656 8.91797C41.8594 8.92578 41.9375 8.92969 42 8.92969C42.0625 8.92969 42.125 8.92969 42.1875 8.92969H43.4414C43.5117 8.92969 43.6133 8.97266 43.7461 9.05859C43.8867 9.14453 44.0234 9.25781 44.1562 9.39844C44.2891 9.53125 44.3984 9.67578 44.4844 9.83203C44.5781 9.98828 44.6133 10.1367 44.5898 10.2773C44.5898 10.3242 44.5625 10.4375 44.5078 10.6172C44.4531 10.7969 44.3867 11.0234 44.3086 11.2969C44.2305 11.5703 44.1445 11.8867 44.0508 12.2461C43.957 12.5977 43.8711 12.9688 43.793 13.3594C43.7148 13.75 43.6484 14.1562 43.5938 14.5781C43.5391 14.9922 43.5117 15.3984 43.5117 15.7969C43.5117 15.9609 43.5312 16.1211 43.5703 16.2773C43.6094 16.4336 43.668 16.5742 43.7461 16.6992C43.8242 16.8164 43.9219 16.9102 44.0391 16.9805C44.1641 17.0508 44.3086 17.0859 44.4727 17.0859C44.7461 17.0859 44.9805 17 45.1758 16.8281C45.3711 16.6562 45.5352 16.4414 45.668 16.1836C45.8008 15.9258 45.9062 15.6484 45.9844 15.3516C46.0703 15.0469 46.1406 14.7617 46.1953 14.4961C46.2422 14.2461 46.3203 14.0664 46.4297 13.957C46.5391 13.8398 46.6523 13.7812 46.7695 13.7812C46.8633 13.7812 46.9609 13.8125 47.0625 13.875C47.1641 13.9297 47.2539 14.0039 47.332 14.0977C47.418 14.1914 47.4844 14.2969 47.5312 14.4141C47.5859 14.5312 47.6133 14.6484 47.6133 14.7656C47.6133 14.8047 47.6094 14.8359 47.6016 14.8594C47.5938 14.8828 47.5898 14.9062 47.5898 14.9297C47.4805 15.3281 47.3359 15.7461 47.1562 16.1836C46.9844 16.6211 46.7617 17.0234 46.4883 17.3906C46.2148 17.7578 45.8867 18.0625 45.5039 18.3047C45.1211 18.5469 44.6719 18.668 44.1562 18.668ZM55.6172 18.8672C55.1094 18.8672 54.6875 18.8086 54.3516 18.6914C54.0156 18.582 53.75 18.457 53.5547 18.3164C53.3594 18.1758 53.2227 18.043 53.1445 17.918C53.0664 17.7852 53.0273 17.6992 53.0273 17.6602C53.0273 17.5195 53.0586 17.3711 53.1211 17.2148C53.1836 17.0508 53.2617 16.9023 53.3555 16.7695C53.4492 16.6289 53.5508 16.5117 53.6602 16.418C53.7695 16.3242 53.8672 16.2773 53.9531 16.2773C54.0625 16.2773 54.1523 16.3477 54.2227 16.4883C54.2383 16.5039 54.2773 16.543 54.3398 16.6055C54.4023 16.668 54.4883 16.7344 54.5977 16.8047C54.7148 16.8672 54.8555 16.9258 55.0195 16.9805C55.1914 17.0352 55.3906 17.0625 55.6172 17.0625C56.1094 17.0625 56.5117 16.9141 56.8242 16.6172C57.1367 16.3125 57.293 15.9023 57.293 15.3867C57.293 15.0273 57.207 14.707 57.0352 14.4258C56.8711 14.1445 56.6523 13.8828 56.3789 13.6406C56.1055 13.3984 55.793 13.1641 55.4414 12.9375C55.0898 12.7031 54.7305 12.4609 54.3633 12.2109C53.9961 11.9609 53.6367 11.6914 53.2852 11.4023C52.9336 11.1133 52.6211 10.7812 52.3477 10.4062C52.0742 10.0312 51.8516 9.60938 51.6797 9.14062C51.5156 8.66406 51.4336 8.12109 51.4336 7.51172C51.4336 6.98828 51.5234 6.46094 51.7031 5.92969C51.8828 5.39844 52.1289 4.89453 52.4414 4.41797C52.7617 3.93359 53.1367 3.48438 53.5664 3.07031C53.9961 2.64844 54.4609 2.28516 54.9609 1.98047C55.4609 1.66797 55.9805 1.42578 56.5195 1.25391C57.0664 1.07422 57.6133 0.984375 58.1602 0.984375C58.6289 0.984375 59.0508 1.05859 59.4258 1.20703C59.8008 1.35547 60.1172 1.56641 60.375 1.83984C60.6328 2.10547 60.832 2.42969 60.9727 2.8125C61.1133 3.1875 61.1836 3.60938 61.1836 4.07812C61.1836 4.52344 61.1055 4.96094 60.9492 5.39062C60.793 5.82031 60.5859 6.22656 60.3281 6.60938C60.0703 6.99219 59.7773 7.34766 59.4492 7.67578C59.1289 7.99609 58.7969 8.27734 58.4531 8.51953C58.1172 8.75391 57.7891 8.9375 57.4688 9.07031C57.1484 9.20312 56.8672 9.26953 56.625 9.26953C56.4141 9.26953 56.2227 9.22266 56.0508 9.12891C55.8867 9.02734 55.7461 8.90625 55.6289 8.76562C55.5195 8.61719 55.4336 8.46484 55.3711 8.30859C55.3086 8.14453 55.2773 8 55.2773 7.875C55.2773 7.77344 55.2891 7.70703 55.3125 7.67578C55.3438 7.64453 55.3828 7.63281 55.4297 7.64062C55.4844 7.64062 55.5508 7.65234 55.6289 7.67578C55.707 7.69141 55.7969 7.69922 55.8984 7.69922C56.2266 7.69922 56.5898 7.58594 56.9883 7.35938C57.3867 7.13281 57.7617 6.84375 58.1133 6.49219C58.4648 6.14062 58.7578 5.75391 58.9922 5.33203C59.2344 4.91016 59.3555 4.5 59.3555 4.10156C59.3555 3.69531 59.2539 3.375 59.0508 3.14062C58.8555 2.90625 58.5195 2.78906 58.043 2.78906C57.7461 2.78906 57.4219 2.84766 57.0703 2.96484C56.7266 3.07422 56.3789 3.23047 56.0273 3.43359C55.6758 3.63672 55.3359 3.88281 55.0078 4.17188C54.6797 4.46094 54.3906 4.78125 54.1406 5.13281C53.8906 5.47656 53.6875 5.85156 53.5312 6.25781C53.3828 6.65625 53.3086 7.07422 53.3086 7.51172C53.3086 7.97266 53.3906 8.38672 53.5547 8.75391C53.7266 9.11328 53.9492 9.44141 54.2227 9.73828C54.5039 10.0352 54.8203 10.3086 55.1719 10.5586C55.5234 10.8086 55.8828 11.0586 56.25 11.3086C56.6172 11.5508 56.9766 11.8047 57.3281 12.0703C57.6797 12.3281 57.9922 12.6172 58.2656 12.9375C58.5469 13.25 58.7695 13.6016 58.9336 13.9922C59.1055 14.375 59.1914 14.8164 59.1914 15.3164C59.1914 15.8008 59.0977 16.2617 58.9102 16.6992C58.7305 17.1289 58.4805 17.5039 58.1602 17.8242C57.8398 18.1445 57.4609 18.3984 57.0234 18.5859C56.5859 18.7734 56.1172 18.8672 55.6172 18.8672ZM67.9102 18.668C67.6367 18.668 67.3867 18.625 67.1602 18.5391C66.9414 18.4531 66.7461 18.332 66.5742 18.1758C66.4102 18.0273 66.2734 17.8516 66.1641 17.6484C66.0547 17.4375 65.9805 17.2109 65.9414 16.9688C65.6523 17.4766 65.3125 17.8906 64.9219 18.2109C64.5312 18.5312 64.0703 18.6914 63.5391 18.6914C63.1406 18.6914 62.7812 18.6094 62.4609 18.4453C62.1484 18.2812 61.8828 18.0508 61.6641 17.7539C61.4453 17.4492 61.2773 17.0859 61.1602 16.6641C61.0508 16.2344 60.9961 15.7578 60.9961 15.2344C60.9961 14.6016 61.0391 13.9648 61.125 13.3242C61.2188 12.6836 61.3203 12.1055 61.4297 11.5898C61.5547 10.9883 61.6992 10.4062 61.8633 9.84375C61.9023 9.74219 61.9297 9.64062 61.9453 9.53906C61.9688 9.42969 62.0156 9.33203 62.0859 9.24609C62.1562 9.16016 62.2656 9.08984 62.4141 9.03516C62.5703 8.98047 62.8086 8.95312 63.1289 8.95312C63.4258 8.95312 63.6172 9.00781 63.7031 9.11719C63.7891 9.21875 63.8203 9.33984 63.7969 9.48047C63.7812 9.62109 63.7344 9.76562 63.6562 9.91406C63.5859 10.0625 63.5391 10.1836 63.5156 10.2773C63.4062 10.7227 63.3086 11.1289 63.2227 11.4961C63.1367 11.8633 63.0625 12.2344 63 12.6094C62.9453 12.9766 62.9023 13.3633 62.8711 13.7695C62.8398 14.168 62.8242 14.6172 62.8242 15.1172C62.8242 15.7734 62.918 16.2695 63.1055 16.6055C63.3008 16.9414 63.5742 17.1094 63.9258 17.1094C64.168 17.1094 64.3906 17.0195 64.5938 16.8398C64.8047 16.6602 64.9922 16.4219 65.1562 16.125C65.3281 15.8203 65.4766 15.4766 65.6016 15.0938C65.7266 14.7031 65.8242 14.2969 65.8945 13.875V10.0078C65.8945 9.83594 65.8789 9.69922 65.8477 9.59766C65.8242 9.49609 65.7969 9.41797 65.7656 9.36328C65.7422 9.30078 65.7148 9.25391 65.6836 9.22266C65.6602 9.18359 65.6484 9.14062 65.6484 9.09375C65.6484 9.05469 65.6719 9.01953 65.7188 8.98828C65.7656 8.95703 65.8281 8.92969 65.9062 8.90625C65.9844 8.88281 66.0664 8.86719 66.1523 8.85938C66.2461 8.84375 66.3359 8.83594 66.4219 8.83594C66.8203 8.83594 67.1328 8.94141 67.3594 9.15234C67.5938 9.35547 67.7109 9.60156 67.7109 9.89062V15.9844C67.7109 16.0391 67.7148 16.1289 67.7227 16.2539C67.7305 16.3711 67.7539 16.4922 67.793 16.6172C67.832 16.7422 67.8945 16.8516 67.9805 16.9453C68.0664 17.0391 68.1875 17.0859 68.3438 17.0859C68.5859 17.0859 68.793 17 68.9648 16.8281C69.1445 16.6562 69.2969 16.4414 69.4219 16.1836C69.5547 15.9258 69.6602 15.6484 69.7383 15.3516C69.8242 15.0469 69.8945 14.7617 69.9492 14.4961C69.9961 14.2461 70.0742 14.0664 70.1836 13.957C70.293 13.8398 70.4062 13.7812 70.5234 13.7812C70.6172 13.7812 70.7148 13.8125 70.8164 13.875C70.918 13.9297 71.0078 14.0039 71.0859 14.0977C71.1719 14.1914 71.2383 14.2969 71.2852 14.4141C71.3398 14.5312 71.3672 14.6484 71.3672 14.7656C71.3672 14.7812 71.3672 14.8008 71.3672 14.8242C71.3672 14.8477 71.3594 14.8828 71.3438 14.9297C71.2344 15.3281 71.0898 15.7461 70.9102 16.1836C70.7383 16.6211 70.5156 17.0234 70.2422 17.3906C69.9688 17.7578 69.6406 18.0625 69.2578 18.3047C68.875 18.5469 68.4258 18.668 67.9102 18.668ZM73.0312 18.9141C72.7344 18.9141 72.4922 18.8789 72.3047 18.8086C72.1172 18.7461 71.9727 18.6602 71.8711 18.5508V26.3555C71.8711 26.5742 71.8281 26.75 71.7422 26.8828C71.6562 27.0234 71.5469 27.1328 71.4141 27.2109C71.2891 27.2891 71.1523 27.3398 71.0039 27.3633C70.8555 27.3945 70.7227 27.4102 70.6055 27.4102C70.3633 27.4102 70.2109 27.3477 70.1484 27.2227C70.0859 27.0977 70.0547 26.9453 70.0547 26.7656V10.0078C70.0547 9.83594 70.0391 9.69922 70.0078 9.59766C69.9844 9.49609 69.957 9.41797 69.9258 9.36328C69.9023 9.30078 69.875 9.25391 69.8438 9.22266C69.8203 9.18359 69.8086 9.14062 69.8086 9.09375C69.8086 9.05469 69.832 9.01953 69.8789 8.98828C69.9258 8.95703 69.9883 8.92969 70.0664 8.90625C70.1445 8.88281 70.2266 8.86719 70.3125 8.85938C70.4062 8.84375 70.4961 8.83594 70.582 8.83594C70.9648 8.83594 71.2695 8.94141 71.4961 9.15234C71.7305 9.35547 71.8555 9.59375 71.8711 9.86719C72.1211 9.5 72.4219 9.19531 72.7734 8.95312C73.125 8.71094 73.5547 8.58984 74.0625 8.58984C74.5312 8.58984 74.9375 8.69922 75.2812 8.91797C75.6328 9.13672 75.9219 9.4375 76.1484 9.82031C76.3828 10.1953 76.5547 10.6406 76.6641 11.1562C76.7812 11.6719 76.8398 12.2266 76.8398 12.8203C76.8398 13.4922 76.7812 14.1367 76.6641 14.7539C76.5469 15.3633 76.3984 15.8867 76.2188 16.3242C76.6172 16.3008 76.9453 16.2461 77.2031 16.1602C77.4609 16.0742 77.6758 15.957 77.8477 15.8086C78.0273 15.6523 78.1797 15.4648 78.3047 15.2461C78.4375 15.0273 78.5742 14.7773 78.7148 14.4961C78.8242 14.2695 78.9141 14.1055 78.9844 14.0039C79.0625 13.9023 79.1562 13.8516 79.2656 13.8516C79.3672 13.8516 79.4688 13.8828 79.5703 13.9453C79.6797 14.0078 79.7734 14.0859 79.8516 14.1797C79.9375 14.2734 80.0039 14.375 80.0508 14.4844C80.1055 14.5859 80.1328 14.6797 80.1328 14.7656C80.1328 15.0391 80.0391 15.3516 79.8516 15.7031C79.6641 16.0547 79.375 16.3867 78.9844 16.6992C78.6016 17.0117 78.1133 17.2773 77.5195 17.4961C76.9336 17.707 76.2422 17.8125 75.4453 17.8125C75.1172 18.1641 74.7383 18.4336 74.3086 18.6211C73.8789 18.8164 73.4531 18.9141 73.0312 18.9141ZM73.4531 10.1953C73.2812 10.1953 73.1133 10.2461 72.9492 10.3477C72.793 10.4492 72.6445 10.5898 72.5039 10.7695C72.3633 10.9414 72.2383 11.1523 72.1289 11.4023C72.0273 11.6523 71.9414 11.9219 71.8711 12.2109V17.4023C72.043 17.1523 72.3242 16.9609 72.7148 16.8281C73.1055 16.6953 73.5781 16.6055 74.1328 16.5586C74.2734 16.3477 74.3945 16.0977 74.4961 15.8086C74.6055 15.5117 74.6953 15.207 74.7656 14.8945C74.8359 14.582 74.8867 14.2773 74.918 13.9805C74.957 13.6836 74.9766 13.4219 74.9766 13.1953C74.9766 12.6484 74.9336 12.1836 74.8477 11.8008C74.7695 11.418 74.6602 11.1094 74.5195 10.875C74.3789 10.6328 74.2148 10.4609 74.0273 10.3594C73.8477 10.25 73.6562 10.1953 73.4531 10.1953ZM84.2461 11.0156C84.2461 11.4609 84.168 11.918 84.0117 12.3867C83.8633 12.8555 83.6367 13.3008 83.332 13.7227C83.0352 14.1367 82.6641 14.5117 82.2188 14.8477C81.7812 15.1758 81.2734 15.4258 80.6953 15.5977C80.7734 15.8008 80.875 15.9961 81 16.1836C81.1328 16.3633 81.2891 16.5195 81.4688 16.6523C81.6484 16.7852 81.8555 16.8906 82.0898 16.9688C82.332 17.0469 82.6094 17.0859 82.9219 17.0859C83.3906 17.0859 83.793 17 84.1289 16.8281C84.4648 16.6484 84.7461 16.4141 84.9727 16.125C85.207 15.8359 85.3945 15.5117 85.5352 15.1523C85.6758 14.793 85.7812 14.4297 85.8516 14.0625C85.9062 13.7969 86.0156 13.6211 86.1797 13.5352C86.3516 13.4414 86.5234 13.418 86.6953 13.4648C86.875 13.5117 87.0273 13.6133 87.1523 13.7695C87.2852 13.918 87.3398 14.0977 87.3164 14.3086C87.2852 14.5508 87.2305 14.8281 87.1523 15.1406C87.082 15.4531 86.9727 15.7695 86.8242 16.0898C86.6758 16.4102 86.4844 16.7266 86.25 17.0391C86.0234 17.3438 85.7422 17.6172 85.4062 17.8594C85.0703 18.1016 84.6758 18.2969 84.2227 18.4453C83.7695 18.5938 83.25 18.668 82.6641 18.668C82.1172 18.668 81.5859 18.5586 81.0703 18.3398C80.5625 18.1289 80.1094 17.8242 79.7109 17.4258C79.3203 17.0195 79.0039 16.5234 78.7617 15.9375C78.5273 15.3438 78.4102 14.6719 78.4102 13.9219C78.4102 13.1641 78.5156 12.4609 78.7266 11.8125C78.9375 11.1562 79.2148 10.5898 79.5586 10.1133C79.9023 9.63672 80.293 9.26562 80.7305 9C81.168 8.72656 81.6172 8.58984 82.0781 8.58984C82.4141 8.58984 82.7148 8.64844 82.9805 8.76562C83.2539 8.88281 83.4844 9.05078 83.6719 9.26953C83.8594 9.48047 84 9.73438 84.0938 10.0312C84.1953 10.3281 84.2461 10.6562 84.2461 11.0156ZM80.3789 13.8516C80.3789 13.9219 80.3828 13.9922 80.3906 14.0625C80.3984 14.1328 80.4023 14.207 80.4023 14.2852C80.6992 14.1445 80.9688 13.9648 81.2109 13.7461C81.4531 13.5273 81.6602 13.2773 81.832 12.9961C82.0039 12.7148 82.1367 12.4102 82.2305 12.082C82.3242 11.7461 82.3711 11.3984 82.3711 11.0391C82.3711 10.7734 82.3242 10.5664 82.2305 10.418C82.1445 10.2695 82.0234 10.1953 81.8672 10.1953C81.6719 10.1953 81.4961 10.2617 81.3398 10.3945C81.1914 10.5273 81.0586 10.7031 80.9414 10.9219C80.832 11.1328 80.7383 11.375 80.6602 11.6484C80.5898 11.9141 80.5312 12.1836 80.4844 12.457C80.4375 12.7305 80.4062 12.9922 80.3906 13.2422C80.375 13.4844 80.3711 13.6875 80.3789 13.8516ZM91.0781 18.668C90.7969 18.668 90.5078 18.625 90.2109 18.5391C89.9219 18.4531 89.6562 18.3047 89.4141 18.0938C89.1797 17.8828 88.9844 17.6055 88.8281 17.2617C88.6797 16.9102 88.6055 16.4688 88.6055 15.9375C88.6055 15.1641 88.707 14.3477 88.9102 13.4883C89.1211 12.6211 89.4219 11.668 89.8125 10.6289H87.9844H87.7148C87.707 10.8633 87.6914 11.1602 87.668 11.5195C87.6523 11.8789 87.6211 12.2617 87.5742 12.668C87.5273 13.0742 87.4648 13.4844 87.3867 13.8984C87.3164 14.3125 87.2266 14.6953 87.1172 15.0469C87.0391 15.2969 86.9141 15.4414 86.7422 15.4805C86.5781 15.5195 86.4141 15.4922 86.25 15.3984C86.0859 15.2969 85.9531 15.1523 85.8516 14.9648C85.75 14.7773 85.7266 14.582 85.7812 14.3789C85.8438 14.1367 85.8984 13.8438 85.9453 13.5C85.9922 13.1484 86.0273 12.7812 86.0508 12.3984C86.082 12.0078 86.1055 11.6211 86.1211 11.2383C86.1367 10.8477 86.1484 10.5 86.1562 10.1953C85.8594 10.0312 85.6133 9.82422 85.418 9.57422C85.2227 9.31641 85.125 9.01172 85.125 8.66016C85.125 8.49609 85.1562 8.34766 85.2188 8.21484C85.2891 8.07422 85.3789 7.95703 85.4883 7.86328C85.5977 7.76172 85.7266 7.6875 85.875 7.64062C86.0234 7.58594 86.1758 7.55859 86.332 7.55859C86.4727 7.55859 86.6172 7.57812 86.7656 7.61719C86.9219 7.65625 87.0664 7.72656 87.1992 7.82812C87.3398 7.92969 87.4648 8.0625 87.5742 8.22656C87.6836 8.39062 87.7734 8.59375 87.8438 8.83594C88.0391 8.85938 88.2031 8.87891 88.3359 8.89453C88.4766 8.90234 88.5938 8.91016 88.6875 8.91797C88.7812 8.92578 88.8594 8.92969 88.9219 8.92969C88.9844 8.92969 89.0469 8.92969 89.1094 8.92969H90.3633C90.4336 8.92969 90.5352 8.97266 90.668 9.05859C90.8086 9.14453 90.9453 9.25781 91.0781 9.39844C91.2109 9.53125 91.3203 9.67578 91.4062 9.83203C91.5 9.98828 91.5352 10.1367 91.5117 10.2773C91.5117 10.3242 91.4844 10.4375 91.4297 10.6172C91.375 10.7969 91.3086 11.0234 91.2305 11.2969C91.1523 11.5703 91.0664 11.8867 90.9727 12.2461C90.8789 12.5977 90.793 12.9688 90.7148 13.3594C90.6367 13.75 90.5703 14.1562 90.5156 14.5781C90.4609 14.9922 90.4336 15.3984 90.4336 15.7969C90.4336 15.9609 90.4531 16.1211 90.4922 16.2773C90.5312 16.4336 90.5898 16.5742 90.668 16.6992C90.7461 16.8164 90.8438 16.9102 90.9609 16.9805C91.0859 17.0508 91.2305 17.0859 91.3945 17.0859C91.668 17.0859 91.9023 17 92.0977 16.8281C92.293 16.6562 92.457 16.4414 92.5898 16.1836C92.7227 15.9258 92.8281 15.6484 92.9062 15.3516C92.9922 15.0469 93.0625 14.7617 93.1172 14.4961C93.1641 14.2461 93.2422 14.0664 93.3516 13.957C93.4609 13.8398 93.5742 13.7812 93.6914 13.7812C93.7852 13.7812 93.8828 13.8125 93.9844 13.875C94.0859 13.9297 94.1758 14.0039 94.2539 14.0977C94.3398 14.1914 94.4062 14.2969 94.4531 14.4141C94.5078 14.5312 94.5352 14.6484 94.5352 14.7656C94.5352 14.8047 94.5312 14.8359 94.5234 14.8594C94.5156 14.8828 94.5117 14.9062 94.5117 14.9297C94.4023 15.3281 94.2578 15.7461 94.0781 16.1836C93.9062 16.6211 93.6836 17.0234 93.4102 17.3906C93.1367 17.7578 92.8086 18.0625 92.4258 18.3047C92.043 18.5469 91.5938 18.668 91.0781 18.668ZM93.2344 3.21094C93.2344 3.03906 93.2188 2.90234 93.1875 2.80078C93.1641 2.69922 93.1367 2.62109 93.1055 2.56641C93.082 2.50391 93.0547 2.45703 93.0234 2.42578C93 2.38672 92.9883 2.34766 92.9883 2.30859C92.9883 2.26172 93.0117 2.22266 93.0586 2.19141C93.1055 2.16016 93.168 2.13281 93.2461 2.10938C93.3242 2.08594 93.4062 2.07031 93.4922 2.0625C93.5859 2.04688 93.6758 2.03906 93.7617 2.03906C94.1602 2.03906 94.4727 2.14453 94.6992 2.35547C94.9336 2.55859 95.0508 2.80469 95.0508 3.09375V10.9688C95.2148 10.6328 95.3906 10.3203 95.5781 10.0312C95.7734 9.74219 95.9805 9.49219 96.1992 9.28125C96.4258 9.0625 96.6641 8.89453 96.9141 8.77734C97.1719 8.65234 97.4492 8.58984 97.7461 8.58984C98.1445 8.58984 98.4727 8.66406 98.7305 8.8125C98.9883 8.96094 99.1914 9.15234 99.3398 9.38672C99.4883 9.62109 99.5898 9.88281 99.6445 10.1719C99.707 10.4609 99.7383 10.7422 99.7383 11.0156V15.9844C99.7383 16.0391 99.7422 16.1289 99.75 16.2539C99.7578 16.3711 99.7812 16.4922 99.8203 16.6172C99.8594 16.7422 99.918 16.8516 99.9961 16.9453C100.082 17.0391 100.203 17.0859 100.359 17.0859C100.602 17.0859 100.809 17 100.98 16.8281C101.16 16.6562 101.312 16.4414 101.438 16.1836C101.57 15.9258 101.676 15.6484 101.754 15.3516C101.84 15.0469 101.91 14.7617 101.965 14.4961C102.012 14.2539 102.082 14.0781 102.176 13.9688C102.277 13.8594 102.383 13.8008 102.492 13.793C102.609 13.7773 102.727 13.8047 102.844 13.875C102.961 13.9453 103.062 14.0391 103.148 14.1562C103.234 14.2656 103.297 14.3906 103.336 14.5312C103.383 14.6719 103.391 14.8047 103.359 14.9297C103.25 15.3281 103.105 15.7461 102.926 16.1836C102.754 16.6211 102.531 17.0234 102.258 17.3906C101.984 17.7578 101.656 18.0625 101.273 18.3047C100.891 18.5469 100.441 18.668 99.9258 18.668C99.6055 18.668 99.3203 18.6055 99.0703 18.4805C98.8281 18.3633 98.6172 18.2031 98.4375 18C98.2656 17.7969 98.1328 17.5586 98.0391 17.2852C97.9531 17.0117 97.9102 16.7227 97.9102 16.418V11.543C97.9102 11.3555 97.9062 11.1797 97.8984 11.0156C97.8906 10.8516 97.8672 10.707 97.8281 10.582C97.7969 10.457 97.7461 10.3594 97.6758 10.2891C97.6133 10.2109 97.5234 10.1719 97.4062 10.1719C97.2344 10.1719 97.0234 10.2891 96.7734 10.5234C96.5234 10.7578 96.2773 11.0625 96.0352 11.4375C95.793 11.8125 95.5781 12.2383 95.3906 12.7148C95.2109 13.1836 95.0977 13.6562 95.0508 14.1328V17.6367C95.0508 17.7539 95.0469 17.875 95.0391 18C95.0391 18.1172 95.0156 18.2227 94.9688 18.3164C94.9297 18.418 94.8633 18.5 94.7695 18.5625C94.6836 18.6328 94.5547 18.668 94.3828 18.668C94.2656 18.668 94.1367 18.6523 93.9961 18.6211C93.8633 18.5977 93.7383 18.5469 93.6211 18.4688C93.5117 18.3984 93.418 18.293 93.3398 18.1523C93.2695 18.0195 93.2344 17.8398 93.2344 17.6133V3.21094ZM107.59 11.0156C107.59 11.4609 107.512 11.918 107.355 12.3867C107.207 12.8555 106.98 13.3008 106.676 13.7227C106.379 14.1367 106.008 14.5117 105.562 14.8477C105.125 15.1758 104.617 15.4258 104.039 15.5977C104.117 15.8008 104.219 15.9961 104.344 16.1836C104.477 16.3633 104.633 16.5195 104.812 16.6523C104.992 16.7852 105.199 16.8906 105.434 16.9688C105.676 17.0469 105.953 17.0859 106.266 17.0859C106.734 17.0859 107.137 17 107.473 16.8281C107.809 16.6484 108.09 16.4141 108.316 16.125C108.551 15.8359 108.738 15.5117 108.879 15.1523C109.02 14.793 109.125 14.4297 109.195 14.0625C109.25 13.7969 109.359 13.6211 109.523 13.5352C109.695 13.4414 109.867 13.418 110.039 13.4648C110.219 13.5117 110.371 13.6133 110.496 13.7695C110.629 13.918 110.684 14.0977 110.66 14.3086C110.629 14.5508 110.574 14.8281 110.496 15.1406C110.426 15.4531 110.316 15.7695 110.168 16.0898C110.02 16.4102 109.828 16.7266 109.594 17.0391C109.367 17.3438 109.086 17.6172 108.75 17.8594C108.414 18.1016 108.02 18.2969 107.566 18.4453C107.113 18.5938 106.594 18.668 106.008 18.668C105.461 18.668 104.93 18.5586 104.414 18.3398C103.906 18.1289 103.453 17.8242 103.055 17.4258C102.664 17.0195 102.348 16.5234 102.105 15.9375C101.871 15.3438 101.754 14.6719 101.754 13.9219C101.754 13.1641 101.859 12.4609 102.07 11.8125C102.281 11.1562 102.559 10.5898 102.902 10.1133C103.246 9.63672 103.637 9.26562 104.074 9C104.512 8.72656 104.961 8.58984 105.422 8.58984C105.758 8.58984 106.059 8.64844 106.324 8.76562C106.598 8.88281 106.828 9.05078 107.016 9.26953C107.203 9.48047 107.344 9.73438 107.438 10.0312C107.539 10.3281 107.59 10.6562 107.59 11.0156ZM103.723 13.8516C103.723 13.9219 103.727 13.9922 103.734 14.0625C103.742 14.1328 103.746 14.207 103.746 14.2852C104.043 14.1445 104.312 13.9648 104.555 13.7461C104.797 13.5273 105.004 13.2773 105.176 12.9961C105.348 12.7148 105.48 12.4102 105.574 12.082C105.668 11.7461 105.715 11.3984 105.715 11.0391C105.715 10.7734 105.668 10.5664 105.574 10.418C105.488 10.2695 105.367 10.1953 105.211 10.1953C105.016 10.1953 104.84 10.2617 104.684 10.3945C104.535 10.5273 104.402 10.7031 104.285 10.9219C104.176 11.1328 104.082 11.375 104.004 11.6484C103.934 11.9141 103.875 12.1836 103.828 12.457C103.781 12.7305 103.75 12.9922 103.734 13.2422C103.719 13.4844 103.715 13.6875 103.723 13.8516ZM114.422 18.668C114.141 18.668 113.852 18.625 113.555 18.5391C113.266 18.4531 113 18.3047 112.758 18.0938C112.523 17.8828 112.328 17.6055 112.172 17.2617C112.023 16.9102 111.949 16.4688 111.949 15.9375C111.949 15.1641 112.051 14.3477 112.254 13.4883C112.465 12.6211 112.766 11.668 113.156 10.6289H111.328H111.059C111.051 10.8633 111.035 11.1602 111.012 11.5195C110.996 11.8789 110.965 12.2617 110.918 12.668C110.871 13.0742 110.809 13.4844 110.73 13.8984C110.66 14.3125 110.57 14.6953 110.461 15.0469C110.383 15.2969 110.258 15.4414 110.086 15.4805C109.922 15.5195 109.758 15.4922 109.594 15.3984C109.43 15.2969 109.297 15.1523 109.195 14.9648C109.094 14.7773 109.07 14.582 109.125 14.3789C109.188 14.1367 109.242 13.8438 109.289 13.5C109.336 13.1484 109.371 12.7812 109.395 12.3984C109.426 12.0078 109.449 11.6211 109.465 11.2383C109.48 10.8477 109.492 10.5 109.5 10.1953C109.203 10.0312 108.957 9.82422 108.762 9.57422C108.566 9.31641 108.469 9.01172 108.469 8.66016C108.469 8.49609 108.5 8.34766 108.562 8.21484C108.633 8.07422 108.723 7.95703 108.832 7.86328C108.941 7.76172 109.07 7.6875 109.219 7.64062C109.367 7.58594 109.52 7.55859 109.676 7.55859C109.816 7.55859 109.961 7.57812 110.109 7.61719C110.266 7.65625 110.41 7.72656 110.543 7.82812C110.684 7.92969 110.809 8.0625 110.918 8.22656C111.027 8.39062 111.117 8.59375 111.188 8.83594C111.383 8.85938 111.547 8.87891 111.68 8.89453C111.82 8.90234 111.938 8.91016 112.031 8.91797C112.125 8.92578 112.203 8.92969 112.266 8.92969C112.328 8.92969 112.391 8.92969 112.453 8.92969H113.707C113.777 8.92969 113.879 8.97266 114.012 9.05859C114.152 9.14453 114.289 9.25781 114.422 9.39844C114.555 9.53125 114.664 9.67578 114.75 9.83203C114.844 9.98828 114.879 10.1367 114.855 10.2773C114.855 10.3242 114.828 10.4375 114.773 10.6172C114.719 10.7969 114.652 11.0234 114.574 11.2969C114.496 11.5703 114.41 11.8867 114.316 12.2461C114.223 12.5977 114.137 12.9688 114.059 13.3594C113.98 13.75 113.914 14.1562 113.859 14.5781C113.805 14.9922 113.777 15.3984 113.777 15.7969C113.777 15.9609 113.797 16.1211 113.836 16.2773C113.875 16.4336 113.934 16.5742 114.012 16.6992C114.09 16.8164 114.188 16.9102 114.305 16.9805C114.43 17.0508 114.574 17.0859 114.738 17.0859C115.012 17.0859 115.246 17 115.441 16.8281C115.637 16.6562 115.801 16.4414 115.934 16.1836C116.066 15.9258 116.172 15.6484 116.25 15.3516C116.336 15.0469 116.406 14.7617 116.461 14.4961C116.508 14.2461 116.586 14.0664 116.695 13.957C116.805 13.8398 116.918 13.7812 117.035 13.7812C117.129 13.7812 117.227 13.8125 117.328 13.875C117.43 13.9297 117.52 14.0039 117.598 14.0977C117.684 14.1914 117.75 14.2969 117.797 14.4141C117.852 14.5312 117.879 14.6484 117.879 14.7656C117.879 14.8047 117.875 14.8359 117.867 14.8594C117.859 14.8828 117.855 14.9062 117.855 14.9297C117.746 15.3281 117.602 15.7461 117.422 16.1836C117.25 16.6211 117.027 17.0234 116.754 17.3906C116.48 17.7578 116.152 18.0625 115.77 18.3047C115.387 18.5469 114.938 18.668 114.422 18.668ZM125.355 14.0391C125.371 13.9453 125.422 13.8672 125.508 13.8047C125.602 13.7422 125.707 13.6992 125.824 13.6758C125.941 13.6523 126.062 13.6523 126.188 13.6758C126.32 13.6992 126.434 13.7539 126.527 13.8398C126.629 13.918 126.699 14.0312 126.738 14.1797C126.785 14.3203 126.781 14.5039 126.727 14.7305C126.656 15.0586 126.539 15.3672 126.375 15.6562C126.219 15.9375 126.02 16.1875 125.777 16.4062C125.535 16.625 125.25 16.7969 124.922 16.9219C124.594 17.0469 124.227 17.1094 123.82 17.1094C123.602 17.1094 123.395 17.0977 123.199 17.0742C123.012 17.0508 122.828 17.0078 122.648 16.9453C122.352 17.4609 121.969 17.875 121.5 18.1875C121.031 18.5078 120.453 18.668 119.766 18.668C119.156 18.668 118.633 18.5469 118.195 18.3047C117.758 18.0703 117.395 17.75 117.105 17.3438C116.816 16.9297 116.602 16.4531 116.461 15.9141C116.328 15.375 116.262 14.8047 116.262 14.2031C116.262 13.3203 116.363 12.5312 116.566 11.8359C116.777 11.1328 117.02 10.5391 117.293 10.0547C117.566 9.5625 117.836 9.1875 118.102 8.92969C118.375 8.67188 118.578 8.54297 118.711 8.54297C118.867 8.54297 119.008 8.61328 119.133 8.75391C119.266 8.88672 119.359 9.04688 119.414 9.23438C119.477 9.41406 119.492 9.59766 119.461 9.78516C119.438 9.97266 119.348 10.1172 119.191 10.2188C119.098 10.3672 118.984 10.5391 118.852 10.7344C118.727 10.9297 118.605 11.1758 118.488 11.4727C118.379 11.7617 118.285 12.1172 118.207 12.5391C118.129 12.9609 118.09 13.4688 118.09 14.0625C118.09 14.5703 118.133 15.0117 118.219 15.3867C118.312 15.7617 118.438 16.0781 118.594 16.3359C118.758 16.5859 118.941 16.7734 119.145 16.8984C119.355 17.0234 119.578 17.0859 119.812 17.0859C120.156 17.0859 120.438 17.0039 120.656 16.8398C120.883 16.668 121.074 16.4453 121.23 16.1719C120.668 15.6875 120.238 15.0742 119.941 14.332C119.652 13.582 119.508 12.7734 119.508 11.9062C119.508 11.5312 119.547 11.1758 119.625 10.8398C119.711 10.4961 119.832 10.1953 119.988 9.9375C120.152 9.67969 120.355 9.47656 120.598 9.32812C120.84 9.17188 121.121 9.09375 121.441 9.09375C121.723 9.09375 121.988 9.19531 122.238 9.39844C122.488 9.60156 122.707 9.88281 122.895 10.2422C123.082 10.6016 123.227 11.0273 123.328 11.5195C123.438 12.0117 123.492 12.5469 123.492 13.125C123.492 13.5703 123.465 14.0117 123.41 14.4492C123.355 14.8867 123.27 15.3086 123.152 15.7148C123.238 15.7461 123.316 15.7656 123.387 15.7734C123.465 15.7734 123.547 15.7734 123.633 15.7734C123.891 15.7734 124.117 15.7266 124.312 15.6328C124.516 15.5391 124.688 15.4141 124.828 15.2578C124.969 15.1016 125.082 14.918 125.168 14.707C125.254 14.4961 125.316 14.2734 125.355 14.0391ZM120.773 11.8125C120.773 12.3516 120.855 12.8633 121.02 13.3477C121.191 13.832 121.414 14.2539 121.688 14.6133C121.734 14.2305 121.758 13.8633 121.758 13.5117C121.758 13.1055 121.75 12.7305 121.734 12.3867C121.727 12.0352 121.699 11.7344 121.652 11.4844C121.613 11.2344 121.555 11.0391 121.477 10.8984C121.406 10.75 121.309 10.6758 121.184 10.6758C120.91 10.6758 120.773 11.0547 120.773 11.8125Z" fill="#BC9355"/>
</svg>
