<svg width="190" height="41" viewBox="0 0 190 41" fill="none" xmlns="http://www.w3.org/2000/svg">
<path d="M12.7812 23.9082C12.0195 25.0332 11.1758 25.9004 10.25 26.5098C9.32422 27.1309 8.31055 27.4414 7.20898 27.4414C6.0957 27.4414 5.10547 27.1719 4.23828 26.6328C3.37109 26.1055 2.63867 25.3555 2.04102 24.3828C1.45508 23.3984 1.00391 22.2207 0.6875 20.8496C0.382812 19.4668 0.230469 17.9316 0.230469 16.2441C0.230469 15.0488 0.353516 13.8242 0.599609 12.5703C0.845703 11.3164 1.20312 10.1035 1.67188 8.93164C2.15234 7.74805 2.73242 6.63477 3.41211 5.5918C4.0918 4.53711 4.86523 3.62305 5.73242 2.84961C6.59961 2.06445 7.55469 1.44336 8.59766 0.986328C9.64062 0.529297 10.7598 0.300781 11.9551 0.300781C12.5996 0.300781 13.2031 0.40625 13.7656 0.617188C14.3281 0.816406 14.8086 1.10938 15.207 1.49609C15.6172 1.88281 15.9395 2.35156 16.1738 2.90234C16.4082 3.45312 16.5254 4.07422 16.5254 4.76562C16.5254 5.42187 16.4141 6.05469 16.1914 6.66406C15.9688 7.27344 15.6641 7.84766 15.2773 8.38672C14.9023 8.92578 14.4629 9.41797 13.959 9.86328C13.4551 10.3086 12.9277 10.6953 12.377 11.0234C11.8262 11.3398 11.2637 11.5859 10.6895 11.7617C10.1152 11.9375 9.56445 12.0254 9.03711 12.0254C8.60352 12.0254 8.22852 11.8906 7.91211 11.6211C7.60742 11.3398 7.45508 10.9004 7.45508 10.3027C7.45508 10.1738 7.46094 10.0332 7.47266 9.88086C7.49609 9.72852 7.52539 9.58789 7.56055 9.45898C7.5957 9.33008 7.63672 9.22461 7.68359 9.14258C7.73047 9.04883 7.78906 9.00195 7.85938 9.00195C7.91797 9.00195 7.9707 9.02539 8.01758 9.07227C8.07617 9.10742 8.14648 9.14844 8.22852 9.19531C8.32227 9.23047 8.44531 9.27148 8.59766 9.31836C8.75 9.35352 8.96094 9.37109 9.23047 9.37109C9.6875 9.37109 10.1738 9.24805 10.6895 9.00195C11.2168 8.75586 11.7031 8.42773 12.1484 8.01758C12.5938 7.60742 12.9629 7.13867 13.2559 6.61133C13.5488 6.07227 13.6953 5.51563 13.6953 4.94141C13.6953 4.73047 13.6543 4.50781 13.5723 4.27344C13.502 4.03906 13.3789 3.82227 13.2031 3.62305C13.0391 3.42383 12.8164 3.25977 12.5352 3.13086C12.2539 2.99023 11.9082 2.91992 11.498 2.91992C10.748 2.91992 10.0215 3.10156 9.31836 3.46484C8.61523 3.82813 7.95898 4.33203 7.34961 4.97656C6.74023 5.60938 6.17773 6.35352 5.66211 7.20898C5.1582 8.06445 4.72461 8.98438 4.36133 9.96875C3.99805 10.9531 3.7168 11.9785 3.51758 13.0449C3.31836 14.1113 3.21875 15.166 3.21875 16.209C3.21875 17.5098 3.31836 18.6816 3.51758 19.7246C3.72852 20.7559 4.01562 21.6348 4.37891 22.3613C4.74219 23.0879 5.16992 23.6504 5.66211 24.0488C6.16602 24.4355 6.70508 24.6289 7.2793 24.6289C7.88867 24.6289 8.45117 24.5059 8.9668 24.2598C9.48242 24.002 9.94531 23.6621 10.3555 23.2402C10.7656 22.8184 11.123 22.332 11.4277 21.7812C11.7324 21.2305 11.9844 20.6621 12.1836 20.0762C12.3945 19.4902 12.5527 18.9102 12.6582 18.3359C12.7637 17.75 12.8164 17.2109 12.8164 16.7188C12.8164 16.5312 12.8047 16.3203 12.7812 16.0859C12.7578 15.8398 12.7461 15.6523 12.7461 15.5234C12.7461 15.3477 12.7754 15.2129 12.834 15.1191C12.9043 15.0254 12.9922 14.9551 13.0977 14.9082C13.2031 14.8613 13.3262 14.832 13.4668 14.8203C13.6074 14.8086 13.7539 14.8027 13.9062 14.8027C14.0703 14.8027 14.2578 14.8379 14.4688 14.9082C14.6797 14.9785 14.8789 15.0781 15.0664 15.207C15.2656 15.3242 15.4297 15.4648 15.5586 15.6289C15.6992 15.793 15.7695 15.9746 15.7695 16.1738C15.6758 17.1465 15.6172 18.0723 15.5938 18.9512C15.5703 19.8184 15.5586 20.7031 15.5586 21.6055C15.5586 22.4492 15.5645 23.3281 15.5762 24.2422C15.5879 25.1562 15.5938 26.1641 15.5938 27.2656C15.9336 27.207 16.2617 27.166 16.5781 27.1426C16.9062 27.1191 17.2168 27.0957 17.5098 27.0723C17.9316 27.0488 18.2012 27.1777 18.3184 27.459C18.4473 27.752 18.4648 28.0801 18.3711 28.4434C18.2891 28.8066 18.125 29.1406 17.8789 29.4453C17.6328 29.75 17.3516 29.9082 17.0352 29.9199C16.7656 29.9199 16.5078 29.9258 16.2617 29.9375C16.0273 29.9492 15.7812 29.9668 15.5234 29.9902C15.4883 30.6699 15.4355 31.3555 15.3652 32.0469C15.2949 32.7383 15.1777 33.4062 15.0137 34.0508C14.8613 34.707 14.6562 35.3164 14.3984 35.8789C14.1523 36.4531 13.8418 36.9512 13.4668 37.373C13.0918 37.7949 12.6406 38.1289 12.1133 38.375C11.5859 38.6211 10.9707 38.7441 10.2676 38.7441C9.6582 38.7441 9.10156 38.6328 8.59766 38.4102C8.10547 38.1992 7.68359 37.9004 7.33203 37.5137C6.98047 37.1387 6.71094 36.6934 6.52344 36.1777C6.33594 35.6621 6.24219 35.0996 6.24219 34.4902C6.24219 33.5762 6.42969 32.7617 6.80469 32.0469C7.17969 31.3438 7.67188 30.7227 8.28125 30.1836C8.90234 29.6445 9.61133 29.1875 10.4082 28.8125C11.2051 28.4375 12.0195 28.1211 12.8516 27.8633V27.5117C12.8516 26.7383 12.8398 26.0527 12.8164 25.4551C12.793 24.8574 12.7812 24.3418 12.7812 23.9082ZM10.3379 35.9668C10.7363 35.9668 11.0762 35.8203 11.3574 35.5273C11.6504 35.2344 11.8906 34.8359 12.0781 34.332C12.2656 33.8281 12.4121 33.248 12.5176 32.5918C12.623 31.9473 12.6992 31.2617 12.7461 30.5352C11.5508 30.9102 10.6309 31.4258 9.98633 32.082C9.35352 32.7383 9.03711 33.5176 9.03711 34.4199C9.03711 34.9707 9.16016 35.3633 9.40625 35.5977C9.66406 35.8438 9.97461 35.9668 10.3379 35.9668ZM28.6543 27.002C28.2441 27.002 27.8691 26.9375 27.5293 26.8086C27.2012 26.6797 26.9082 26.498 26.6504 26.2637C26.4043 26.041 26.1992 25.7773 26.0352 25.4727C25.8711 25.1562 25.7598 24.8164 25.7012 24.4531C25.2676 25.2148 24.7578 25.8359 24.1719 26.3164C23.5859 26.7969 22.8945 27.0371 22.0977 27.0371C21.5 27.0371 20.9609 26.9141 20.4805 26.668C20.0117 26.4219 19.6133 26.0762 19.2852 25.6309C18.957 25.1738 18.7051 24.6289 18.5293 23.9961C18.3652 23.3516 18.2832 22.6367 18.2832 21.8516C18.2832 20.9023 18.3477 19.9473 18.4766 18.9863C18.6172 18.0254 18.7695 17.1582 18.9336 16.3848C19.1211 15.4824 19.3379 14.6094 19.584 13.7656C19.6426 13.6133 19.6836 13.4609 19.707 13.3086C19.7422 13.1445 19.8125 12.998 19.918 12.8691C20.0234 12.7402 20.1875 12.6348 20.4102 12.5527C20.6445 12.4707 21.002 12.4297 21.4824 12.4297C21.9277 12.4297 22.2148 12.5117 22.3438 12.6758C22.4727 12.8281 22.5195 13.0098 22.4844 13.2207C22.4609 13.4316 22.3906 13.6484 22.2734 13.8711C22.168 14.0938 22.0977 14.2754 22.0625 14.416C21.8984 15.084 21.752 15.6934 21.623 16.2441C21.4941 16.7949 21.3828 17.3516 21.2891 17.9141C21.207 18.4648 21.1426 19.0449 21.0957 19.6543C21.0488 20.252 21.0254 20.9258 21.0254 21.6758C21.0254 22.6602 21.166 23.4043 21.4473 23.9082C21.7402 24.4121 22.1504 24.6641 22.6777 24.6641C23.041 24.6641 23.375 24.5293 23.6797 24.2598C23.9961 23.9902 24.2773 23.6328 24.5234 23.1875C24.7812 22.7305 25.0039 22.2148 25.1914 21.6406C25.3789 21.0547 25.5254 20.4453 25.6309 19.8125V14.0117C25.6309 13.7539 25.6074 13.5488 25.5605 13.3965C25.5254 13.2441 25.4844 13.127 25.4375 13.0449C25.4023 12.9512 25.3613 12.8809 25.3145 12.834C25.2793 12.7754 25.2617 12.7109 25.2617 12.6406C25.2617 12.582 25.2969 12.5293 25.3672 12.4824C25.4375 12.4355 25.5312 12.3945 25.6484 12.3594C25.7656 12.3242 25.8887 12.3008 26.0176 12.2891C26.1582 12.2656 26.293 12.2539 26.4219 12.2539C27.0195 12.2539 27.4883 12.4121 27.8281 12.7285C28.1797 13.0332 28.3555 13.4023 28.3555 13.8359V22.9766C28.3555 23.0586 28.3613 23.1934 28.373 23.3809C28.3848 23.5566 28.4199 23.7383 28.4785 23.9258C28.5371 24.1133 28.6309 24.2773 28.7598 24.418C28.8887 24.5586 29.0703 24.6289 29.3047 24.6289C29.668 24.6289 29.9785 24.5 30.2363 24.2422C30.5059 23.9844 30.7344 23.6621 30.9219 23.2754C31.1211 22.8887 31.2793 22.4727 31.3965 22.0273C31.5254 21.5703 31.6309 21.1426 31.7129 20.7441C31.7832 20.3691 31.9004 20.0996 32.0645 19.9355C32.2285 19.7598 32.3984 19.6719 32.5742 19.6719C32.7148 19.6719 32.8613 19.7188 33.0137 19.8125C33.166 19.8945 33.3008 20.0059 33.418 20.1465C33.5469 20.2871 33.6465 20.4453 33.7168 20.6211C33.7988 20.7969 33.8398 20.9727 33.8398 21.1484C33.8398 21.1719 33.8398 21.2012 33.8398 21.2363C33.8398 21.2715 33.8281 21.3242 33.8047 21.3945C33.6406 21.9922 33.4238 22.6191 33.1543 23.2754C32.8965 23.9316 32.5625 24.5352 32.1523 25.0859C31.7422 25.6367 31.25 26.0938 30.6758 26.457C30.1016 26.8203 29.4277 27.002 28.6543 27.002ZM33.7695 8.68555C33.4766 8.68555 33.1953 8.62695 32.9258 8.50977C32.668 8.39258 32.4395 8.23438 32.2402 8.03516C32.0527 7.83594 31.9004 7.60742 31.7832 7.34961C31.666 7.08008 31.6074 6.79297 31.6074 6.48828C31.6074 6.17188 31.666 5.87891 31.7832 5.60938C31.9004 5.33984 32.0527 5.11133 32.2402 4.92383C32.4395 4.72461 32.668 4.57227 32.9258 4.4668C33.1953 4.34961 33.4766 4.29102 33.7695 4.29102C34.0859 4.29102 34.3789 4.34961 34.6484 4.4668C34.918 4.57227 35.1465 4.72461 35.334 4.92383C35.5332 5.11133 35.6855 5.33984 35.791 5.60938C35.9082 5.87891 35.9668 6.17188 35.9668 6.48828C35.9668 6.79297 35.9082 7.08008 35.791 7.34961C35.6855 7.60742 35.5332 7.83594 35.334 8.03516C35.1465 8.23438 34.918 8.39258 34.6484 8.50977C34.3789 8.62695 34.0859 8.68555 33.7695 8.68555ZM34.5957 22.9766C34.5957 23.0586 34.6016 23.1934 34.6133 23.3809C34.625 23.5566 34.6602 23.7383 34.7188 23.9258C34.7773 24.1133 34.8711 24.2773 35 24.418C35.1289 24.5586 35.3105 24.6289 35.5449 24.6289C35.8965 24.6289 36.2012 24.5 36.459 24.2422C36.7285 23.9844 36.957 23.6621 37.1445 23.2754C37.3438 22.8887 37.5078 22.4727 37.6367 22.0273C37.7656 21.5703 37.8711 21.1426 37.9531 20.7441C38.0234 20.3809 38.1289 20.1172 38.2695 19.9531C38.4219 19.7891 38.5801 19.7012 38.7441 19.6895C38.9199 19.666 39.0898 19.707 39.2539 19.8125C39.4297 19.918 39.582 20.0586 39.7109 20.2344C39.8516 20.3984 39.9512 20.5859 40.0098 20.7969C40.0801 21.0078 40.0918 21.207 40.0449 21.3945C39.8809 21.9922 39.6641 22.6191 39.3945 23.2754C39.1367 23.9316 38.8027 24.5352 38.3926 25.0859C37.9824 25.6367 37.4902 26.0938 36.916 26.457C36.3418 26.8203 35.668 27.002 34.8945 27.002C34.4141 27.002 33.9863 26.9082 33.6113 26.7207C33.2363 26.5449 32.9199 26.3047 32.6621 26C32.4043 25.6953 32.2051 25.3379 32.0645 24.9277C31.9355 24.5176 31.8711 24.084 31.8711 23.627V14.0117C31.8711 13.6719 31.8418 13.4258 31.7832 13.2734C31.7363 13.1211 31.7129 12.9805 31.7129 12.8516C31.7129 12.6758 31.8066 12.5352 31.9941 12.4297C32.1816 12.3125 32.4043 12.2539 32.6621 12.2539C33.2598 12.2539 33.7285 12.4121 34.0684 12.7285C34.4199 13.0332 34.5957 13.4023 34.5957 13.8359V22.9766ZM34.8418 9.07227C35.1113 9.0957 35.4102 9.11328 35.7383 9.125C36.0195 9.14844 36.3594 9.16602 36.7578 9.17773C37.1562 9.17773 37.6016 9.18359 38.0938 9.19531V3.0957C38.0938 2.83789 38.0703 2.63281 38.0234 2.48047C37.9883 2.32812 37.9473 2.21094 37.9004 2.12891C37.8652 2.03516 37.8242 1.96484 37.7773 1.91797C37.7422 1.85938 37.7246 1.80078 37.7246 1.74219C37.7246 1.67188 37.7598 1.61328 37.8301 1.56641C37.9004 1.51953 37.9941 1.47852 38.1113 1.44336C38.2285 1.4082 38.3516 1.38477 38.4805 1.37305C38.6211 1.34961 38.7559 1.33789 38.8848 1.33789C39.4824 1.33789 39.9512 1.49609 40.291 1.8125C40.6426 2.11719 40.8184 2.48633 40.8184 2.91992V9.23047C41.9199 9.23047 43.0801 9.21875 44.2988 9.19531C45.5293 9.17188 46.7598 9.13086 47.9902 9.07227C48.1543 8.89648 48.2832 8.83203 48.377 8.87891C48.4824 8.92578 48.5469 9.03711 48.5703 9.21289C48.6055 9.38867 48.6113 9.60547 48.5879 9.86328C48.5645 10.1211 48.5176 10.373 48.4473 10.6191C48.377 10.8535 48.2773 11.0586 48.1484 11.2344C48.0312 11.4102 47.8965 11.498 47.7441 11.498C46.3027 11.5332 45.0254 11.5566 43.9121 11.5684C42.8105 11.5684 41.7793 11.5684 40.8184 11.5684V22.9766C40.8184 23.5625 40.9297 23.9844 41.1523 24.2422C41.375 24.5 41.6738 24.6289 42.0488 24.6289C42.4121 24.6289 42.7227 24.5 42.9805 24.2422C43.25 23.9844 43.4785 23.6621 43.666 23.2754C43.8652 22.8887 44.0234 22.4727 44.1406 22.0273C44.2695 21.5703 44.375 21.1426 44.457 20.7441C44.5273 20.3691 44.6445 20.0996 44.8086 19.9355C44.9727 19.7598 45.1426 19.6719 45.3184 19.6719C45.459 19.6719 45.6055 19.7188 45.7578 19.8125C45.9102 19.8945 46.0449 20.0059 46.1621 20.1465C46.291 20.2871 46.3906 20.4453 46.4609 20.6211C46.543 20.7969 46.584 20.9727 46.584 21.1484C46.584 21.1719 46.584 21.2012 46.584 21.2363C46.584 21.2715 46.5723 21.3242 46.5488 21.3945C46.3965 21.9922 46.1855 22.6191 45.916 23.2754C45.6582 23.9316 45.3184 24.5352 44.8965 25.0859C44.4863 25.6367 43.9941 26.0938 43.4199 26.457C42.8457 26.8203 42.1719 27.002 41.3984 27.002C40.918 27.002 40.4727 26.9258 40.0625 26.7734C39.6641 26.6328 39.3184 26.3984 39.0254 26.0703C38.7324 25.7539 38.5039 25.3438 38.3398 24.8398C38.1758 24.3359 38.0938 23.7266 38.0938 23.0117V11.5684C37.6953 11.5684 37.3379 11.5684 37.0215 11.5684C36.7168 11.5566 36.459 11.5449 36.248 11.5332C36.002 11.5215 35.7852 11.5098 35.5977 11.498C35.3164 11.498 35.0703 11.375 34.8594 11.1289C34.6367 10.8711 34.4844 10.5898 34.4023 10.2852C34.3086 9.98047 34.2969 9.70508 34.3672 9.45898C34.4258 9.20117 34.584 9.07227 34.8418 9.07227ZM54.8105 24.6289C55.1738 24.6289 55.4844 24.5 55.7422 24.2422C56.0117 23.9844 56.2402 23.6621 56.4277 23.2754C56.627 22.8887 56.7852 22.4727 56.9023 22.0273C57.0312 21.5703 57.1367 21.1426 57.2188 20.7441C57.3008 20.3691 57.418 20.0996 57.5703 19.9355C57.7344 19.7598 57.9102 19.6719 58.0977 19.6719C58.2383 19.6719 58.3789 19.7188 58.5195 19.8125C58.6719 19.8945 58.8066 20.0059 58.9238 20.1465C59.0527 20.2871 59.1523 20.4453 59.2227 20.6211C59.3047 20.7969 59.3457 20.9727 59.3457 21.1484C59.3457 21.1719 59.3457 21.2012 59.3457 21.2363C59.3457 21.2715 59.334 21.3242 59.3105 21.3945C59.1582 21.9922 58.9473 22.6191 58.6777 23.2754C58.4199 23.9316 58.0859 24.5352 57.6758 25.0859C57.2656 25.6367 56.7676 26.0938 56.1816 26.457C55.6074 26.8203 54.9336 27.002 54.1602 27.002C53.5273 27.002 52.9766 26.8672 52.5078 26.5977C52.0391 26.3281 51.6699 25.9707 51.4004 25.5254C51.0371 25.9355 50.5977 26.2812 50.082 26.5625C49.5781 26.8555 48.9863 27.002 48.3066 27.002C47.6035 27.002 46.9824 26.8613 46.4434 26.5801C45.916 26.2988 45.4707 25.918 45.1074 25.4375C44.7441 24.9453 44.4688 24.3711 44.2812 23.7148C44.1055 23.0469 44.0176 22.332 44.0176 21.5703C44.0176 20.0703 44.2578 18.7227 44.7383 17.5273C45.2188 16.332 45.8574 15.3184 46.6543 14.4863C47.4512 13.6426 48.3594 12.998 49.3789 12.5527C50.4102 12.1074 51.4766 11.8848 52.5781 11.8848C53.0703 11.8848 53.4688 12.0195 53.7734 12.2891C54.0781 12.5586 54.2305 12.9277 54.2305 13.3965C54.2305 13.7012 54.1953 13.918 54.125 14.0469C54.0664 14.1641 53.9492 14.2227 53.7734 14.2227C53.6094 14.2227 53.4395 14.2109 53.2637 14.1875C53.0879 14.1641 52.9062 14.1523 52.7188 14.1523C52.0391 14.1523 51.3477 14.3047 50.6445 14.6094C49.9414 14.9023 49.3027 15.3594 48.7285 15.9805C48.166 16.5898 47.7031 17.3691 47.3398 18.3184C46.9766 19.2559 46.7949 20.375 46.7949 21.6758C46.7949 22.625 46.9766 23.3574 47.3398 23.873C47.7031 24.377 48.2012 24.6289 48.834 24.6289C49.3262 24.6289 49.7363 24.4473 50.0645 24.084C50.3926 23.709 50.6562 23.2695 50.8555 22.7656V17.2109C50.8555 17.0352 50.8438 16.8887 50.8203 16.7715C50.8086 16.6543 50.791 16.5547 50.7676 16.4727C50.7559 16.3906 50.7441 16.3203 50.7324 16.2617C50.7207 16.1914 50.7148 16.127 50.7148 16.0684C50.7148 15.8809 50.8027 15.7344 50.9785 15.6289C51.166 15.5117 51.3887 15.4531 51.6465 15.4531C52.2441 15.4531 52.7188 15.6113 53.0703 15.9277C53.4219 16.2324 53.5977 16.6016 53.5977 17.0352V22.9766C53.5977 23.1758 53.6211 23.375 53.668 23.5742C53.7148 23.7617 53.7852 23.9375 53.8789 24.1016C53.9727 24.2539 54.0957 24.3828 54.248 24.4883C54.4121 24.582 54.5996 24.6289 54.8105 24.6289ZM65.2344 27.002C64.8125 27.002 64.3789 26.9375 63.9336 26.8086C63.5 26.6797 63.1016 26.457 62.7383 26.1406C62.3867 25.8242 62.0938 25.4082 61.8594 24.8926C61.6367 24.3652 61.5254 23.7031 61.5254 22.9062C61.5254 21.7461 61.6777 20.5215 61.9824 19.2324C62.2988 17.9316 62.75 16.502 63.3359 14.9434H60.5938H60.1895C60.1777 15.2949 60.1543 15.7402 60.1191 16.2793C60.0957 16.8184 60.0488 17.3926 59.9785 18.002C59.9082 18.6113 59.8145 19.2266 59.6973 19.8477C59.5918 20.4688 59.457 21.043 59.293 21.5703C59.1758 21.9453 58.9883 22.1621 58.7305 22.2207C58.4844 22.2793 58.2383 22.2383 57.9922 22.0977C57.7461 21.9453 57.5469 21.7285 57.3945 21.4473C57.2422 21.166 57.207 20.873 57.2891 20.5684C57.3828 20.2051 57.4648 19.7656 57.5352 19.25C57.6055 18.7227 57.6582 18.1719 57.6934 17.5977C57.7402 17.0117 57.7754 16.4316 57.7988 15.8574C57.8223 15.2715 57.8398 14.75 57.8516 14.293C57.4062 14.0469 57.0371 13.7363 56.7441 13.3613C56.4512 12.9746 56.3047 12.5176 56.3047 11.9902C56.3047 11.7441 56.3516 11.5215 56.4453 11.3223C56.5508 11.1113 56.6855 10.9355 56.8496 10.7949C57.0137 10.6426 57.207 10.5312 57.4297 10.4609C57.6523 10.3789 57.8809 10.3379 58.1152 10.3379C58.3262 10.3379 58.543 10.3672 58.7656 10.4258C59 10.4844 59.2168 10.5898 59.416 10.7422C59.627 10.8945 59.8145 11.0938 59.9785 11.3398C60.1426 11.5859 60.2773 11.8906 60.3828 12.2539C60.6758 12.2891 60.9219 12.3184 61.1211 12.3418C61.332 12.3535 61.5078 12.3652 61.6484 12.377C61.7891 12.3887 61.9062 12.3945 62 12.3945C62.0938 12.3945 62.1875 12.3945 62.2812 12.3945H64.1621C64.2676 12.3945 64.4199 12.459 64.6191 12.5879C64.8301 12.7168 65.0352 12.8867 65.2344 13.0977C65.4336 13.2969 65.5977 13.5137 65.7266 13.748C65.8672 13.9824 65.9199 14.2051 65.8848 14.416C65.8848 14.4863 65.8438 14.6562 65.7617 14.9258C65.6797 15.1953 65.5801 15.5352 65.4629 15.9453C65.3457 16.3555 65.2168 16.8301 65.0762 17.3691C64.9355 17.8965 64.8066 18.4531 64.6895 19.0391C64.5723 19.625 64.4727 20.2344 64.3906 20.8672C64.3086 21.4883 64.2676 22.0977 64.2676 22.6953C64.2676 22.9414 64.2969 23.1816 64.3555 23.416C64.4141 23.6504 64.502 23.8613 64.6191 24.0488C64.7363 24.2246 64.8828 24.3652 65.0586 24.4707C65.2461 24.5762 65.4629 24.6289 65.709 24.6289C66.1191 24.6289 66.4707 24.5 66.7637 24.2422C67.0566 23.9844 67.3027 23.6621 67.502 23.2754C67.7012 22.8887 67.8594 22.4727 67.9766 22.0273C68.1055 21.5703 68.2109 21.1426 68.293 20.7441C68.3633 20.3691 68.4805 20.0996 68.6445 19.9355C68.8086 19.7598 68.9785 19.6719 69.1543 19.6719C69.2949 19.6719 69.4414 19.7188 69.5938 19.8125C69.7461 19.8945 69.8809 20.0059 69.998 20.1465C70.127 20.2871 70.2266 20.4453 70.2969 20.6211C70.3789 20.7969 70.4199 20.9727 70.4199 21.1484C70.4199 21.207 70.4141 21.2539 70.4023 21.2891C70.3906 21.3242 70.3848 21.3594 70.3848 21.3945C70.2207 21.9922 70.0039 22.6191 69.7344 23.2754C69.4766 23.9316 69.1426 24.5352 68.7324 25.0859C68.3223 25.6367 67.8301 26.0938 67.2559 26.457C66.6816 26.8203 66.0078 27.002 65.2344 27.002ZM82.4258 27.3008C81.6641 27.3008 81.0312 27.2129 80.5273 27.0371C80.0234 26.873 79.625 26.6855 79.332 26.4746C79.0391 26.2637 78.834 26.0645 78.7168 25.877C78.5996 25.6777 78.541 25.5488 78.541 25.4902C78.541 25.2793 78.5879 25.0566 78.6816 24.8223C78.7754 24.5762 78.8926 24.3535 79.0332 24.1543C79.1738 23.9434 79.3262 23.7676 79.4902 23.627C79.6543 23.4863 79.8008 23.416 79.9297 23.416C80.0938 23.416 80.2285 23.5215 80.334 23.7324C80.3574 23.7559 80.416 23.8145 80.5098 23.9082C80.6035 24.002 80.7324 24.1016 80.8965 24.207C81.0723 24.3008 81.2832 24.3887 81.5293 24.4707C81.7871 24.5527 82.0859 24.5938 82.4258 24.5938C83.1641 24.5938 83.7676 24.3711 84.2363 23.9258C84.7051 23.4688 84.9395 22.8535 84.9395 22.0801C84.9395 21.541 84.8105 21.0605 84.5527 20.6387C84.3066 20.2168 83.9785 19.8242 83.5684 19.4609C83.1582 19.0977 82.6895 18.7461 82.1621 18.4062C81.6348 18.0547 81.0957 17.6914 80.5449 17.3164C79.9941 16.9414 79.4551 16.5371 78.9277 16.1035C78.4004 15.6699 77.9316 15.1719 77.5215 14.6094C77.1113 14.0469 76.7773 13.4141 76.5195 12.7109C76.2734 11.9961 76.1504 11.1816 76.1504 10.2676C76.1504 9.48242 76.2852 8.69141 76.5547 7.89453C76.8242 7.09766 77.1934 6.3418 77.6621 5.62695C78.1426 4.90039 78.7051 4.22656 79.3496 3.60547C79.9941 2.97266 80.6914 2.42773 81.4414 1.9707C82.1914 1.50195 82.9707 1.13867 83.7793 0.880859C84.5996 0.611328 85.4199 0.476562 86.2402 0.476562C86.9434 0.476562 87.5762 0.587891 88.1387 0.810547C88.7012 1.0332 89.1758 1.34961 89.5625 1.75977C89.9492 2.1582 90.248 2.64453 90.459 3.21875C90.6699 3.78125 90.7754 4.41406 90.7754 5.11719C90.7754 5.78516 90.6582 6.44141 90.4238 7.08594C90.1895 7.73047 89.8789 8.33984 89.4922 8.91406C89.1055 9.48828 88.666 10.0215 88.1738 10.5137C87.6934 10.9941 87.1953 11.416 86.6797 11.7793C86.1758 12.1309 85.6836 12.4062 85.2031 12.6055C84.7227 12.8047 84.3008 12.9043 83.9375 12.9043C83.6211 12.9043 83.334 12.834 83.0762 12.6934C82.8301 12.541 82.6191 12.3594 82.4434 12.1484C82.2793 11.9258 82.1504 11.6973 82.0566 11.4629C81.9629 11.2168 81.916 11 81.916 10.8125C81.916 10.6602 81.9336 10.5605 81.9688 10.5137C82.0156 10.4668 82.0742 10.4492 82.1445 10.4609C82.2266 10.4609 82.3262 10.4785 82.4434 10.5137C82.5605 10.5371 82.6953 10.5488 82.8477 10.5488C83.3398 10.5488 83.8848 10.3789 84.4824 10.0391C85.0801 9.69922 85.6426 9.26562 86.1699 8.73828C86.6973 8.21094 87.1367 7.63086 87.4883 6.99805C87.8516 6.36523 88.0332 5.75 88.0332 5.15234C88.0332 4.54297 87.8809 4.0625 87.5762 3.71094C87.2832 3.35938 86.7793 3.18359 86.0645 3.18359C85.6191 3.18359 85.1328 3.27148 84.6055 3.44727C84.0898 3.61133 83.5684 3.8457 83.041 4.15039C82.5137 4.45508 82.0039 4.82422 81.5117 5.25781C81.0195 5.69141 80.5859 6.17188 80.2109 6.69922C79.8359 7.21484 79.5312 7.77734 79.2969 8.38672C79.0742 8.98438 78.9629 9.61133 78.9629 10.2676C78.9629 10.959 79.0859 11.5801 79.332 12.1309C79.5898 12.6699 79.9238 13.1621 80.334 13.6074C80.7559 14.0527 81.2305 14.4629 81.7578 14.8379C82.2852 15.2129 82.8242 15.5879 83.375 15.9629C83.9258 16.3262 84.4648 16.707 84.9922 17.1055C85.5195 17.4922 85.9883 17.9258 86.3984 18.4062C86.8203 18.875 87.1543 19.4023 87.4004 19.9883C87.6582 20.5625 87.7871 21.2246 87.7871 21.9746C87.7871 22.7012 87.6465 23.3926 87.3652 24.0488C87.0957 24.6934 86.7207 25.2559 86.2402 25.7363C85.7598 26.2168 85.1914 26.5977 84.5352 26.8789C83.8789 27.1602 83.1758 27.3008 82.4258 27.3008ZM100.865 27.002C100.455 27.002 100.08 26.9375 99.7402 26.8086C99.4121 26.6797 99.1191 26.498 98.8613 26.2637C98.6152 26.041 98.4102 25.7773 98.2461 25.4727C98.082 25.1562 97.9707 24.8164 97.9121 24.4531C97.4785 25.2148 96.9688 25.8359 96.3828 26.3164C95.7969 26.7969 95.1055 27.0371 94.3086 27.0371C93.7109 27.0371 93.1719 26.9141 92.6914 26.668C92.2227 26.4219 91.8242 26.0762 91.4961 25.6309C91.168 25.1738 90.916 24.6289 90.7402 23.9961C90.5762 23.3516 90.4941 22.6367 90.4941 21.8516C90.4941 20.9023 90.5586 19.9473 90.6875 18.9863C90.8281 18.0254 90.9805 17.1582 91.1445 16.3848C91.332 15.4824 91.5488 14.6094 91.7949 13.7656C91.8535 13.6133 91.8945 13.4609 91.918 13.3086C91.9531 13.1445 92.0234 12.998 92.1289 12.8691C92.2344 12.7402 92.3984 12.6348 92.6211 12.5527C92.8555 12.4707 93.2129 12.4297 93.6934 12.4297C94.1387 12.4297 94.4258 12.5117 94.5547 12.6758C94.6836 12.8281 94.7305 13.0098 94.6953 13.2207C94.6719 13.4316 94.6016 13.6484 94.4844 13.8711C94.3789 14.0938 94.3086 14.2754 94.2734 14.416C94.1094 15.084 93.9629 15.6934 93.834 16.2441C93.7051 16.7949 93.5938 17.3516 93.5 17.9141C93.418 18.4648 93.3535 19.0449 93.3066 19.6543C93.2598 20.252 93.2363 20.9258 93.2363 21.6758C93.2363 22.6602 93.377 23.4043 93.6582 23.9082C93.9512 24.4121 94.3613 24.6641 94.8887 24.6641C95.252 24.6641 95.5859 24.5293 95.8906 24.2598C96.207 23.9902 96.4883 23.6328 96.7344 23.1875C96.9922 22.7305 97.2148 22.2148 97.4023 21.6406C97.5898 21.0547 97.7363 20.4453 97.8418 19.8125V14.0117C97.8418 13.7539 97.8184 13.5488 97.7715 13.3965C97.7363 13.2441 97.6953 13.127 97.6484 13.0449C97.6133 12.9512 97.5723 12.8809 97.5254 12.834C97.4902 12.7754 97.4727 12.7109 97.4727 12.6406C97.4727 12.582 97.5078 12.5293 97.5781 12.4824C97.6484 12.4355 97.7422 12.3945 97.8594 12.3594C97.9766 12.3242 98.0996 12.3008 98.2285 12.2891C98.3691 12.2656 98.5039 12.2539 98.6328 12.2539C99.2305 12.2539 99.6992 12.4121 100.039 12.7285C100.391 13.0332 100.566 13.4023 100.566 13.8359V22.9766C100.566 23.0586 100.572 23.1934 100.584 23.3809C100.596 23.5566 100.631 23.7383 100.689 23.9258C100.748 24.1133 100.842 24.2773 100.971 24.418C101.1 24.5586 101.281 24.6289 101.516 24.6289C101.879 24.6289 102.189 24.5 102.447 24.2422C102.717 23.9844 102.945 23.6621 103.133 23.2754C103.332 22.8887 103.49 22.4727 103.607 22.0273C103.736 21.5703 103.842 21.1426 103.924 20.7441C103.994 20.3691 104.111 20.0996 104.275 19.9355C104.439 19.7598 104.609 19.6719 104.785 19.6719C104.926 19.6719 105.072 19.7188 105.225 19.8125C105.377 19.8945 105.512 20.0059 105.629 20.1465C105.758 20.2871 105.857 20.4453 105.928 20.6211C106.01 20.7969 106.051 20.9727 106.051 21.1484C106.051 21.1719 106.051 21.2012 106.051 21.2363C106.051 21.2715 106.039 21.3242 106.016 21.3945C105.852 21.9922 105.635 22.6191 105.365 23.2754C105.107 23.9316 104.773 24.5352 104.363 25.0859C103.953 25.6367 103.461 26.0938 102.887 26.457C102.312 26.8203 101.639 27.002 100.865 27.002ZM108.547 27.3711C108.102 27.3711 107.738 27.3184 107.457 27.2129C107.176 27.1191 106.959 26.9902 106.807 26.8262V38.5332C106.807 38.8613 106.742 39.125 106.613 39.3242C106.484 39.5352 106.32 39.6992 106.121 39.8164C105.934 39.9336 105.729 40.0098 105.506 40.0449C105.283 40.0918 105.084 40.1152 104.908 40.1152C104.545 40.1152 104.316 40.0215 104.223 39.834C104.129 39.6465 104.082 39.418 104.082 39.1484V14.0117C104.082 13.7539 104.059 13.5488 104.012 13.3965C103.977 13.2441 103.936 13.127 103.889 13.0449C103.854 12.9512 103.812 12.8809 103.766 12.834C103.73 12.7754 103.713 12.7109 103.713 12.6406C103.713 12.582 103.748 12.5293 103.818 12.4824C103.889 12.4355 103.982 12.3945 104.1 12.3594C104.217 12.3242 104.34 12.3008 104.469 12.2891C104.609 12.2656 104.744 12.2539 104.873 12.2539C105.447 12.2539 105.904 12.4121 106.244 12.7285C106.596 13.0332 106.783 13.3906 106.807 13.8008C107.182 13.25 107.633 12.793 108.16 12.4297C108.688 12.0664 109.332 11.8848 110.094 11.8848C110.797 11.8848 111.406 12.0488 111.922 12.377C112.449 12.7051 112.883 13.1562 113.223 13.7305C113.574 14.293 113.832 14.9609 113.996 15.7344C114.172 16.5078 114.26 17.3398 114.26 18.2305C114.26 19.2383 114.172 20.2051 113.996 21.1309C113.82 22.0449 113.598 22.8301 113.328 23.4863C113.926 23.4512 114.418 23.3691 114.805 23.2402C115.191 23.1113 115.514 22.9355 115.771 22.7129C116.041 22.4785 116.27 22.1973 116.457 21.8691C116.656 21.541 116.861 21.166 117.072 20.7441C117.236 20.4043 117.371 20.1582 117.477 20.0059C117.594 19.8535 117.734 19.7773 117.898 19.7773C118.051 19.7773 118.203 19.8242 118.355 19.918C118.52 20.0117 118.66 20.1289 118.777 20.2695C118.906 20.4102 119.006 20.5625 119.076 20.7266C119.158 20.8789 119.199 21.0195 119.199 21.1484C119.199 21.5586 119.059 22.0273 118.777 22.5547C118.496 23.082 118.062 23.5801 117.477 24.0488C116.902 24.5176 116.17 24.916 115.279 25.2441C114.4 25.5605 113.363 25.7188 112.168 25.7188C111.676 26.2461 111.107 26.6504 110.463 26.9316C109.818 27.2246 109.18 27.3711 108.547 27.3711ZM109.18 14.293C108.922 14.293 108.67 14.3691 108.424 14.5215C108.189 14.6738 107.967 14.8848 107.756 15.1543C107.545 15.4121 107.357 15.7285 107.193 16.1035C107.041 16.4785 106.912 16.8828 106.807 17.3164V25.1035C107.064 24.7285 107.486 24.4414 108.072 24.2422C108.658 24.043 109.367 23.9082 110.199 23.8379C110.41 23.5215 110.592 23.1465 110.744 22.7129C110.908 22.2676 111.043 21.8105 111.148 21.3418C111.254 20.873 111.33 20.416 111.377 19.9707C111.436 19.5254 111.465 19.1328 111.465 18.793C111.465 17.9727 111.4 17.2754 111.271 16.7012C111.154 16.127 110.99 15.6641 110.779 15.3125C110.568 14.9492 110.322 14.6914 110.041 14.5391C109.771 14.375 109.484 14.293 109.18 14.293ZM125.369 15.5234C125.369 16.1914 125.252 16.877 125.018 17.5801C124.795 18.2832 124.455 18.9512 123.998 19.584C123.553 20.2051 122.996 20.7676 122.328 21.2715C121.672 21.7637 120.91 22.1387 120.043 22.3965C120.16 22.7012 120.312 22.9941 120.5 23.2754C120.699 23.5449 120.934 23.7793 121.203 23.9785C121.473 24.1777 121.783 24.3359 122.135 24.4531C122.498 24.5703 122.914 24.6289 123.383 24.6289C124.086 24.6289 124.689 24.5 125.193 24.2422C125.697 23.9727 126.119 23.6211 126.459 23.1875C126.811 22.7539 127.092 22.2676 127.303 21.7285C127.514 21.1895 127.672 20.6445 127.777 20.0938C127.859 19.6953 128.023 19.4316 128.27 19.3027C128.527 19.1621 128.785 19.127 129.043 19.1973C129.312 19.2676 129.541 19.4199 129.729 19.6543C129.928 19.877 130.01 20.1465 129.975 20.4629C129.928 20.8262 129.846 21.2422 129.729 21.7109C129.623 22.1797 129.459 22.6543 129.236 23.1348C129.014 23.6152 128.727 24.0898 128.375 24.5586C128.035 25.0156 127.613 25.4258 127.109 25.7891C126.605 26.1523 126.014 26.4453 125.334 26.668C124.654 26.8906 123.875 27.002 122.996 27.002C122.176 27.002 121.379 26.8379 120.605 26.5098C119.844 26.1934 119.164 25.7363 118.566 25.1387C117.98 24.5293 117.506 23.7852 117.143 22.9062C116.791 22.0156 116.615 21.0078 116.615 19.8828C116.615 18.7461 116.773 17.6914 117.09 16.7188C117.406 15.7344 117.822 14.8848 118.338 14.1699C118.854 13.4551 119.439 12.8984 120.096 12.5C120.752 12.0898 121.426 11.8848 122.117 11.8848C122.621 11.8848 123.072 11.9727 123.471 12.1484C123.881 12.3242 124.227 12.5762 124.508 12.9043C124.789 13.2207 125 13.6016 125.141 14.0469C125.293 14.4922 125.369 14.9844 125.369 15.5234ZM119.568 19.7773C119.568 19.8828 119.574 19.9883 119.586 20.0938C119.598 20.1992 119.604 20.3105 119.604 20.4277C120.049 20.2168 120.453 19.9473 120.816 19.6191C121.18 19.291 121.49 18.916 121.748 18.4941C122.006 18.0723 122.205 17.6152 122.346 17.123C122.486 16.6191 122.557 16.0977 122.557 15.5586C122.557 15.1602 122.486 14.8496 122.346 14.627C122.217 14.4043 122.035 14.293 121.801 14.293C121.508 14.293 121.244 14.3926 121.01 14.5918C120.787 14.791 120.588 15.0547 120.412 15.3828C120.248 15.6992 120.107 16.0625 119.99 16.4727C119.885 16.8711 119.797 17.2754 119.727 17.6855C119.656 18.0957 119.609 18.4883 119.586 18.8633C119.562 19.2266 119.557 19.5312 119.568 19.7773ZM135.617 27.002C135.195 27.002 134.762 26.9375 134.316 26.8086C133.883 26.6797 133.484 26.457 133.121 26.1406C132.77 25.8242 132.477 25.4082 132.242 24.8926C132.02 24.3652 131.908 23.7031 131.908 22.9062C131.908 21.7461 132.061 20.5215 132.365 19.2324C132.682 17.9316 133.133 16.502 133.719 14.9434H130.977H130.572C130.561 15.2949 130.537 15.7402 130.502 16.2793C130.479 16.8184 130.432 17.3926 130.361 18.002C130.291 18.6113 130.197 19.2266 130.08 19.8477C129.975 20.4688 129.84 21.043 129.676 21.5703C129.559 21.9453 129.371 22.1621 129.113 22.2207C128.867 22.2793 128.621 22.2383 128.375 22.0977C128.129 21.9453 127.93 21.7285 127.777 21.4473C127.625 21.166 127.59 20.873 127.672 20.5684C127.766 20.2051 127.848 19.7656 127.918 19.25C127.988 18.7227 128.041 18.1719 128.076 17.5977C128.123 17.0117 128.158 16.4316 128.182 15.8574C128.205 15.2715 128.223 14.75 128.234 14.293C127.789 14.0469 127.42 13.7363 127.127 13.3613C126.834 12.9746 126.688 12.5176 126.688 11.9902C126.688 11.7441 126.734 11.5215 126.828 11.3223C126.934 11.1113 127.068 10.9355 127.232 10.7949C127.396 10.6426 127.59 10.5312 127.812 10.4609C128.035 10.3789 128.264 10.3379 128.498 10.3379C128.709 10.3379 128.926 10.3672 129.148 10.4258C129.383 10.4844 129.6 10.5898 129.799 10.7422C130.01 10.8945 130.197 11.0938 130.361 11.3398C130.525 11.5859 130.66 11.8906 130.766 12.2539C131.059 12.2891 131.305 12.3184 131.504 12.3418C131.715 12.3535 131.891 12.3652 132.031 12.377C132.172 12.3887 132.289 12.3945 132.383 12.3945C132.477 12.3945 132.57 12.3945 132.664 12.3945H134.545C134.65 12.3945 134.803 12.459 135.002 12.5879C135.213 12.7168 135.418 12.8867 135.617 13.0977C135.816 13.2969 135.98 13.5137 136.109 13.748C136.25 13.9824 136.303 14.2051 136.268 14.416C136.268 14.4863 136.227 14.6562 136.145 14.9258C136.062 15.1953 135.963 15.5352 135.846 15.9453C135.729 16.3555 135.6 16.8301 135.459 17.3691C135.318 17.8965 135.189 18.4531 135.072 19.0391C134.955 19.625 134.855 20.2344 134.773 20.8672C134.691 21.4883 134.65 22.0977 134.65 22.6953C134.65 22.9414 134.68 23.1816 134.738 23.416C134.797 23.6504 134.885 23.8613 135.002 24.0488C135.119 24.2246 135.266 24.3652 135.441 24.4707C135.629 24.5762 135.846 24.6289 136.092 24.6289C136.502 24.6289 136.854 24.5 137.146 24.2422C137.439 23.9844 137.686 23.6621 137.885 23.2754C138.084 22.8887 138.242 22.4727 138.359 22.0273C138.488 21.5703 138.594 21.1426 138.676 20.7441C138.746 20.3691 138.863 20.0996 139.027 19.9355C139.191 19.7598 139.361 19.6719 139.537 19.6719C139.678 19.6719 139.824 19.7188 139.977 19.8125C140.129 19.8945 140.264 20.0059 140.381 20.1465C140.51 20.2871 140.609 20.4453 140.68 20.6211C140.762 20.7969 140.803 20.9727 140.803 21.1484C140.803 21.207 140.797 21.2539 140.785 21.2891C140.773 21.3242 140.768 21.3594 140.768 21.3945C140.604 21.9922 140.387 22.6191 140.117 23.2754C139.859 23.9316 139.525 24.5352 139.115 25.0859C138.705 25.6367 138.213 26.0938 137.639 26.457C137.064 26.8203 136.391 27.002 135.617 27.002ZM138.852 3.81641C138.852 3.55859 138.828 3.35352 138.781 3.20117C138.746 3.04883 138.705 2.93164 138.658 2.84961C138.623 2.75586 138.582 2.68555 138.535 2.63867C138.5 2.58008 138.482 2.52148 138.482 2.46289C138.482 2.39258 138.518 2.33398 138.588 2.28711C138.658 2.24023 138.752 2.19922 138.869 2.16406C138.986 2.12891 139.109 2.10547 139.238 2.09375C139.379 2.07031 139.514 2.05859 139.643 2.05859C140.24 2.05859 140.709 2.2168 141.049 2.5332C141.4 2.83789 141.576 3.20703 141.576 3.64062V15.4531C141.822 14.9492 142.086 14.4805 142.367 14.0469C142.66 13.6133 142.971 13.2383 143.299 12.9219C143.639 12.5938 143.996 12.3418 144.371 12.166C144.758 11.9785 145.174 11.8848 145.619 11.8848C146.217 11.8848 146.709 11.9961 147.096 12.2188C147.482 12.4414 147.787 12.7285 148.01 13.0801C148.232 13.4316 148.385 13.8242 148.467 14.2578C148.561 14.6914 148.607 15.1133 148.607 15.5234V22.9766C148.607 23.0586 148.613 23.1934 148.625 23.3809C148.637 23.5566 148.672 23.7383 148.73 23.9258C148.789 24.1133 148.877 24.2773 148.994 24.418C149.123 24.5586 149.305 24.6289 149.539 24.6289C149.902 24.6289 150.213 24.5 150.471 24.2422C150.74 23.9844 150.969 23.6621 151.156 23.2754C151.355 22.8887 151.514 22.4727 151.631 22.0273C151.76 21.5703 151.865 21.1426 151.947 20.7441C152.018 20.3809 152.123 20.1172 152.264 19.9531C152.416 19.7891 152.574 19.7012 152.738 19.6895C152.914 19.666 153.09 19.707 153.266 19.8125C153.441 19.918 153.594 20.0586 153.723 20.2344C153.852 20.3984 153.945 20.5859 154.004 20.7969C154.074 21.0078 154.086 21.207 154.039 21.3945C153.875 21.9922 153.658 22.6191 153.389 23.2754C153.131 23.9316 152.797 24.5352 152.387 25.0859C151.977 25.6367 151.484 26.0938 150.91 26.457C150.336 26.8203 149.662 27.002 148.889 27.002C148.408 27.002 147.98 26.9082 147.605 26.7207C147.242 26.5449 146.926 26.3047 146.656 26C146.398 25.6953 146.199 25.3379 146.059 24.9277C145.93 24.5176 145.865 24.084 145.865 23.627V16.3145C145.865 16.0332 145.859 15.7695 145.848 15.5234C145.836 15.2773 145.801 15.0605 145.742 14.873C145.695 14.6855 145.619 14.5391 145.514 14.4336C145.42 14.3164 145.285 14.2578 145.109 14.2578C144.852 14.2578 144.535 14.4336 144.16 14.7852C143.785 15.1367 143.416 15.5938 143.053 16.1562C142.689 16.7188 142.367 17.3574 142.086 18.0723C141.816 18.7754 141.646 19.4844 141.576 20.1992V25.4551C141.576 25.6309 141.57 25.8125 141.559 26C141.559 26.1758 141.523 26.334 141.453 26.4746C141.395 26.627 141.295 26.75 141.154 26.8438C141.025 26.9492 140.832 27.002 140.574 27.002C140.398 27.002 140.205 26.9785 139.994 26.9316C139.795 26.8965 139.607 26.8203 139.432 26.7031C139.268 26.5977 139.127 26.4395 139.01 26.2285C138.904 26.0293 138.852 25.7598 138.852 25.4199V3.81641ZM160.385 15.5234C160.385 16.1914 160.268 16.877 160.033 17.5801C159.811 18.2832 159.471 18.9512 159.014 19.584C158.568 20.2051 158.012 20.7676 157.344 21.2715C156.688 21.7637 155.926 22.1387 155.059 22.3965C155.176 22.7012 155.328 22.9941 155.516 23.2754C155.715 23.5449 155.949 23.7793 156.219 23.9785C156.488 24.1777 156.799 24.3359 157.15 24.4531C157.514 24.5703 157.93 24.6289 158.398 24.6289C159.102 24.6289 159.705 24.5 160.209 24.2422C160.713 23.9727 161.135 23.6211 161.475 23.1875C161.826 22.7539 162.107 22.2676 162.318 21.7285C162.529 21.1895 162.688 20.6445 162.793 20.0938C162.875 19.6953 163.039 19.4316 163.285 19.3027C163.543 19.1621 163.801 19.127 164.059 19.1973C164.328 19.2676 164.557 19.4199 164.744 19.6543C164.943 19.877 165.025 20.1465 164.99 20.4629C164.943 20.8262 164.861 21.2422 164.744 21.7109C164.639 22.1797 164.475 22.6543 164.252 23.1348C164.029 23.6152 163.742 24.0898 163.391 24.5586C163.051 25.0156 162.629 25.4258 162.125 25.7891C161.621 26.1523 161.029 26.4453 160.35 26.668C159.67 26.8906 158.891 27.002 158.012 27.002C157.191 27.002 156.395 26.8379 155.621 26.5098C154.859 26.1934 154.18 25.7363 153.582 25.1387C152.996 24.5293 152.521 23.7852 152.158 22.9062C151.807 22.0156 151.631 21.0078 151.631 19.8828C151.631 18.7461 151.789 17.6914 152.105 16.7188C152.422 15.7344 152.838 14.8848 153.354 14.1699C153.869 13.4551 154.455 12.8984 155.111 12.5C155.768 12.0898 156.441 11.8848 157.133 11.8848C157.637 11.8848 158.088 11.9727 158.486 12.1484C158.896 12.3242 159.242 12.5762 159.523 12.9043C159.805 13.2207 160.016 13.6016 160.156 14.0469C160.309 14.4922 160.385 14.9844 160.385 15.5234ZM154.584 19.7773C154.584 19.8828 154.59 19.9883 154.602 20.0938C154.613 20.1992 154.619 20.3105 154.619 20.4277C155.064 20.2168 155.469 19.9473 155.832 19.6191C156.195 19.291 156.506 18.916 156.764 18.4941C157.021 18.0723 157.221 17.6152 157.361 17.123C157.502 16.6191 157.572 16.0977 157.572 15.5586C157.572 15.1602 157.502 14.8496 157.361 14.627C157.232 14.4043 157.051 14.293 156.816 14.293C156.523 14.293 156.26 14.3926 156.025 14.5918C155.803 14.791 155.604 15.0547 155.428 15.3828C155.264 15.6992 155.123 16.0625 155.006 16.4727C154.9 16.8711 154.812 17.2754 154.742 17.6855C154.672 18.0957 154.625 18.4883 154.602 18.8633C154.578 19.2266 154.572 19.5312 154.584 19.7773ZM170.633 27.002C170.211 27.002 169.777 26.9375 169.332 26.8086C168.898 26.6797 168.5 26.457 168.137 26.1406C167.785 25.8242 167.492 25.4082 167.258 24.8926C167.035 24.3652 166.924 23.7031 166.924 22.9062C166.924 21.7461 167.076 20.5215 167.381 19.2324C167.697 17.9316 168.148 16.502 168.734 14.9434H165.992H165.588C165.576 15.2949 165.553 15.7402 165.518 16.2793C165.494 16.8184 165.447 17.3926 165.377 18.002C165.307 18.6113 165.213 19.2266 165.096 19.8477C164.99 20.4688 164.855 21.043 164.691 21.5703C164.574 21.9453 164.387 22.1621 164.129 22.2207C163.883 22.2793 163.637 22.2383 163.391 22.0977C163.145 21.9453 162.945 21.7285 162.793 21.4473C162.641 21.166 162.605 20.873 162.688 20.5684C162.781 20.2051 162.863 19.7656 162.934 19.25C163.004 18.7227 163.057 18.1719 163.092 17.5977C163.139 17.0117 163.174 16.4316 163.197 15.8574C163.221 15.2715 163.238 14.75 163.25 14.293C162.805 14.0469 162.436 13.7363 162.143 13.3613C161.85 12.9746 161.703 12.5176 161.703 11.9902C161.703 11.7441 161.75 11.5215 161.844 11.3223C161.949 11.1113 162.084 10.9355 162.248 10.7949C162.412 10.6426 162.605 10.5312 162.828 10.4609C163.051 10.3789 163.279 10.3379 163.514 10.3379C163.725 10.3379 163.941 10.3672 164.164 10.4258C164.398 10.4844 164.615 10.5898 164.814 10.7422C165.025 10.8945 165.213 11.0938 165.377 11.3398C165.541 11.5859 165.676 11.8906 165.781 12.2539C166.074 12.2891 166.32 12.3184 166.52 12.3418C166.73 12.3535 166.906 12.3652 167.047 12.377C167.188 12.3887 167.305 12.3945 167.398 12.3945C167.492 12.3945 167.586 12.3945 167.68 12.3945H169.561C169.666 12.3945 169.818 12.459 170.018 12.5879C170.229 12.7168 170.434 12.8867 170.633 13.0977C170.832 13.2969 170.996 13.5137 171.125 13.748C171.266 13.9824 171.318 14.2051 171.283 14.416C171.283 14.4863 171.242 14.6562 171.16 14.9258C171.078 15.1953 170.979 15.5352 170.861 15.9453C170.744 16.3555 170.615 16.8301 170.475 17.3691C170.334 17.8965 170.205 18.4531 170.088 19.0391C169.971 19.625 169.871 20.2344 169.789 20.8672C169.707 21.4883 169.666 22.0977 169.666 22.6953C169.666 22.9414 169.695 23.1816 169.754 23.416C169.812 23.6504 169.9 23.8613 170.018 24.0488C170.135 24.2246 170.281 24.3652 170.457 24.4707C170.645 24.5762 170.861 24.6289 171.107 24.6289C171.518 24.6289 171.869 24.5 172.162 24.2422C172.455 23.9844 172.701 23.6621 172.9 23.2754C173.1 22.8887 173.258 22.4727 173.375 22.0273C173.504 21.5703 173.609 21.1426 173.691 20.7441C173.762 20.3691 173.879 20.0996 174.043 19.9355C174.207 19.7598 174.377 19.6719 174.553 19.6719C174.693 19.6719 174.84 19.7188 174.992 19.8125C175.145 19.8945 175.279 20.0059 175.396 20.1465C175.525 20.2871 175.625 20.4453 175.695 20.6211C175.777 20.7969 175.818 20.9727 175.818 21.1484C175.818 21.207 175.812 21.2539 175.801 21.2891C175.789 21.3242 175.783 21.3594 175.783 21.3945C175.619 21.9922 175.402 22.6191 175.133 23.2754C174.875 23.9316 174.541 24.5352 174.131 25.0859C173.721 25.6367 173.229 26.0938 172.654 26.457C172.08 26.8203 171.406 27.002 170.633 27.002ZM187.033 20.0586C187.057 19.918 187.133 19.8008 187.262 19.707C187.402 19.6133 187.561 19.5488 187.736 19.5137C187.912 19.4785 188.094 19.4785 188.281 19.5137C188.48 19.5488 188.65 19.6309 188.791 19.7598C188.943 19.877 189.049 20.0469 189.107 20.2695C189.178 20.4805 189.172 20.7559 189.09 21.0957C188.984 21.5879 188.809 22.0508 188.562 22.4844C188.328 22.9062 188.029 23.2812 187.666 23.6094C187.303 23.9375 186.875 24.1953 186.383 24.3828C185.891 24.5703 185.34 24.6641 184.73 24.6641C184.402 24.6641 184.092 24.6465 183.799 24.6113C183.518 24.5762 183.242 24.5117 182.973 24.418C182.527 25.1914 181.953 25.8125 181.25 26.2812C180.547 26.7617 179.68 27.002 178.648 27.002C177.734 27.002 176.949 26.8203 176.293 26.457C175.637 26.1055 175.092 25.625 174.658 25.0156C174.225 24.3945 173.902 23.6797 173.691 22.8711C173.492 22.0625 173.393 21.207 173.393 20.3047C173.393 18.9805 173.545 17.7969 173.85 16.7539C174.166 15.6992 174.529 14.8086 174.939 14.082C175.35 13.3438 175.754 12.7812 176.152 12.3945C176.562 12.0078 176.867 11.8145 177.066 11.8145C177.301 11.8145 177.512 11.9199 177.699 12.1309C177.898 12.3301 178.039 12.5703 178.121 12.8516C178.215 13.1211 178.238 13.3965 178.191 13.6777C178.156 13.959 178.021 14.1758 177.787 14.3281C177.646 14.5508 177.477 14.8086 177.277 15.1016C177.09 15.3945 176.908 15.7637 176.732 16.209C176.568 16.6426 176.428 17.1758 176.311 17.8086C176.193 18.4414 176.135 19.2031 176.135 20.0938C176.135 20.8555 176.199 21.5176 176.328 22.0801C176.469 22.6426 176.656 23.1172 176.891 23.5039C177.137 23.8789 177.412 24.1602 177.717 24.3477C178.033 24.5352 178.367 24.6289 178.719 24.6289C179.234 24.6289 179.656 24.5059 179.984 24.2598C180.324 24.002 180.611 23.668 180.846 23.2578C180.002 22.5312 179.357 21.6113 178.912 20.498C178.479 19.373 178.262 18.1602 178.262 16.8594C178.262 16.2969 178.32 15.7637 178.438 15.2598C178.566 14.7441 178.748 14.293 178.982 13.9062C179.229 13.5195 179.533 13.2148 179.896 12.9922C180.26 12.7578 180.682 12.6406 181.162 12.6406C181.584 12.6406 181.982 12.793 182.357 13.0977C182.732 13.4023 183.061 13.8242 183.342 14.3633C183.623 14.9023 183.84 15.541 183.992 16.2793C184.156 17.0176 184.238 17.8203 184.238 18.6875C184.238 19.3555 184.197 20.0176 184.115 20.6738C184.033 21.3301 183.904 21.9629 183.729 22.5723C183.857 22.6191 183.975 22.6484 184.08 22.6602C184.197 22.6602 184.32 22.6602 184.449 22.6602C184.836 22.6602 185.176 22.5898 185.469 22.4492C185.773 22.3086 186.031 22.1211 186.242 21.8867C186.453 21.6523 186.623 21.377 186.752 21.0605C186.881 20.7441 186.975 20.4102 187.033 20.0586ZM180.16 16.7188C180.16 17.5273 180.283 18.2949 180.529 19.0215C180.787 19.748 181.121 20.3809 181.531 20.9199C181.602 20.3457 181.637 19.7949 181.637 19.2676C181.637 18.6582 181.625 18.0957 181.602 17.5801C181.59 17.0527 181.549 16.6016 181.479 16.2266C181.42 15.8516 181.332 15.5586 181.215 15.3477C181.109 15.125 180.963 15.0137 180.775 15.0137C180.365 15.0137 180.16 15.582 180.16 16.7188Z" fill="#BC9355"/>
</svg>
