<svg width="58" height="51" viewBox="0 0 58 51" fill="none" xmlns="http://www.w3.org/2000/svg">
<g clip-path="url(#clip0_21_683)">
<path d="M23.9062 6.37501C21.4439 6.36478 18.9968 6.76221 16.6643 7.5512C14.6153 8.23575 12.7025 9.27471 11.0128 10.6208C8.02294 13.0401 6.375 16.1383 6.375 19.345C6.375 21.1363 6.87544 22.8799 7.86356 24.5183C8.89313 26.23 10.4486 27.795 12.3579 29.0477C13.1076 29.5392 13.7452 30.1834 14.2291 30.938C14.713 31.6927 15.0323 32.5409 15.1661 33.4273C15.2107 33.727 15.2458 34.0266 15.2745 34.3262C15.4126 34.1999 15.5475 34.0702 15.6793 33.9373C16.3665 33.2527 17.201 32.734 18.119 32.4208C19.0371 32.1076 20.0146 32.0081 20.9769 32.13C21.9427 32.2511 22.9245 32.3149 23.9031 32.3149C26.3654 32.3251 28.8125 31.9277 31.1451 31.1387C33.1947 30.4535 35.1085 29.4146 36.7997 28.0691C39.7896 25.6498 41.4375 22.5516 41.4375 19.345C41.4375 16.1383 39.7896 13.0401 36.7997 10.6208C35.1104 9.27232 33.1961 8.23314 31.1451 7.5512C28.8125 6.76221 26.3686 6.36478 23.9062 6.37501ZM23.9062 1.3672e-05C37.1089 1.3672e-05 47.8125 8.66045 47.8125 19.345C47.8125 30.0295 37.1089 38.6899 23.9062 38.6899C22.6604 38.6908 21.4158 38.6121 20.1801 38.454C15.045 43.57 9.11625 44.4848 3.1875 44.6218V43.3691C6.38775 41.8073 8.96644 38.964 8.96644 35.7128C8.96644 35.2601 8.93137 34.8139 8.86444 34.3772C3.45844 30.8295 0 25.414 0 19.3418C0 8.65726 10.7036 -0.00317383 23.9062 -0.00317383V1.3672e-05ZM49.6071 43.3628C49.6071 46.1486 51.4144 48.5871 54.1907 49.9258V51C49.0556 50.8853 44.3413 50.098 39.8884 45.7151C38.8365 45.8458 37.7559 45.916 36.6594 45.916C31.9037 45.916 27.5241 44.6346 24.0274 42.4766C31.2343 42.4511 38.0364 40.1434 43.1938 35.9678C45.7084 33.9663 47.784 31.4686 49.2915 28.6301C51.0514 25.3033 51.8296 21.5448 51.5355 17.7926C55.1501 20.7761 57.375 24.8466 57.375 29.3314C57.375 34.5366 54.3788 39.1776 49.6931 42.2185C49.6354 42.5971 49.6066 42.9797 49.6071 43.3628Z" fill="#EBEBEB"/>
</g>
<defs>
<clipPath id="clip0_21_683">
<rect width="57.375" height="51" fill="white"/>
</clipPath>
</defs>
</svg>
