<svg width="43" height="43" viewBox="0 0 43 43" fill="none" xmlns="http://www.w3.org/2000/svg">
<g clip-path="url(#clip0_9_444)">
<path d="M43 0H0V43H43V0Z" fill="#BC9355"/>
<path d="M33.3727 16.1309C32.5174 16.4923 31.6061 16.7318 30.6559 16.8482C31.6334 16.286 32.3794 15.4026 32.7302 14.3378C31.8188 14.8612 30.8126 15.2309 29.7402 15.4372C28.8748 14.5497 27.6414 14 26.2959 14C23.6854 14 21.5838 16.0409 21.5838 18.5429C21.5838 18.9029 21.6154 19.2491 21.6931 19.5786C17.773 19.3945 14.3043 17.5848 11.9741 14.828C11.5673 15.5078 11.3287 16.286 11.3287 17.1237C11.3287 18.6966 12.1696 20.0909 13.4231 20.8982C12.6656 20.8843 11.9224 20.6725 11.2927 20.3388C11.2927 20.3526 11.2927 20.3706 11.2927 20.3886C11.2927 22.5957 12.9272 24.4289 15.0705 24.8512C14.6867 24.9523 14.2684 25.0008 13.8342 25.0008C13.5324 25.0008 13.2276 24.9842 12.9416 24.9232C13.5525 26.7218 15.2861 28.0442 17.3475 28.0871C15.7432 29.2958 13.7063 30.0242 11.5012 30.0242C11.1145 30.0242 10.7436 30.0075 10.3727 29.9618C12.4614 31.2592 14.9368 32 17.6062 32C26.283 32 31.0267 25.0769 31.0267 19.076C31.0267 18.8752 31.0196 18.6814 31.0095 18.4889C31.9453 17.8492 32.7316 17.0503 33.3727 16.1309Z" fill="white"/>
</g>
<defs>
<clipPath id="clip0_9_444">
<rect width="43" height="43" fill="white"/>
</clipPath>
</defs>
</svg>
