<svg width="43" height="43" viewBox="0 0 43 43" fill="none" xmlns="http://www.w3.org/2000/svg">
<g clip-path="url(#clip0_9_427)">
<path d="M43 0H0V43H43V0Z" fill="#BC9355"/>
<path d="M17.2061 11C13.9844 11 11.3727 13.6117 11.3727 16.8333V26.1667C11.3727 29.3883 13.9844 32 17.2061 32H26.5394C29.7611 32 32.3727 29.3883 32.3727 26.1667V16.8333C32.3727 13.6117 29.7611 11 26.5394 11H17.2061ZM28.8727 13.3333C29.5144 13.3333 30.0394 13.8583 30.0394 14.5C30.0394 15.1417 29.5144 15.6667 28.8727 15.6667C28.2311 15.6667 27.7061 15.1417 27.7061 14.5C27.7061 13.8583 28.2311 13.3333 28.8727 13.3333ZM21.8727 15.6667C25.0944 15.6667 27.7061 18.2783 27.7061 21.5C27.7061 24.7217 25.0944 27.3333 21.8727 27.3333C18.6511 27.3333 16.0394 24.7217 16.0394 21.5C16.0394 18.2783 18.6511 15.6667 21.8727 15.6667ZM21.8727 18C20.6219 18.0004 19.4663 18.6681 18.8412 19.7516C18.2162 20.8351 18.2166 22.1697 18.8424 23.2528C19.4682 24.3358 20.6242 25.0027 21.8751 25.0023C23.8087 25.0017 25.3757 23.4336 25.3751 21.5C25.3744 19.5664 23.8064 17.9994 21.8727 18Z" fill="white"/>
</g>
<defs>
<clipPath id="clip0_9_427">
<rect width="43" height="43" fill="white"/>
</clipPath>
</defs>
</svg>
