<svg width="43" height="43" viewBox="0 0 43 43" fill="none" xmlns="http://www.w3.org/2000/svg">
<g clip-path="url(#clip0_9_450)">
<path d="M43 0H0V43H43V0Z" fill="#BC9355"/>
<path d="M32.3952 16.5418C31.7714 15.4189 31.0943 15.2124 29.7157 15.1338C28.3386 15.0393 24.8757 15 21.8756 15C18.8698 15 15.4054 15.0393 14.0297 15.1324C12.6541 15.2124 11.9756 15.4175 11.3459 16.5418C10.7034 17.6633 10.3727 19.5949 10.3727 22.9956C10.3727 22.9985 10.3727 23 10.3727 23C10.3727 23.0029 10.3727 23.0044 10.3727 23.0044V23.0073C10.3727 26.3935 10.7034 28.3396 11.3459 29.4495C11.9756 30.5724 12.6526 30.776 14.0283 30.8705C15.4054 30.952 18.8698 31 21.8756 31C24.8757 31 28.3386 30.952 29.7172 30.872C31.0957 30.7775 31.7728 30.5738 32.3967 29.4509C33.045 28.3411 33.3727 26.3949 33.3727 23.0087C33.3727 23.0087 33.3727 23.0044 33.3727 23.0015V22.9971C33.3727 19.5949 33.045 17.6633 32.3952 16.5418ZM18.9977 27.3636V18.6364L26.1852 23L18.9977 27.3636Z" fill="white"/>
</g>
<defs>
<clipPath id="clip0_9_450">
<rect width="43" height="43" fill="white"/>
</clipPath>
</defs>
</svg>
