<svg width="40" height="40" viewBox="0 0 40 40" fill="none" xmlns="http://www.w3.org/2000/svg">
<path d="M25.6571 25.0994L24.5664 26.1341C23.7625 26.8902 22.7197 27.8632 21.437 29.053C21.0515 29.4105 20.5362 29.6104 20 29.6104C19.4638 29.6104 18.9485 29.4105 18.563 29.053L15.3555 26.06C14.9512 25.6802 14.6149 25.3603 14.3429 25.0994C13.2242 24.0262 12.4623 22.6589 12.1537 21.1704C11.845 19.6819 12.0035 18.139 12.609 16.7369C13.2145 15.3348 14.2399 14.1363 15.5555 13.2932C16.8711 12.45 18.4178 12 20 12C21.5822 12 23.1289 12.45 24.4445 13.2932C25.7601 14.1363 26.7855 15.3348 27.391 16.7369C27.9965 18.139 28.155 19.6819 27.8463 21.1704C27.5377 22.6589 26.7758 24.0262 25.6571 25.0994ZM22.297 19.9155C22.297 19.3312 22.055 18.7708 21.6242 18.3576C21.1935 17.9444 20.6092 17.7123 20 17.7123C19.3908 17.7123 18.8065 17.9444 18.3758 18.3576C17.945 18.7708 17.703 19.3312 17.703 19.9155C17.703 20.4999 17.945 21.0603 18.3758 21.4735C18.8065 21.8867 19.3908 22.1188 20 22.1188C20.6092 22.1188 21.1935 21.8867 21.6242 21.4735C22.055 21.0603 22.297 20.4999 22.297 19.9155Z" fill="#BC9355"/>
<circle cx="20" cy="20" r="19" stroke="#BC9355" stroke-width="2"/>
</svg>
