<svg width="14" height="14" viewBox="0 0 14 14" fill="none" xmlns="http://www.w3.org/2000/svg">
<path d="M9.91666 5.24999V4.08332C9.91666 2.44999 8.63333 1.16666 6.99999 1.16666C5.36666 1.16666 4.08333 2.44999 4.08333 4.08332V5.24999C3.09166 5.24999 2.33333 6.00832 2.33333 6.99999V11.0833C2.33333 12.075 3.09166 12.8333 4.08333 12.8333H9.91666C10.9083 12.8333 11.6667 12.075 11.6667 11.0833V6.99999C11.6667 6.00832 10.9083 5.24999 9.91666 5.24999ZM5.24999 4.08332C5.24999 3.09166 6.00833 2.33332 6.99999 2.33332C7.99166 2.33332 8.74999 3.09166 8.74999 4.08332V5.24999H5.24999V4.08332Z" fill="#FAF9F8"/>
</svg>
