<svg width="50" height="31" viewBox="0 0 50 31" fill="none" xmlns="http://www.w3.org/2000/svg">
<path d="M2.29691 4.97125e-05C1.02877 4.97125e-05 0 1.02828 0 2.29696V28.7031C0 29.9716 1.02892 31 2.29691 31H47.0661C48.3343 31 49.363 29.9718 49.363 28.7031V2.29691C49.363 1.02843 48.3341 0 47.0661 0H2.29686L2.29691 4.97125e-05ZM16.1864 3.73159C19.0041 3.73159 21.5919 4.71189 23.6232 6.34936C21.9142 7.87858 20.6395 9.8877 20.0105 12.165H20.9962C21.5768 10.2863 22.6313 8.61369 24.0213 7.28726C25.4112 8.61369 26.4657 10.2863 27.0463 12.165H28.0475C27.4098 9.8997 26.1333 7.90257 24.4254 6.38332C26.4607 4.72507 29.0587 3.73154 31.8885 3.73154C38.4188 3.73154 43.7124 9.02582 43.7124 15.5571C43.7124 22.0884 38.4188 27.3826 31.8885 27.3826C29.0116 27.3826 26.3737 26.3558 24.3236 24.6476C26.1574 23.0522 27.5094 20.9134 28.1277 18.4803H27.1635C26.6145 20.5225 25.5096 22.3388 24.0212 23.7591C22.5329 22.3388 21.4295 20.5225 20.8805 18.4803H19.9626C20.5845 20.8782 21.9188 22.987 23.725 24.5674C21.6787 26.2544 19.0511 27.2685 16.1864 27.2685C9.65614 27.2685 4.36245 21.9996 4.36245 15.5C4.36245 9.0004 9.65614 3.73159 16.1864 3.73159ZM31.0015 12.0446C29.5808 12.0446 28.1986 13.2867 28.1986 15.6188C28.1986 17.1652 28.9452 18.1857 30.4138 18.1857C30.829 18.1858 31.4905 18.016 31.4905 18.016L31.7095 16.6647C31.7095 16.6647 31.1058 16.9701 30.6914 16.9701C29.8184 16.9701 29.4682 16.2987 29.4682 15.5772C29.4682 14.1134 30.2193 13.308 31.0555 13.308C31.6825 13.308 32.1862 13.6628 32.1862 13.6628L32.3868 12.3485C32.3868 12.3485 31.6412 12.0446 31.0015 12.0446ZM42.9458 12.1588L41.7102 12.1619L41.4449 13.7878C41.4449 13.7878 40.9804 13.1568 40.254 13.1568C39.1246 13.1568 38.1838 14.4985 38.1838 16.0415C38.1838 17.0375 38.6845 18.0144 39.711 18.0144C40.4494 18.0144 40.8587 17.507 40.8587 17.507L40.8047 17.9404H42.0048L42.9458 12.1588ZM7.5556 12.1757L6.57145 17.9712H7.75769L8.50741 13.6011L8.61848 17.9712H9.46688L11.0496 13.6011L10.3477 17.9712H11.608L12.5799 12.1757H10.63L9.41599 15.7314L9.35275 12.1758H7.55565L7.5556 12.1757ZM19.9488 12.5521C19.922 12.579 19.2315 16.5607 19.2315 17.0457C19.2315 17.7637 19.634 18.0844 20.2003 18.0792C20.606 18.0758 20.9203 17.9739 21.0657 17.9312C21.0809 17.9271 21.1104 17.9188 21.1104 17.9188L21.2631 16.8822C21.1801 16.8822 21.0578 16.9177 20.9499 16.9177C20.5272 16.9177 20.4803 16.6927 20.5072 16.5258L20.8482 14.411H21.4914L21.6472 13.2648H21.041L21.1644 12.5521H19.9488ZM34.2872 13.1352C33.4593 13.1352 32.8249 13.4083 32.8249 13.4083L32.649 14.4727C32.649 14.4727 33.173 14.2551 33.9648 14.2551C34.4144 14.2551 34.7438 14.3066 34.7438 14.6809C34.7438 14.9083 34.7037 14.9925 34.7037 14.9925C34.7037 14.9925 34.3482 14.9617 34.1839 14.9617C33.1397 14.9617 32.0427 15.4193 32.0427 16.7958C32.0427 17.8804 32.7629 18.1286 33.2089 18.1286C34.0609 18.1286 34.4282 17.5627 34.4477 17.5609L34.4075 18.033H35.4704L35.9455 14.6269C35.9457 13.1817 34.7147 13.1352 34.2872 13.1352V13.1352ZM14.3492 13.1414C13.5182 13.1414 12.8806 13.4144 12.8806 13.4144L12.7048 14.4789C12.7048 14.4789 13.2305 14.2613 14.0253 14.2613C14.4765 14.2613 14.8074 14.3129 14.8074 14.6871C14.8074 14.9143 14.7672 14.9987 14.7672 14.9987C14.7672 14.9987 14.4107 14.9678 14.2459 14.9678C13.1977 14.9678 12.097 15.4247 12.097 16.8004C12.097 17.8845 12.8186 18.1332 13.2663 18.1332C14.1213 18.1332 14.49 17.5672 14.5097 17.5656L14.4695 18.0376H15.537L16.0136 14.6331C16.0136 13.1887 14.7782 13.1414 14.3492 13.1414V13.1414ZM18.1193 13.1414C17.2269 13.1414 16.3206 13.5016 16.3206 14.7318C16.3206 16.1257 17.8308 15.9849 17.8308 16.5721C17.8308 16.964 17.4094 16.9964 17.0842 16.9964C16.5215 16.9964 16.0155 16.8019 16.0136 16.8113L15.8517 17.8756C15.8808 17.8847 16.1942 18.0252 17.2061 18.0252C17.4778 18.0252 19.031 18.0942 19.031 16.4765C19.031 14.964 17.5933 15.2638 17.5933 14.6562C17.5933 14.3537 17.8267 14.2583 18.255 14.2583C18.4251 14.2583 19.0804 14.3123 19.0804 14.3123L19.2315 13.237C19.2315 13.2372 18.8087 13.1414 18.1193 13.1414ZM23.6973 13.1414C22.4573 13.1417 21.5392 14.4751 21.5392 15.9813C21.5392 17.7198 22.6895 18.1332 23.6695 18.1332C24.5742 18.1332 24.973 17.9312 24.973 17.9312L25.189 16.7449C25.189 16.7449 24.5008 17.0473 23.8793 17.0473C22.5551 17.0473 22.7872 16.0615 22.7872 16.0615H25.2939C25.2939 16.0615 25.4559 15.2649 25.4559 14.9401C25.4559 14.1295 25.0513 13.1414 23.6973 13.1414ZM28.1878 13.1923C27.6292 13.1923 27.2144 13.9436 27.2144 13.9436L27.3255 13.254H26.1654L25.3865 18.0145H26.6684C27.0314 15.9816 27.0977 14.331 27.9641 14.6331C28.1158 13.8463 28.2629 13.5423 28.4284 13.2093C28.4284 13.2093 28.3507 13.1923 28.1878 13.1923ZM38.5741 13.1923C38.0155 13.1923 37.6007 13.9436 37.6007 13.9436L37.7118 13.254H36.5518L35.7727 18.0145H37.0531C37.4163 15.9816 37.4843 14.331 38.3504 14.6331C38.5023 13.8463 38.6493 13.5423 38.8148 13.2093C38.8148 13.2093 38.7369 13.1923 38.5741 13.1923ZM23.6911 14.2151C24.3954 14.2151 24.2665 15.01 24.2665 15.0743H22.8797C22.8797 14.9922 23.0109 14.2151 23.6911 14.2151ZM40.4484 14.3076C40.8966 14.3075 41.1271 14.6103 41.1271 15.3226C41.1271 15.969 40.8011 16.8328 40.1259 16.8328C39.6778 16.8328 39.4672 16.4628 39.4672 15.8826C39.4672 14.9339 39.9013 14.3076 40.4484 14.3076ZM34.2888 15.9273C34.4716 15.9276 34.5094 15.9453 34.5402 15.9536C34.5358 15.9528 34.5349 15.9537 34.5526 15.9566C34.5757 16.1686 34.4245 17.163 33.6933 17.163C33.3163 17.163 33.2198 16.8632 33.2198 16.6863C33.2198 16.3413 33.3993 15.9273 34.2888 15.9273ZM14.3508 15.932C14.5584 15.9322 14.5811 15.9554 14.6161 15.9613C14.6393 16.1732 14.4874 17.166 13.7538 17.166C13.3753 17.166 13.2771 16.8677 13.2771 16.6909C13.2771 16.3462 13.4578 15.932 14.3508 15.932Z" fill="#BC9355"/>
</svg>
