<svg width="40" height="31" viewBox="0 0 40 31" fill="none" xmlns="http://www.w3.org/2000/svg">
<path d="M12.892 15.6519C12.892 16.4964 12.2207 17.1391 11.37 17.1391C10.7335 17.1391 10.2628 16.7791 10.2628 16.1016C10.2628 15.2571 10.9204 14.5796 11.7648 14.5796C12.4087 14.5796 12.892 14.9744 12.892 15.6519ZM5.57103 12.2966H5.24596C5.14259 12.2966 5.03797 12.3664 5.02427 12.4834L4.7266 14.3317L5.29454 14.3106C6.05552 14.3106 6.64339 14.2072 6.78164 13.3279C6.94106 12.4 6.35319 12.2966 5.57103 12.2966ZM25.2222 12.2966H24.9108C24.7863 12.2966 24.7029 12.3664 24.6892 12.4834L24.399 14.3317L24.952 14.3106C25.8512 14.3106 26.4739 14.1026 26.4739 13.0651C26.4665 12.3315 25.8113 12.2966 25.2222 12.2966ZM39.8566 3.3217V27.6783C39.8563 28.5592 39.5062 29.4039 38.8833 30.0267C38.2605 30.6496 37.4158 30.9997 36.5349 31H3.3217C2.44083 30.9997 1.59613 30.6496 0.973267 30.0267C0.350399 29.4039 0.000330098 28.5592 0 27.6783V3.3217C0.000330098 2.44083 0.350399 1.59613 0.973267 0.973267C1.59613 0.3504 2.44083 0.000330098 3.3217 0H36.5349C37.4158 0.000330098 38.2605 0.3504 38.8833 0.973267C39.5062 1.59613 39.8563 2.44083 39.8566 3.3217ZM8.87903 12.6902C8.87903 11.2367 7.7581 10.7522 6.47774 10.7522H3.71029C3.62089 10.7529 3.53485 10.7864 3.4685 10.8463C3.40215 10.9062 3.3601 10.9884 3.35034 11.0773L2.21571 18.1417C2.19454 18.2799 2.29916 18.4182 2.4374 18.4182H3.75263C3.93945 18.4182 4.11258 18.2176 4.13375 18.0233L4.44512 16.1825C4.51487 15.6843 5.35806 15.8575 5.6906 15.8575C7.66967 15.8575 8.88027 14.6817 8.88027 12.689L8.87903 12.6902ZM14.7054 13.2992H13.3902C13.1274 13.2992 13.1137 13.6804 13.1 13.8672C12.6989 13.2793 12.1173 13.1747 11.4597 13.1747C9.76456 13.1747 8.47051 14.6618 8.47051 16.3021C8.47051 17.6509 9.31495 18.5303 10.6638 18.5303C11.2865 18.5303 12.0612 18.1915 12.4971 17.707C12.4569 17.8469 12.4335 17.9912 12.4274 18.1367C12.4274 18.2961 12.4971 18.4132 12.6491 18.4132H13.8398C14.0266 18.4132 14.186 18.2127 14.2209 18.0184L14.9271 13.5695C14.9483 13.4375 14.8436 13.2992 14.7054 13.2992ZM17.5077 20.0734L21.9155 13.6654C21.9503 13.6305 21.9503 13.5957 21.9503 13.5483C21.9503 13.4313 21.847 13.3067 21.7286 13.3067H20.3997C20.3379 13.3091 20.2775 13.3261 20.2234 13.3562C20.1693 13.3862 20.1231 13.4286 20.0884 13.4798L18.255 16.1788L17.494 13.5845C17.4654 13.5055 17.4138 13.437 17.3459 13.3877C17.2779 13.3384 17.1968 13.3107 17.1129 13.308H15.8188C15.7005 13.308 15.5971 13.4325 15.5971 13.5496C15.5971 13.633 16.946 17.4803 17.0643 17.8465C16.8775 18.1093 15.6457 19.8256 15.6457 20.0335C15.6457 20.1581 15.7491 20.2552 15.8674 20.2552H17.1963C17.2585 20.2512 17.3189 20.2329 17.3729 20.2018C17.4269 20.1707 17.473 20.1276 17.5077 20.0759V20.0734ZM28.5302 12.6902C28.5302 11.2367 27.4093 10.7522 26.1289 10.7522H23.3814C23.2894 10.7515 23.2002 10.784 23.1302 10.8437C23.0602 10.9034 23.0141 10.9863 23.0003 11.0773L21.8793 18.1354C21.8657 18.2737 21.969 18.4119 22.101 18.4119H23.5196C23.6579 18.4119 23.7613 18.3086 23.7961 18.1902L24.1075 16.1838C24.1773 15.6856 25.0217 15.8587 25.353 15.8587C27.3184 15.8587 28.5302 14.683 28.5302 12.6902ZM34.3553 13.2992H33.0401C32.7773 13.2992 32.7636 13.6804 32.7424 13.8672C32.3613 13.2793 31.7734 13.1747 31.1021 13.1747C29.407 13.1747 28.113 14.6618 28.113 16.3021C28.113 17.6509 28.9574 18.5303 30.3063 18.5303C30.9502 18.5303 31.7249 18.1915 32.1396 17.707C32.1184 17.8104 32.0699 18.0321 32.0699 18.1367C32.0699 18.2961 32.1396 18.4132 32.2916 18.4132H33.4885C33.6753 18.4132 33.8347 18.2127 33.8696 18.0184L34.5758 13.5695C34.5969 13.4375 34.4936 13.2992 34.3553 13.2992ZM37.6421 10.9951C37.6421 10.8569 37.5388 10.7535 37.4205 10.7535H36.1401C36.0367 10.7535 35.9321 10.8369 35.9184 10.9403L34.7975 18.1367L34.7775 18.1716C34.7775 18.2961 34.8809 18.4132 35.0192 18.4132H36.1613C36.3344 18.4132 36.5075 18.2127 36.5212 18.0184L37.6421 11.0163V10.9951ZM31.4147 14.5796C30.5703 14.5796 29.9127 15.2509 29.9127 16.1016C29.9127 16.7729 30.3972 17.1391 31.0336 17.1391C31.8644 17.1391 32.5357 16.5026 32.5357 15.6519C32.5432 14.9744 32.0587 14.5796 31.4147 14.5796Z" fill="#BC9355"/>
</svg>
