<svg width="43" height="43" viewBox="0 0 43 43" fill="none" xmlns="http://www.w3.org/2000/svg">
<rect width="43" height="43" fill="#BC9355"/>
<path d="M5.5564 22.5238C9.69246 22.5238 13.5813 24.143 16.5026 27.0791C17.9488 28.5263 19.0944 30.2453 19.8734 32.1371C20.6524 34.0288 21.0495 36.056 21.0418 38.1019H27.4179C27.4179 25.9974 17.6085 16.1518 5.55506 16.1518V22.5238H5.5564ZM5.56446 11.2256C20.3108 11.2256 32.3051 23.2857 32.3051 38.1086H38.6772C38.6772 19.7718 23.8233 4.85083 5.56446 4.85083V11.2256ZM14.3795 33.6528C14.3796 34.2326 14.2656 34.8068 14.0439 35.3426C13.8221 35.8784 13.497 36.3653 13.0871 36.7754C12.6772 37.1856 12.1906 37.511 11.6549 37.733C11.1193 37.9551 10.5451 38.0695 9.96525 38.0697C9.38539 38.0698 8.81117 37.9558 8.27538 37.7341C7.73959 37.5123 7.25273 37.1872 6.84258 36.7773C6.43243 36.3674 6.10703 35.8808 5.88497 35.3451C5.6629 34.8095 5.54852 34.2353 5.54834 33.6555C5.54816 32.4844 6.0132 31.3612 6.84115 30.533C7.66911 29.7048 8.79215 29.2394 9.96323 29.2392C11.1343 29.239 12.2575 29.7041 13.0857 30.532C13.9139 31.36 14.3793 32.4817 14.3795 33.6528Z" fill="#EBEBEB"/>
</svg>
