<svg width="14" height="14" viewBox="0 0 14 14" fill="none" xmlns="http://www.w3.org/2000/svg">
<path d="M4.08334 12.8333C3.76251 12.8333 3.48776 12.719 3.25909 12.4903C3.03043 12.2617 2.91629 11.9871 2.91668 11.6667C2.91668 11.3458 3.03101 11.0711 3.25968 10.8424C3.48834 10.6137 3.7629 10.4996 4.08334 10.5C4.40418 10.5 4.67893 10.6143 4.90759 10.843C5.13626 11.0717 5.2504 11.3462 5.25001 11.6667C5.25001 11.9875 5.13568 12.2622 4.90701 12.4909C4.67834 12.7196 4.40379 12.8337 4.08334 12.8333ZM9.91668 12.8333C9.59584 12.8333 9.32109 12.719 9.09243 12.4903C8.86376 12.2617 8.74962 11.9871 8.75001 11.6667C8.75001 11.3458 8.86434 11.0711 9.09301 10.8424C9.32168 10.6137 9.59623 10.4996 9.91668 10.5C10.2375 10.5 10.5123 10.6143 10.7409 10.843C10.9696 11.0717 11.0837 11.3462 11.0833 11.6667C11.0833 11.9875 10.969 12.2622 10.7403 12.4909C10.5117 12.7196 10.2371 12.8337 9.91668 12.8333ZM3.03334 2.33332H11.6375C11.8611 2.33332 12.0313 2.43307 12.1479 2.63257C12.2646 2.83207 12.2695 3.03371 12.1625 3.23749L10.0917 6.97082C9.98473 7.16527 9.84123 7.31596 9.66118 7.42291C9.48112 7.52985 9.28434 7.58332 9.07084 7.58332H4.72501L4.08334 8.74999H11.0833V9.91666H4.08334C3.64584 9.91666 3.31529 9.72454 3.09168 9.34032C2.86807 8.9561 2.85834 8.5746 3.06251 8.19582L3.85001 6.76666L1.75001 2.33332H0.583344V1.16666H2.47918L3.03334 2.33332Z" fill="#FAF9F8"/>
</svg>
