<svg width="51" height="51" viewBox="0 0 51 51" fill="none" xmlns="http://www.w3.org/2000/svg">
<path d="M32.0027 22.3125C32.2845 21.9969 32.4293 21.5823 32.4054 21.1598C32.3815 20.7374 32.1908 20.3418 31.8752 20.06C31.5596 19.7782 31.1449 19.6333 30.7225 19.6572C30.3001 19.6812 29.9045 19.8719 29.6227 20.1875L23.2243 27.3573L21.3756 25.2875C21.093 24.9753 20.6984 24.7876 20.2779 24.7654C19.8574 24.7432 19.4452 24.8883 19.1313 25.169C18.8175 25.4497 18.6275 25.8433 18.6028 26.2636C18.5782 26.684 18.7209 27.097 18.9998 27.4125L22.0343 30.8125C22.1838 30.98 22.367 31.114 22.5719 31.2057C22.7768 31.2975 22.9987 31.3449 23.2232 31.3449C23.4477 31.3449 23.6697 31.2975 23.8746 31.2057C24.0795 31.114 24.2627 30.98 24.4122 30.8125L32.0027 22.3125Z" fill="#EBEBEB"/>
<path fill-rule="evenodd" clip-rule="evenodd" d="M25.5 2.65625C23.5067 2.65625 21.6049 3.30863 18.5364 4.35838L16.9915 4.88963C13.8444 5.96488 11.4134 6.79787 9.67512 7.50337C8.79962 7.85825 8.04525 8.20463 7.43962 8.55525C6.85525 8.89525 6.27087 9.31812 5.8735 9.8855C5.48037 10.4444 5.27638 11.1329 5.14888 11.798C5.015 12.4865 4.93638 13.3131 4.88325 14.263C4.78125 16.1457 4.78125 18.7298 4.78125 22.0788V25.4809C4.78125 38.4455 14.5732 44.6611 20.3957 47.2069L20.4531 47.2302C21.1756 47.5469 21.8556 47.8422 22.6355 48.042C23.4579 48.2545 24.3334 48.3438 25.5 48.3438C26.6688 48.3438 27.54 48.2545 28.3645 48.042C29.1444 47.8422 29.8244 47.5469 30.5447 47.2302L30.6043 47.2069C36.4268 44.6611 46.2188 38.4455 46.2188 25.4809V22.0788C46.2188 18.7298 46.2187 16.1457 46.1167 14.2609C46.0825 13.4343 45.9938 12.6108 45.8511 11.7959C45.7236 11.1329 45.5196 10.4444 45.1286 9.88338C44.7291 9.31813 44.1448 8.89525 43.5604 8.55525C42.8399 8.15433 42.093 7.80289 41.3249 7.50337C39.5866 6.79787 37.1556 5.96488 34.0085 4.88963L32.4636 4.35838C29.3951 3.30863 27.4911 2.65625 25.5 2.65625ZM19.295 7.46725C22.7269 6.29425 24.1018 5.84375 25.5 5.84375C26.8982 5.84375 28.2731 6.29425 31.705 7.46725L32.9205 7.88375C36.1356 8.9845 38.4795 9.78775 40.1242 10.455C40.9466 10.7908 41.5416 11.0712 41.9603 11.3135C42.1664 11.4325 42.3088 11.5302 42.4023 11.6089C42.483 11.6726 42.5149 11.7109 42.5191 11.7151C42.5469 11.7652 42.5697 11.8178 42.5871 11.8724C42.6296 11.9914 42.6764 12.1614 42.721 12.3994C42.836 13.0726 42.907 13.7526 42.9335 14.4351C43.0313 16.2223 43.0312 18.717 43.0312 22.1361V25.4809C43.0312 36.4778 34.8075 41.8923 29.3271 44.285C28.5387 44.6293 28.0819 44.8248 27.574 44.9544C27.0895 45.0798 26.4987 45.1562 25.5 45.1562C24.5013 45.1562 23.9105 45.0798 23.426 44.9544C22.916 44.8269 22.4613 44.6293 21.6729 44.285C16.1904 41.8901 7.96875 36.4778 7.96875 25.4809V22.1361C7.96875 18.717 7.96875 16.2223 8.0665 14.4351C8.09305 13.7526 8.16403 13.0726 8.279 12.3994C8.32362 12.1614 8.37038 11.9914 8.41288 11.8724C8.45113 11.7661 8.47662 11.7236 8.48087 11.7151C8.51632 11.676 8.55546 11.6404 8.59775 11.6089C8.73692 11.4981 8.88472 11.3986 9.03975 11.3114C9.45838 11.0691 10.0534 10.7908 10.8758 10.4571C12.5205 9.78775 14.8644 8.9845 18.0795 7.88587L19.2971 7.46725H19.295Z" fill="#EBEBEB"/>
</svg>
