<svg width="17" height="18" viewBox="0 0 17 18" fill="none" xmlns="http://www.w3.org/2000/svg">
<path d="M16.2188 3.5625C16.2188 3.87744 16.0936 4.17949 15.8709 4.40219C15.6482 4.62489 15.3462 4.75 15.0312 4.75H14.4375V15.4375C14.4375 16.0674 14.1873 16.6715 13.7419 17.1169C13.2965 17.5623 12.6924 17.8125 12.0625 17.8125H4.9375C4.30761 17.8125 3.70352 17.5623 3.25812 17.1169C2.81272 16.6715 2.5625 16.0674 2.5625 15.4375V4.75H1.96875C1.65381 4.75 1.35176 4.62489 1.12906 4.40219C0.906361 4.17949 0.78125 3.87744 0.78125 3.5625V2.375C0.78125 2.06006 0.906361 1.75801 1.12906 1.53531C1.35176 1.31261 1.65381 1.1875 1.96875 1.1875H6.125C6.125 0.872555 6.25011 0.57051 6.47281 0.347811C6.69551 0.125111 6.99756 0 7.3125 0L9.6875 0C10.0024 0 10.3045 0.125111 10.5272 0.347811C10.7499 0.57051 10.875 0.872555 10.875 1.1875H15.0312C15.3462 1.1875 15.6482 1.31261 15.8709 1.53531C16.0936 1.75801 16.2188 2.06006 16.2188 2.375V3.5625ZM3.89013 4.75L3.75 4.82006V15.4375C3.75 15.7524 3.87511 16.0545 4.09781 16.2772C4.32051 16.4999 4.62256 16.625 4.9375 16.625H12.0625C12.3774 16.625 12.6795 16.4999 12.9022 16.2772C13.1249 16.0545 13.25 15.7524 13.25 15.4375V4.82006L13.1099 4.75H3.89013ZM1.96875 3.5625H15.0312V2.375H1.96875V3.5625Z" fill="black"/>
</svg>
