<svg width="14" height="14" viewBox="0 0 14 14" fill="none" xmlns="http://www.w3.org/2000/svg">
<path fill-rule="evenodd" clip-rule="evenodd" d="M4.37497 3.5C4.37497 2.80381 4.65154 2.13613 5.14382 1.64384C5.6361 1.15156 6.30378 0.875 6.99997 0.875C7.69617 0.875 8.36385 1.15156 8.85613 1.64384C9.34841 2.13613 9.62497 2.80381 9.62497 3.5C9.62497 4.19619 9.34841 4.86387 8.85613 5.35615C8.36385 5.84844 7.69617 6.125 6.99997 6.125C6.30378 6.125 5.6361 5.84844 5.14382 5.35615C4.65154 4.86387 4.37497 4.19619 4.37497 3.5ZM2.18806 11.7279C2.20773 10.4647 2.72335 9.25986 3.62362 8.3735C4.52389 7.48714 5.7366 6.99034 6.99997 6.99034C8.26335 6.99034 9.47606 7.48714 10.3763 8.3735C11.2766 9.25986 11.7922 10.4647 11.8119 11.7279C11.8134 11.813 11.7901 11.8966 11.7448 11.9686C11.6996 12.0406 11.6343 12.0978 11.557 12.1333C10.1273 12.7888 8.57273 13.1271 6.99997 13.125C5.37481 13.125 3.83072 12.7703 2.44297 12.1333C2.36567 12.0978 2.30039 12.0406 2.25512 11.9686C2.20984 11.8966 2.18654 11.813 2.18806 11.7279Z" fill="#FAF9F8"/>
</svg>
