<svg width="43" height="31" viewBox="0 0 43 31" fill="none" xmlns="http://www.w3.org/2000/svg">
<path d="M0 0H42.625V3.875H0V0ZM0 27.125H42.625V31H0V27.125ZM36.0801 21.1459L35.743 19.4602H31.9668L31.3662 21.1323L28.3398 21.1401C30.287 16.4765 31.7304 13.0219 32.6721 10.7744C32.9181 10.1893 33.356 9.89094 33.9993 9.89481C34.4914 9.89869 35.2954 9.89869 36.4114 9.89481L38.75 21.142L36.0801 21.1478V21.1459ZM32.8174 17.1508H35.2509L34.3403 12.927L32.8174 17.1508ZM13.3145 9.89287L16.3564 9.89675L11.6541 21.1459L8.57344 21.1439C7.533 17.1333 6.76769 14.1573 6.27944 12.2217C6.13025 11.6269 5.83381 11.2123 5.26031 11.0166C4.75075 10.8422 3.90213 10.571 2.7125 10.2048V9.89481H7.57369C8.41456 9.89481 8.90475 10.3017 9.06363 11.1348L10.2649 17.5072L13.3145 9.89287ZM20.5356 9.89675L18.1331 21.1439L15.2365 21.1401L17.639 9.89287L20.5356 9.89675ZM26.4101 9.6875C27.2742 9.6875 28.3669 9.95487 28.9947 10.2048L28.4871 12.5376C27.9194 12.3089 26.9855 12.0009 26.2008 12.0144C25.0577 12.0319 24.3524 12.5104 24.3524 12.9696C24.3524 13.7136 25.5769 14.0895 26.8402 14.9052C28.2797 15.8352 28.4677 16.6683 28.4522 17.5751C28.4309 19.4564 26.8402 21.3125 23.4825 21.3125C21.9499 21.2892 21.3977 21.1614 20.15 20.7196L20.677 18.2861C21.948 18.817 22.4886 18.9856 23.5736 18.9856C24.5714 18.9856 25.4258 18.5845 25.4336 17.8851C25.4374 17.3871 25.1333 17.1411 24.0153 16.5249C22.8974 15.9108 21.3299 15.0602 21.3513 13.3474C21.3764 11.1581 23.4592 9.6875 26.4101 9.6875Z" fill="#BC9355"/>
</svg>
